<svg xmlns="http://www.w3.org/2000/svg" xmlns:xlink="http://www.w3.org/1999/xlink" contentStyleType="text/css" data-diagram-type="SEQUENCE" height="542px" preserveAspectRatio="none" style="width:590px;height:542px;background:#FFFFFF;" version="1.1" viewBox="0 0 590 542" width="590px" zoomAndPan="magnify"><defs/><g><rect fill="none" height="203.7969" style="stroke:#000000;stroke-width:1.5;" width="405.7505" x="178.689" y="211.6953"/><rect fill="none" height="46.2656" style="stroke:#000000;stroke-width:1.5;" width="385.7505" x="188.689" y="362.2266"/><g><title>Actor0</title><rect fill="#000000" fill-opacity="0.00000" height="380.3281" width="8" x="26.9961" y="81.2969"/><line style="stroke:#181818;stroke-width:0.5;stroke-dasharray:5.0,5.0;" x1="30" x2="30" y1="81.2969" y2="461.625"/></g><g><title>SilkRoad</title><rect fill="#000000" fill-opacity="0.00000" height="380.3281" width="8" x="231.9551" y="81.2969"/><line style="stroke:#181818;stroke-width:0.5;stroke-dasharray:5.0,5.0;" x1="235.689" x2="235.689" y1="81.2969" y2="461.625"/></g><g><title>Board</title><rect fill="#000000" fill-opacity="0.00000" height="380.3281" width="8" x="404.1895" y="81.2969"/><line style="stroke:#181818;stroke-width:0.5;stroke-dasharray:5.0,5.0;" x1="407.4937" x2="407.4937" y1="81.2969" y2="461.625"/></g><g class="participant participant-head" data-participant="Actor0"><text fill="#000000" font-family="sans-serif" font-size="14" lengthAdjust="spacing" textLength="45.9922" x="5" y="77.9951">Actor0</text><ellipse cx="30.9961" cy="13.5" fill="#E2E2F0" rx="8" ry="8" style="stroke:#181818;stroke-width:0.5;"/><path d="M30.9961,21.5 L30.9961,48.5 M17.9961,29.5 L43.9961,29.5 M30.9961,48.5 L17.9961,63.5 M30.9961,48.5 L43.9961,63.5" fill="none" style="stroke:#181818;stroke-width:0.5;"/></g><g class="participant participant-tail" data-participant="Actor0"><text fill="#000000" font-family="sans-serif" font-size="14" lengthAdjust="spacing" textLength="45.9922" x="5" y="473.6201">Actor0</text><ellipse cx="30.9961" cy="485.4219" fill="#E2E2F0" rx="8" ry="8" style="stroke:#181818;stroke-width:0.5;"/><path d="M30.9961,493.4219 L30.9961,520.4219 M17.9961,501.4219 L43.9961,501.4219 M30.9961,520.4219 L17.9961,535.4219 M30.9961,520.4219 L43.9961,535.4219" fill="none" style="stroke:#181818;stroke-width:0.5;"/></g><g class="participant participant-head" data-participant="SilkRoad"><rect fill="#E2E2F0" height="30.2969" rx="2.5" ry="2.5" style="stroke:#181818;stroke-width:0.5;" width="74.5322" x="198.689" y="50"/><text fill="#000000" font-family="sans-serif" font-size="14" lengthAdjust="spacing" textLength="60.5322" x="205.689" y="69.9951">SilkRoad</text></g><g class="participant participant-tail" data-participant="SilkRoad"><rect fill="#E2E2F0" height="30.2969" rx="2.5" ry="2.5" style="stroke:#181818;stroke-width:0.5;" width="74.5322" x="198.689" y="460.625"/><text fill="#000000" font-family="sans-serif" font-size="14" lengthAdjust="spacing" textLength="60.5322" x="205.689" y="480.6201">SilkRoad</text></g><g class="participant participant-head" data-participant="Board"><rect fill="#E2E2F0" height="30.2969" rx="2.5" ry="2.5" style="stroke:#181818;stroke-width:0.5;" width="55.3916" x="380.4937" y="50"/><text fill="#000000" font-family="sans-serif" font-size="14" lengthAdjust="spacing" textLength="41.3916" x="387.4937" y="69.9951">Board</text></g><g class="participant participant-tail" data-participant="Board"><rect fill="#E2E2F0" height="30.2969" rx="2.5" ry="2.5" style="stroke:#181818;stroke-width:0.5;" width="55.3916" x="380.4937" y="460.625"/><text fill="#000000" font-family="sans-serif" font-size="14" lengthAdjust="spacing" textLength="41.3916" x="387.4937" y="480.6201">Board</text></g><g class="message" data-participant-1="Actor0" data-participant-2="SilkRoad"><polygon fill="#181818" points="223.9551,108.4297,233.9551,112.4297,223.9551,116.4297,227.9551,112.4297" style="stroke:#181818;stroke-width:1;"/><line style="stroke:#181818;stroke-width:1;" x1="30.9961" x2="229.9551" y1="112.4297" y2="112.4297"/><text fill="#000000" font-family="sans-serif" font-size="13" lengthAdjust="spacing" textLength="180.959" x="37.9961" y="107.3638">applyVisibleMaskForFirstN()</text></g><g class="message" data-participant-1="SilkRoad" data-participant-2="SilkRoad"><line style="stroke:#181818;stroke-width:1;" x1="235.9551" x2="277.9551" y1="141.5625" y2="141.5625"/><line style="stroke:#181818;stroke-width:1;" x1="277.9551" x2="277.9551" y1="141.5625" y2="154.5625"/><line style="stroke:#181818;stroke-width:1;" x1="236.9551" x2="277.9551" y1="154.5625" y2="154.5625"/><polygon fill="#181818" points="246.9551,150.5625,236.9551,154.5625,246.9551,158.5625,242.9551,154.5625" style="stroke:#181818;stroke-width:1;"/><text fill="#000000" font-family="sans-serif" font-size="13" lengthAdjust="spacing" textLength="157.644" x="242.9551" y="136.4966">rows = board.getRows()</text></g><g class="message" data-participant-1="SilkRoad" data-participant-2="SilkRoad"><line style="stroke:#181818;stroke-width:1;" x1="235.9551" x2="277.9551" y1="183.6953" y2="183.6953"/><line style="stroke:#181818;stroke-width:1;" x1="277.9551" x2="277.9551" y1="183.6953" y2="196.6953"/><line style="stroke:#181818;stroke-width:1;" x1="236.9551" x2="277.9551" y1="196.6953" y2="196.6953"/><polygon fill="#181818" points="246.9551,192.6953,236.9551,196.6953,246.9551,200.6953,242.9551,196.6953" style="stroke:#181818;stroke-width:1;"/><text fill="#000000" font-family="sans-serif" font-size="13" lengthAdjust="spacing" textLength="145.4502" x="242.9551" y="178.6294">cols = board.getCols()</text></g><path d="M178.689,211.6953 L255.313,211.6953 L255.313,218.8281 L245.313,228.8281 L178.689,228.8281 L178.689,211.6953" fill="#EEEEEE" style="stroke:#000000;stroke-width:1.5;"/><rect fill="none" height="203.7969" style="stroke:#000000;stroke-width:1.5;" width="405.7505" x="178.689" y="211.6953"/><text fill="#000000" font-family="sans-serif" font-size="13" font-weight="bold" lengthAdjust="spacing" textLength="31.624" x="193.689" y="224.7622">loop</text><a href="for" target="_top" title="for" xlink:actuate="onRequest" xlink:href="for" xlink:show="new" xlink:title="for" xlink:type="simple"><text fill="#0000FF" font-family="sans-serif" font-size="11" font-weight="bold" lengthAdjust="spacing" text-decoration="underline" textLength="199.6597" x="270.313" y="223.9058">(int i = 0; i &lt; visibleTarget; i++)</text></a><g class="message" data-participant-1="SilkRoad" data-participant-2="SilkRoad"><line style="stroke:#181818;stroke-width:1;" x1="235.9551" x2="277.9551" y1="249.9609" y2="249.9609"/><line style="stroke:#181818;stroke-width:1;" x1="277.9551" x2="277.9551" y1="249.9609" y2="262.9609"/><line style="stroke:#181818;stroke-width:1;" x1="236.9551" x2="277.9551" y1="262.9609" y2="262.9609"/><polygon fill="#181818" points="246.9551,258.9609,236.9551,262.9609,246.9551,266.9609,242.9551,262.9609" style="stroke:#181818;stroke-width:1;"/><text fill="#000000" font-family="sans-serif" font-size="13" lengthAdjust="spacing" textLength="158.2344" x="242.9551" y="244.895">rc = locationToCoords(i)</text></g><g class="message" data-participant-1="SilkRoad" data-participant-2="SilkRoad"><line style="stroke:#181818;stroke-width:1;" x1="235.9551" x2="277.9551" y1="292.0938" y2="292.0938"/><line style="stroke:#181818;stroke-width:1;" x1="277.9551" x2="277.9551" y1="292.0938" y2="305.0938"/><line style="stroke:#181818;stroke-width:1;" x1="236.9551" x2="277.9551" y1="305.0938" y2="305.0938"/><polygon fill="#181818" points="246.9551,301.0938,236.9551,305.0938,246.9551,309.0938,242.9551,305.0938" style="stroke:#181818;stroke-width:1;"/><text fill="#000000" font-family="sans-serif" font-size="13" lengthAdjust="spacing" textLength="147.4497" x="242.9551" y="287.0278">br = rc[0] + originRow</text></g><g class="message" data-participant-1="SilkRoad" data-participant-2="SilkRoad"><line style="stroke:#181818;stroke-width:1;" x1="235.9551" x2="277.9551" y1="334.2266" y2="334.2266"/><line style="stroke:#181818;stroke-width:1;" x1="277.9551" x2="277.9551" y1="334.2266" y2="347.2266"/><line style="stroke:#181818;stroke-width:1;" x1="236.9551" x2="277.9551" y1="347.2266" y2="347.2266"/><polygon fill="#181818" points="246.9551,343.2266,236.9551,347.2266,246.9551,351.2266,242.9551,347.2266" style="stroke:#181818;stroke-width:1;"/><text fill="#000000" font-family="sans-serif" font-size="13" lengthAdjust="spacing" textLength="142.2764" x="242.9551" y="329.1606">bc = rc[1] + originCol</text></g><path d="M188.689,362.2266 L253.1318,362.2266 L253.1318,369.3594 L243.1318,379.3594 L188.689,379.3594 L188.689,362.2266" fill="#EEEEEE" style="stroke:#000000;stroke-width:1.5;"/><rect fill="none" height="46.2656" style="stroke:#000000;stroke-width:1.5;" width="385.7505" x="188.689" y="362.2266"/><text fill="#000000" font-family="sans-serif" font-size="13" font-weight="bold" lengthAdjust="spacing" textLength="19.4429" x="203.689" y="375.2935">alt</text><a href="if" target="_top" title="if" xlink:actuate="onRequest" xlink:href="if" xlink:show="new" xlink:title="if" xlink:type="simple"><text fill="#0000FF" font-family="sans-serif" font-size="11" font-weight="bold" lengthAdjust="spacing" text-decoration="underline" textLength="301.3076" x="268.1318" y="374.437">(br &gt;= 0 &amp;&amp; br &lt; rows &amp;&amp; bc &gt;= 0 &amp;&amp; bc &lt; cols)</text></a><g class="message" data-participant-1="SilkRoad" data-participant-2="Board"><polygon fill="#181818" points="396.1895,396.4922,406.1895,400.4922,396.1895,404.4922,400.1895,400.4922" style="stroke:#181818;stroke-width:1;"/><line style="stroke:#181818;stroke-width:1;" x1="235.9551" x2="402.1895" y1="400.4922" y2="400.4922"/><text fill="#000000" font-family="sans-serif" font-size="13" lengthAdjust="spacing" textLength="130.0508" x="242.9551" y="395.4263">mask[br][bc] = true</text></g><g class="message" data-participant-1="SilkRoad" data-participant-2="Board"><polygon fill="#181818" points="396.1895,439.625,406.1895,443.625,396.1895,447.625,400.1895,443.625" style="stroke:#181818;stroke-width:1;"/><line style="stroke:#181818;stroke-width:1;" x1="235.9551" x2="402.1895" y1="443.625" y2="443.625"/><text fill="#000000" font-family="sans-serif" font-size="13" lengthAdjust="spacing" textLength="138.7661" x="242.9551" y="438.5591">setVisibleCells(mask)</text></g><!--SRC=[VP71QiCm38RlVWgTIaBOoAvRLzW2lMs7hknYSd0SjuXwaP6zZRtzvAIqPAmD947Y-oNzah6969xojrR1S4ABmGm9tj0VDcJwMVAP3FTAJJZSh4uKt8C9mV-yOyJEknSJ3slYDN9ChqMfJjXSmlGTuH6wNFLsxz96uikq9J-Z6uc5LfueWDw9ZG9bHXIcVf3V4hwcQRQ61PTKLPMj0dakpMD5wycQX3HigI7YFXPONjDqB1gskcwX0cBSuo0shYhifBWxAyJAg30-WSOT559r9JPWiSWDbjEcSc3FUIlvl9EZfxyTnrj9km-vXUwurPrjfN7YJpVoRkXLVl_JH9UEbsoSbotd6kKl]--></g></svg>