<svg xmlns="http://www.w3.org/2000/svg" xmlns:xlink="http://www.w3.org/1999/xlink" contentStyleType="text/css" data-diagram-type="SEQUENCE" height="331px" preserveAspectRatio="none" style="width:363px;height:331px;background:#FFFFFF;" version="1.1" viewBox="0 0 363 331" width="363px" zoomAndPan="magnify"><defs/><g><rect fill="none" height="46.2656" style="stroke:#000000;stroke-width:1.5;" width="227.2329" x="93.5503" y="127.4297"/><rect fill="none" height="46.2656" style="stroke:#000000;stroke-width:1.5;" width="263.9302" x="93.5503" y="187.6953"/><g><title>Actor0</title><rect fill="#000000" fill-opacity="0.00000" height="169.6641" width="8" x="26.9961" y="81.2969"/><line style="stroke:#181818;stroke-width:0.5;stroke-dasharray:5.0,5.0;" x1="30" x2="30" y1="81.2969" y2="250.9609"/></g><g><title>SilkRoad</title><rect fill="#000000" fill-opacity="0.00000" height="169.6641" width="8" x="136.8164" y="81.2969"/><line style="stroke:#181818;stroke-width:0.5;stroke-dasharray:5.0,5.0;" x1="140.5503" x2="140.5503" y1="81.2969" y2="250.9609"/></g><g><title>Store</title><rect fill="#000000" fill-opacity="0.00000" height="169.6641" width="8" x="252.5908" y="81.2969"/><line style="stroke:#181818;stroke-width:0.5;stroke-dasharray:5.0,5.0;" x1="255.9355" x2="255.9355" y1="81.2969" y2="250.9609"/></g><g><title>Robot</title><rect fill="#000000" fill-opacity="0.00000" height="169.6641" width="8" x="315.8633" y="81.2969"/><line style="stroke:#181818;stroke-width:0.5;stroke-dasharray:5.0,5.0;" x1="319.2461" x2="319.2461" y1="81.2969" y2="250.9609"/></g><g class="participant participant-head" data-participant="Actor0"><text fill="#000000" font-family="sans-serif" font-size="14" lengthAdjust="spacing" textLength="45.9922" x="5" y="77.9951">Actor0</text><ellipse cx="30.9961" cy="13.5" fill="#E2E2F0" rx="8" ry="8" style="stroke:#181818;stroke-width:0.5;"/><path d="M30.9961,21.5 L30.9961,48.5 M17.9961,29.5 L43.9961,29.5 M30.9961,48.5 L17.9961,63.5 M30.9961,48.5 L43.9961,63.5" fill="none" style="stroke:#181818;stroke-width:0.5;"/></g><g class="participant participant-tail" data-participant="Actor0"><text fill="#000000" font-family="sans-serif" font-size="14" lengthAdjust="spacing" textLength="45.9922" x="5" y="262.9561">Actor0</text><ellipse cx="30.9961" cy="274.7578" fill="#E2E2F0" rx="8" ry="8" style="stroke:#181818;stroke-width:0.5;"/><path d="M30.9961,282.7578 L30.9961,309.7578 M17.9961,290.7578 L43.9961,290.7578 M30.9961,309.7578 L17.9961,324.7578 M30.9961,309.7578 L43.9961,324.7578" fill="none" style="stroke:#181818;stroke-width:0.5;"/></g><g class="participant participant-head" data-participant="SilkRoad"><rect fill="#E2E2F0" height="30.2969" rx="2.5" ry="2.5" style="stroke:#181818;stroke-width:0.5;" width="74.5322" x="103.5503" y="50"/><text fill="#000000" font-family="sans-serif" font-size="14" lengthAdjust="spacing" textLength="60.5322" x="110.5503" y="69.9951">SilkRoad</text></g><g class="participant participant-tail" data-participant="SilkRoad"><rect fill="#E2E2F0" height="30.2969" rx="2.5" ry="2.5" style="stroke:#181818;stroke-width:0.5;" width="74.5322" x="103.5503" y="249.9609"/><text fill="#000000" font-family="sans-serif" font-size="14" lengthAdjust="spacing" textLength="60.5322" x="110.5503" y="269.9561">SilkRoad</text></g><g class="participant participant-head" data-participant="Store"><rect fill="#E2E2F0" height="30.2969" rx="2.5" ry="2.5" style="stroke:#181818;stroke-width:0.5;" width="51.3105" x="230.9355" y="50"/><text fill="#000000" font-family="sans-serif" font-size="14" lengthAdjust="spacing" textLength="37.3105" x="237.9355" y="69.9951">Store</text></g><g class="participant participant-tail" data-participant="Store"><rect fill="#E2E2F0" height="30.2969" rx="2.5" ry="2.5" style="stroke:#181818;stroke-width:0.5;" width="51.3105" x="230.9355" y="249.9609"/><text fill="#000000" font-family="sans-serif" font-size="14" lengthAdjust="spacing" textLength="37.3105" x="237.9355" y="269.9561">Store</text></g><g class="participant participant-head" data-participant="Robot"><rect fill="#E2E2F0" height="30.2969" rx="2.5" ry="2.5" style="stroke:#181818;stroke-width:0.5;" width="55.2344" x="292.2461" y="50"/><text fill="#000000" font-family="sans-serif" font-size="14" lengthAdjust="spacing" textLength="41.2344" x="299.2461" y="69.9951">Robot</text></g><g class="participant participant-tail" data-participant="Robot"><rect fill="#E2E2F0" height="30.2969" rx="2.5" ry="2.5" style="stroke:#181818;stroke-width:0.5;" width="55.2344" x="292.2461" y="249.9609"/><text fill="#000000" font-family="sans-serif" font-size="14" lengthAdjust="spacing" textLength="41.2344" x="299.2461" y="269.9561">Robot</text></g><g class="message" data-participant-1="Actor0" data-participant-2="SilkRoad"><polygon fill="#181818" points="128.8164,108.4297,138.8164,112.4297,128.8164,116.4297,132.8164,112.4297" style="stroke:#181818;stroke-width:1;"/><line style="stroke:#181818;stroke-width:1;" x1="30.9961" x2="134.8164" y1="112.4297" y2="112.4297"/><text fill="#000000" font-family="sans-serif" font-size="13" lengthAdjust="spacing" textLength="85.8203" x="37.9961" y="107.3638">cleanColors()</text></g><path d="M93.5503,127.4297 L170.1743,127.4297 L170.1743,134.5625 L160.1743,144.5625 L93.5503,144.5625 L93.5503,127.4297" fill="#EEEEEE" style="stroke:#000000;stroke-width:1.5;"/><rect fill="none" height="46.2656" style="stroke:#000000;stroke-width:1.5;" width="227.2329" x="93.5503" y="127.4297"/><text fill="#000000" font-family="sans-serif" font-size="13" font-weight="bold" lengthAdjust="spacing" textLength="31.624" x="108.5503" y="140.4966">loop</text><a href="for" target="_top" title="for" xlink:actuate="onRequest" xlink:href="for" xlink:show="new" xlink:title="for" xlink:type="simple"><text fill="#0000FF" font-family="sans-serif" font-size="11" font-weight="bold" lengthAdjust="spacing" text-decoration="underline" textLength="130.6089" x="185.1743" y="139.6401">(Store store : stores)</text></a><g class="message" data-participant-1="SilkRoad" data-participant-2="Store"><polygon fill="#181818" points="244.5908,161.6953,254.5908,165.6953,244.5908,169.6953,248.5908,165.6953" style="stroke:#181818;stroke-width:1;"/><line style="stroke:#181818;stroke-width:1;" x1="140.8164" x2="250.5908" y1="165.6953" y2="165.6953"/><text fill="#000000" font-family="sans-serif" font-size="13" lengthAdjust="spacing" textLength="91.7744" x="147.8164" y="160.6294">releaseColor()</text></g><path d="M93.5503,187.6953 L170.1743,187.6953 L170.1743,194.8281 L160.1743,204.8281 L93.5503,204.8281 L93.5503,187.6953" fill="#EEEEEE" style="stroke:#000000;stroke-width:1.5;"/><rect fill="none" height="46.2656" style="stroke:#000000;stroke-width:1.5;" width="263.9302" x="93.5503" y="187.6953"/><text fill="#000000" font-family="sans-serif" font-size="13" font-weight="bold" lengthAdjust="spacing" textLength="31.624" x="108.5503" y="200.7622">loop</text><a href="for" target="_top" title="for" xlink:actuate="onRequest" xlink:href="for" xlink:show="new" xlink:title="for" xlink:type="simple"><text fill="#0000FF" font-family="sans-serif" font-size="11" font-weight="bold" lengthAdjust="spacing" text-decoration="underline" textLength="136.5493" x="185.1743" y="199.9058">(Robot robot : robots)</text></a><g class="message" data-participant-1="SilkRoad" data-participant-2="Robot"><polygon fill="#181818" points="307.8633,221.9609,317.8633,225.9609,307.8633,229.9609,311.8633,225.9609" style="stroke:#181818;stroke-width:1;"/><line style="stroke:#181818;stroke-width:1;" x1="140.8164" x2="313.8633" y1="225.9609" y2="225.9609"/><text fill="#000000" font-family="sans-serif" font-size="13" lengthAdjust="spacing" textLength="91.7744" x="147.8164" y="220.895">releaseColor()</text></g><!--SRC=[ROwn2iCm34HtVON6P2Xqzb0e_GDtB1qSnmLJOndP_qyLkGa9hOOJ77TFShuHutNHCnJ7BVfON6vuZ-bjoSr7KsBXu5YQg05q09ukMmyD-XHSlb4YhiC8YQZWuoNN1iLWLJLzr_49ABFL5zGtm450DIX9G27FiAVf2yYgfkz_DBi6VcWV]--></g></svg>