<svg xmlns="http://www.w3.org/2000/svg" xmlns:xlink="http://www.w3.org/1999/xlink" contentStyleType="text/css" data-diagram-type="SEQUENCE" height="384px" preserveAspectRatio="none" style="width:1020px;height:384px;background:#FFFFFF;" version="1.1" viewBox="0 0 1020 384" width="1020px" zoomAndPan="magnify"><defs/><g><rect fill="none" height="75.3984" style="stroke:#000000;stroke-width:1.5;" width="914.855" x="99.3584" y="169.5625"/><g><title>Actor0</title><rect fill="#000000" fill-opacity="0.00000" height="222.7969" width="8" x="26.9961" y="81.2969"/><line style="stroke:#181818;stroke-width:0.5;stroke-dasharray:5.0,5.0;" x1="30" x2="30" y1="81.2969" y2="304.0938"/></g><g><title>SilkRoad</title><rect fill="#000000" fill-opacity="0.00000" height="222.7969" width="8" x="142.6245" y="81.2969"/><line style="stroke:#181818;stroke-width:0.5;stroke-dasharray:5.0,5.0;" x1="146.3584" x2="146.3584" y1="81.2969" y2="304.0938"/></g><g><title>Store</title><rect fill="#000000" fill-opacity="0.00000" height="222.7969" width="8" x="974.5581" y="81.2969"/><line style="stroke:#181818;stroke-width:0.5;stroke-dasharray:5.0,5.0;" x1="977.9028" x2="977.9028" y1="81.2969" y2="304.0938"/></g><g class="participant participant-head" data-participant="Actor0"><text fill="#000000" font-family="sans-serif" font-size="14" lengthAdjust="spacing" textLength="45.9922" x="5" y="77.9951">Actor0</text><ellipse cx="30.9961" cy="13.5" fill="#E2E2F0" rx="8" ry="8" style="stroke:#181818;stroke-width:0.5;"/><path d="M30.9961,21.5 L30.9961,48.5 M17.9961,29.5 L43.9961,29.5 M30.9961,48.5 L17.9961,63.5 M30.9961,48.5 L43.9961,63.5" fill="none" style="stroke:#181818;stroke-width:0.5;"/></g><g class="participant participant-tail" data-participant="Actor0"><text fill="#000000" font-family="sans-serif" font-size="14" lengthAdjust="spacing" textLength="45.9922" x="5" y="316.0889">Actor0</text><ellipse cx="30.9961" cy="327.8906" fill="#E2E2F0" rx="8" ry="8" style="stroke:#181818;stroke-width:0.5;"/><path d="M30.9961,335.8906 L30.9961,362.8906 M17.9961,343.8906 L43.9961,343.8906 M30.9961,362.8906 L17.9961,377.8906 M30.9961,362.8906 L43.9961,377.8906" fill="none" style="stroke:#181818;stroke-width:0.5;"/></g><g class="participant participant-head" data-participant="SilkRoad"><rect fill="#E2E2F0" height="30.2969" rx="2.5" ry="2.5" style="stroke:#181818;stroke-width:0.5;" width="74.5322" x="109.3584" y="50"/><text fill="#000000" font-family="sans-serif" font-size="14" lengthAdjust="spacing" textLength="60.5322" x="116.3584" y="69.9951">SilkRoad</text></g><g class="participant participant-tail" data-participant="SilkRoad"><rect fill="#E2E2F0" height="30.2969" rx="2.5" ry="2.5" style="stroke:#181818;stroke-width:0.5;" width="74.5322" x="109.3584" y="303.0938"/><text fill="#000000" font-family="sans-serif" font-size="14" lengthAdjust="spacing" textLength="60.5322" x="116.3584" y="323.0889">SilkRoad</text></g><g class="participant participant-head" data-participant="Store"><rect fill="#E2E2F0" height="30.2969" rx="2.5" ry="2.5" style="stroke:#181818;stroke-width:0.5;" width="51.3105" x="952.9028" y="50"/><text fill="#000000" font-family="sans-serif" font-size="14" lengthAdjust="spacing" textLength="37.3105" x="959.9028" y="69.9951">Store</text></g><g class="participant participant-tail" data-participant="Store"><rect fill="#E2E2F0" height="30.2969" rx="2.5" ry="2.5" style="stroke:#181818;stroke-width:0.5;" width="51.3105" x="952.9028" y="303.0938"/><text fill="#000000" font-family="sans-serif" font-size="14" lengthAdjust="spacing" textLength="37.3105" x="959.9028" y="323.0889">Store</text></g><g class="message" data-participant-1="Actor0" data-participant-2="SilkRoad"><polygon fill="#181818" points="134.6245,108.4297,144.6245,112.4297,134.6245,116.4297,138.6245,112.4297" style="stroke:#181818;stroke-width:1;"/><line style="stroke:#181818;stroke-width:1;" x1="30.9961" x2="140.6245" y1="112.4297" y2="112.4297"/><text fill="#000000" font-family="sans-serif" font-size="13" lengthAdjust="spacing" textLength="91.6284" x="37.9961" y="107.3638">consultProfit()</text></g><g class="message" data-participant-1="SilkRoad" data-participant-2="SilkRoad"><line style="stroke:#181818;stroke-width:1;" x1="146.6245" x2="188.6245" y1="141.5625" y2="141.5625"/><line style="stroke:#181818;stroke-width:1;" x1="188.6245" x2="188.6245" y1="141.5625" y2="154.5625"/><line style="stroke:#181818;stroke-width:1;" x1="147.6245" x2="188.6245" y1="154.5625" y2="154.5625"/><polygon fill="#181818" points="157.6245,150.5625,147.6245,154.5625,157.6245,158.5625,153.6245,154.5625" style="stroke:#181818;stroke-width:1;"/><text fill="#000000" font-family="sans-serif" font-size="13" lengthAdjust="spacing" textLength="105.4346" x="153.6245" y="136.4966">emptiedStores()</text></g><path d="M99.3584,169.5625 L175.9824,169.5625 L175.9824,176.6953 L165.9824,186.6953 L99.3584,186.6953 L99.3584,169.5625" fill="#EEEEEE" style="stroke:#000000;stroke-width:1.5;"/><rect fill="none" height="75.3984" style="stroke:#000000;stroke-width:1.5;" width="914.855" x="99.3584" y="169.5625"/><text fill="#000000" font-family="sans-serif" font-size="13" font-weight="bold" lengthAdjust="spacing" textLength="31.624" x="114.3584" y="182.6294">loop</text><a href="for" target="_top" title="for" xlink:actuate="onRequest" xlink:href="for" xlink:show="new" xlink:title="for" xlink:type="simple"><text fill="#0000FF" font-family="sans-serif" font-size="11" font-weight="bold" lengthAdjust="spacing" text-decoration="underline" textLength="130.6089" x="190.9824" y="181.7729">(Store store : stores)</text></a><g class="message" data-participant-1="SilkRoad" data-participant-2="Store"><polygon fill="#181818" points="966.5581,203.8281,976.5581,207.8281,966.5581,211.8281,970.5581,207.8281" style="stroke:#181818;stroke-width:1;"/><line style="stroke:#181818;stroke-width:1;" x1="146.6245" x2="972.5581" y1="207.8281" y2="207.8281"/><text fill="#000000" font-family="sans-serif" font-size="13" lengthAdjust="spacing" textLength="86.7026" x="153.6245" y="202.7622">getLocation()</text></g><g class="message" data-participant-1="SilkRoad" data-participant-2="Store"><polygon fill="#181818" points="966.5581,232.9609,976.5581,236.9609,966.5581,240.9609,970.5581,236.9609" style="stroke:#181818;stroke-width:1;"/><line style="stroke:#181818;stroke-width:1;" x1="146.6245" x2="972.5581" y1="236.9609" y2="236.9609"/><text fill="#000000" font-family="sans-serif" font-size="13" lengthAdjust="spacing" textLength="70.478" x="153.6245" y="231.895">getTimes()</text></g><g class="message" data-participant-1="SilkRoad" data-participant-2="SilkRoad"><line style="stroke:#181818;stroke-width:1;" x1="146.6245" x2="188.6245" y1="273.0938" y2="273.0938"/><line style="stroke:#181818;stroke-width:1;" x1="188.6245" x2="188.6245" y1="273.0938" y2="286.0938"/><line style="stroke:#181818;stroke-width:1;" x1="147.6245" x2="188.6245" y1="286.0938" y2="286.0938"/><polygon fill="#181818" points="157.6245,282.0938,147.6245,286.0938,157.6245,290.0938,153.6245,286.0938" style="stroke:#181818;stroke-width:1;"/><text fill="#000000" font-family="sans-serif" font-size="13" lengthAdjust="spacing" textLength="817.9336" x="153.6245" y="268.0278">print("La posici&#243;n de las tiendas junto con las veces que fueron desocupadas son :" + Arrays.deepToString(emptiedStores()))</text></g><!--SRC=[VP2nQWCn38PtFuN8T4TfoNn38Nk6qcGh7OIj2sulbcF9XJnN7w4lLfqJ0XTeFKZuzyUlNqQlN60prxNBM3Jwc34fxEBq-SeObg9XvDm5XyVd6mK3U4vI9tqfF4RjUdTxMc9qp1efD2Snp4tC6Tv6Iz4r4QJLuTAbVtTWP-5s1GwaM_QeaPCP_KFjux7DeXJSNxboYKcxrHOXizY-Fzy90i640fOt1UiVDIdFUpRrYpm9d2h1MAdmJ0lxcd56nUx32XvWKmgUvIaGvJtlr8OSkhilwFjV]--></g></svg>