<svg xmlns="http://www.w3.org/2000/svg" xmlns:xlink="http://www.w3.org/1999/xlink" contentStyleType="text/css" data-diagram-type="SEQUENCE" height="384px" preserveAspectRatio="none" style="width:657px;height:384px;background:#FFFFFF;" version="1.1" viewBox="0 0 657 384" width="657px" zoomAndPan="magnify"><defs/><g><rect fill="none" height="75.3984" style="stroke:#000000;stroke-width:1.5;" width="537.8804" x="113.1646" y="169.5625"/><g><title>Actor0</title><rect fill="#000000" fill-opacity="0.00000" height="222.7969" width="8" x="26.9961" y="81.2969"/><line style="stroke:#181818;stroke-width:0.5;stroke-dasharray:5.0,5.0;" x1="30" x2="30" y1="81.2969" y2="304.0938"/></g><g><title>SilkRoad</title><rect fill="#000000" fill-opacity="0.00000" height="222.7969" width="8" x="156.4307" y="81.2969"/><line style="stroke:#181818;stroke-width:0.5;stroke-dasharray:5.0,5.0;" x1="160.1646" x2="160.1646" y1="81.2969" y2="304.0938"/></g><g><title>Store</title><rect fill="#000000" fill-opacity="0.00000" height="222.7969" width="8" x="611.3896" y="81.2969"/><line style="stroke:#181818;stroke-width:0.5;stroke-dasharray:5.0,5.0;" x1="614.7344" x2="614.7344" y1="81.2969" y2="304.0938"/></g><g class="participant participant-head" data-participant="Actor0"><text fill="#000000" font-family="sans-serif" font-size="14" lengthAdjust="spacing" textLength="45.9922" x="5" y="77.9951">Actor0</text><ellipse cx="30.9961" cy="13.5" fill="#E2E2F0" rx="8" ry="8" style="stroke:#181818;stroke-width:0.5;"/><path d="M30.9961,21.5 L30.9961,48.5 M17.9961,29.5 L43.9961,29.5 M30.9961,48.5 L17.9961,63.5 M30.9961,48.5 L43.9961,63.5" fill="none" style="stroke:#181818;stroke-width:0.5;"/></g><g class="participant participant-tail" data-participant="Actor0"><text fill="#000000" font-family="sans-serif" font-size="14" lengthAdjust="spacing" textLength="45.9922" x="5" y="316.0889">Actor0</text><ellipse cx="30.9961" cy="327.8906" fill="#E2E2F0" rx="8" ry="8" style="stroke:#181818;stroke-width:0.5;"/><path d="M30.9961,335.8906 L30.9961,362.8906 M17.9961,343.8906 L43.9961,343.8906 M30.9961,362.8906 L17.9961,377.8906 M30.9961,362.8906 L43.9961,377.8906" fill="none" style="stroke:#181818;stroke-width:0.5;"/></g><g class="participant participant-head" data-participant="SilkRoad"><rect fill="#E2E2F0" height="30.2969" rx="2.5" ry="2.5" style="stroke:#181818;stroke-width:0.5;" width="74.5322" x="123.1646" y="50"/><text fill="#000000" font-family="sans-serif" font-size="14" lengthAdjust="spacing" textLength="60.5322" x="130.1646" y="69.9951">SilkRoad</text></g><g class="participant participant-tail" data-participant="SilkRoad"><rect fill="#E2E2F0" height="30.2969" rx="2.5" ry="2.5" style="stroke:#181818;stroke-width:0.5;" width="74.5322" x="123.1646" y="303.0938"/><text fill="#000000" font-family="sans-serif" font-size="14" lengthAdjust="spacing" textLength="60.5322" x="130.1646" y="323.0889">SilkRoad</text></g><g class="participant participant-head" data-participant="Store"><rect fill="#E2E2F0" height="30.2969" rx="2.5" ry="2.5" style="stroke:#181818;stroke-width:0.5;" width="51.3105" x="589.7344" y="50"/><text fill="#000000" font-family="sans-serif" font-size="14" lengthAdjust="spacing" textLength="37.3105" x="596.7344" y="69.9951">Store</text></g><g class="participant participant-tail" data-participant="Store"><rect fill="#E2E2F0" height="30.2969" rx="2.5" ry="2.5" style="stroke:#181818;stroke-width:0.5;" width="51.3105" x="589.7344" y="303.0938"/><text fill="#000000" font-family="sans-serif" font-size="14" lengthAdjust="spacing" textLength="37.3105" x="596.7344" y="323.0889">Store</text></g><g class="message" data-participant-1="Actor0" data-participant-2="SilkRoad"><polygon fill="#181818" points="148.4307,108.4297,158.4307,112.4297,148.4307,116.4297,152.4307,112.4297" style="stroke:#181818;stroke-width:1;"/><line style="stroke:#181818;stroke-width:1;" x1="30.9961" x2="154.4307" y1="112.4297" y2="112.4297"/><text fill="#000000" font-family="sans-serif" font-size="13" lengthAdjust="spacing" textLength="105.4346" x="37.9961" y="107.3638">emptiedStores()</text></g><g class="message" data-participant-1="SilkRoad" data-participant-2="SilkRoad"><line style="stroke:#181818;stroke-width:1;" x1="160.4307" x2="202.4307" y1="141.5625" y2="141.5625"/><line style="stroke:#181818;stroke-width:1;" x1="202.4307" x2="202.4307" y1="141.5625" y2="154.5625"/><line style="stroke:#181818;stroke-width:1;" x1="161.4307" x2="202.4307" y1="154.5625" y2="154.5625"/><polygon fill="#181818" points="171.4307,150.5625,161.4307,154.5625,171.4307,158.5625,167.4307,154.5625" style="stroke:#181818;stroke-width:1;"/><text fill="#000000" font-family="sans-serif" font-size="13" lengthAdjust="spacing" textLength="440.959" x="167.4307" y="136.4966">Collections.sort(stores, Comparator.comparingInt(Store::getTimes))</text></g><path d="M113.1646,169.5625 L189.7886,169.5625 L189.7886,176.6953 L179.7886,186.6953 L113.1646,186.6953 L113.1646,169.5625" fill="#EEEEEE" style="stroke:#000000;stroke-width:1.5;"/><rect fill="none" height="75.3984" style="stroke:#000000;stroke-width:1.5;" width="537.8804" x="113.1646" y="169.5625"/><text fill="#000000" font-family="sans-serif" font-size="13" font-weight="bold" lengthAdjust="spacing" textLength="31.624" x="128.1646" y="182.6294">loop</text><a href="for" target="_top" title="for" xlink:actuate="onRequest" xlink:href="for" xlink:show="new" xlink:title="for" xlink:type="simple"><text fill="#0000FF" font-family="sans-serif" font-size="11" font-weight="bold" lengthAdjust="spacing" text-decoration="underline" textLength="195.5615" x="204.7886" y="181.7729">(int i = 0; i &lt; stores.size(); i++)</text></a><g class="message" data-participant-1="SilkRoad" data-participant-2="Store"><polygon fill="#181818" points="603.3896,203.8281,613.3896,207.8281,603.3896,211.8281,607.3896,207.8281" style="stroke:#181818;stroke-width:1;"/><line style="stroke:#181818;stroke-width:1;" x1="160.4307" x2="609.3896" y1="207.8281" y2="207.8281"/><text fill="#000000" font-family="sans-serif" font-size="13" lengthAdjust="spacing" textLength="86.7026" x="167.4307" y="202.7622">getLocation()</text></g><g class="message" data-participant-1="SilkRoad" data-participant-2="Store"><polygon fill="#181818" points="603.3896,232.9609,613.3896,236.9609,603.3896,240.9609,607.3896,236.9609" style="stroke:#181818;stroke-width:1;"/><line style="stroke:#181818;stroke-width:1;" x1="160.4307" x2="609.3896" y1="236.9609" y2="236.9609"/><text fill="#000000" font-family="sans-serif" font-size="13" lengthAdjust="spacing" textLength="70.478" x="167.4307" y="231.895">getTimes()</text></g><g class="message" data-participant-1="SilkRoad" data-participant-2="SilkRoad"><line style="stroke:#181818;stroke-width:1;" x1="160.4307" x2="202.4307" y1="273.0938" y2="273.0938"/><line style="stroke:#181818;stroke-width:1;" x1="202.4307" x2="202.4307" y1="273.0938" y2="286.0938"/><line style="stroke:#181818;stroke-width:1;" x1="161.4307" x2="202.4307" y1="286.0938" y2="286.0938"/><polygon fill="#181818" points="171.4307,282.0938,161.4307,286.0938,171.4307,290.0938,167.4307,286.0938" style="stroke:#181818;stroke-width:1;"/><text fill="#000000" font-family="sans-serif" font-size="13" lengthAdjust="spacing" textLength="89.8955" x="167.4307" y="268.0278">return int[ ][ ]</text></g><!--SRC=[VO-z2i8m483tFCMD2MhfN7z0d0GdTHE7a9xbC4rASYu-lTSKX0uQGdxkljnziOvZWlsurcgmYSdHO0F3XVpp76qx3mg6Iaquh7PV2Xh0Vc32jY1P6_LDpR53z1uTKmovoZ6npkN1KXAzjB9ogrmvKkYEWNKfs3GTyfLwpCOevMCSuFOGSKrYHR25UYtR1gPYLQOtQYEXnSBS5SYOsOoGg4Z9KtHsT17VFrHfB0Y6LltwLq9-fG3YSuExp0y0]--></g></svg>