<svg xmlns="http://www.w3.org/2000/svg" xmlns:xlink="http://www.w3.org/1999/xlink" contentStyleType="text/css" data-diagram-type="SEQUENCE" height="537px" preserveAspectRatio="none" style="width:662px;height:537px;background:#FFFFFF;" version="1.1" viewBox="0 0 662 537" width="662px" zoomAndPan="magnify"><defs/><g><rect fill="none" height="143.5313" style="stroke:#000000;stroke-width:1.5;" width="266.8989" x="269.939" y="127.4297"/><g><title>Actor0</title><rect fill="#000000" fill-opacity="0.00000" height="375.1953" width="8" x="26.9961" y="81.2969"/><line style="stroke:#181818;stroke-width:0.5;stroke-dasharray:5.0,5.0;" x1="30" x2="30" y1="81.2969" y2="456.4922"/></g><g><title>SilkRoad</title><rect fill="#000000" fill-opacity="0.00000" height="375.1953" width="8" x="313.2051" y="81.2969"/><line style="stroke:#181818;stroke-width:0.5;stroke-dasharray:5.0,5.0;" x1="316.939" x2="316.939" y1="81.2969" y2="456.4922"/></g><g><title>Board</title><rect fill="#000000" fill-opacity="0.00000" height="375.1953" width="8" x="624.6055" y="81.2969"/><line style="stroke:#181818;stroke-width:0.5;stroke-dasharray:5.0,5.0;" x1="627.9097" x2="627.9097" y1="81.2969" y2="456.4922"/></g><g class="participant participant-head" data-participant="Actor0"><text fill="#000000" font-family="sans-serif" font-size="14" lengthAdjust="spacing" textLength="45.9922" x="5" y="77.9951">Actor0</text><ellipse cx="30.9961" cy="13.5" fill="#E2E2F0" rx="8" ry="8" style="stroke:#181818;stroke-width:0.5;"/><path d="M30.9961,21.5 L30.9961,48.5 M17.9961,29.5 L43.9961,29.5 M30.9961,48.5 L17.9961,63.5 M30.9961,48.5 L43.9961,63.5" fill="none" style="stroke:#181818;stroke-width:0.5;"/></g><g class="participant participant-tail" data-participant="Actor0"><text fill="#000000" font-family="sans-serif" font-size="14" lengthAdjust="spacing" textLength="45.9922" x="5" y="468.4873">Actor0</text><ellipse cx="30.9961" cy="480.2891" fill="#E2E2F0" rx="8" ry="8" style="stroke:#181818;stroke-width:0.5;"/><path d="M30.9961,488.2891 L30.9961,515.2891 M17.9961,496.2891 L43.9961,496.2891 M30.9961,515.2891 L17.9961,530.2891 M30.9961,515.2891 L43.9961,530.2891" fill="none" style="stroke:#181818;stroke-width:0.5;"/></g><g class="participant participant-head" data-participant="SilkRoad"><rect fill="#E2E2F0" height="30.2969" rx="2.5" ry="2.5" style="stroke:#181818;stroke-width:0.5;" width="74.5322" x="279.939" y="50"/><text fill="#000000" font-family="sans-serif" font-size="14" lengthAdjust="spacing" textLength="60.5322" x="286.939" y="69.9951">SilkRoad</text></g><g class="participant participant-tail" data-participant="SilkRoad"><rect fill="#E2E2F0" height="30.2969" rx="2.5" ry="2.5" style="stroke:#181818;stroke-width:0.5;" width="74.5322" x="279.939" y="455.4922"/><text fill="#000000" font-family="sans-serif" font-size="14" lengthAdjust="spacing" textLength="60.5322" x="286.939" y="475.4873">SilkRoad</text></g><g class="participant participant-head" data-participant="Board"><rect fill="#E2E2F0" height="30.2969" rx="2.5" ry="2.5" style="stroke:#181818;stroke-width:0.5;" width="55.3916" x="600.9097" y="50"/><text fill="#000000" font-family="sans-serif" font-size="14" lengthAdjust="spacing" textLength="41.3916" x="607.9097" y="69.9951">Board</text></g><g class="participant participant-tail" data-participant="Board"><rect fill="#E2E2F0" height="30.2969" rx="2.5" ry="2.5" style="stroke:#181818;stroke-width:0.5;" width="55.3916" x="600.9097" y="455.4922"/><text fill="#000000" font-family="sans-serif" font-size="14" lengthAdjust="spacing" textLength="41.3916" x="607.9097" y="475.4873">Board</text></g><g class="message" data-participant-1="Actor0" data-participant-2="SilkRoad"><polygon fill="#181818" points="305.2051,108.4297,315.2051,112.4297,305.2051,116.4297,309.2051,112.4297" style="stroke:#181818;stroke-width:1;"/><line style="stroke:#181818;stroke-width:1;" x1="30.9961" x2="311.2051" y1="112.4297" y2="112.4297"/><text fill="#000000" font-family="sans-serif" font-size="13" lengthAdjust="spacing" textLength="262.209" x="37.9961" y="107.3638">ensureBoardCanFitForLocation(location)</text></g><path d="M269.939,127.4297 L334.3818,127.4297 L334.3818,134.5625 L324.3818,144.5625 L269.939,144.5625 L269.939,127.4297" fill="#EEEEEE" style="stroke:#000000;stroke-width:1.5;"/><rect fill="none" height="143.5313" style="stroke:#000000;stroke-width:1.5;" width="266.8989" x="269.939" y="127.4297"/><text fill="#000000" font-family="sans-serif" font-size="13" font-weight="bold" lengthAdjust="spacing" textLength="19.4429" x="284.939" y="140.4966">alt</text><a href="if" target="_top" title="if" xlink:actuate="onRequest" xlink:href="if" xlink:show="new" xlink:title="if" xlink:type="simple"><text fill="#0000FF" font-family="sans-serif" font-size="11" font-weight="bold" lengthAdjust="spacing" text-decoration="underline" textLength="182.4561" x="349.3818" y="139.6401">(location + 1 &gt; visibleTarget)</text></a><g class="message" data-participant-1="SilkRoad" data-participant-2="SilkRoad"><line style="stroke:#181818;stroke-width:1;" x1="317.2051" x2="359.2051" y1="165.6953" y2="165.6953"/><line style="stroke:#181818;stroke-width:1;" x1="359.2051" x2="359.2051" y1="165.6953" y2="178.6953"/><line style="stroke:#181818;stroke-width:1;" x1="318.2051" x2="359.2051" y1="178.6953" y2="178.6953"/><polygon fill="#181818" points="328.2051,174.6953,318.2051,178.6953,328.2051,182.6953,324.2051,178.6953" style="stroke:#181818;stroke-width:1;"/><text fill="#000000" font-family="sans-serif" font-size="13" lengthAdjust="spacing" textLength="182.3174" x="324.2051" y="160.6294">visibleTarget = location + 1</text></g><g class="message" data-participant-1="SilkRoad" data-participant-2="SilkRoad"><line style="stroke:#181818;stroke-width:1;" x1="317.2051" x2="359.2051" y1="207.8281" y2="207.8281"/><line style="stroke:#181818;stroke-width:1;" x1="359.2051" x2="359.2051" y1="207.8281" y2="220.8281"/><line style="stroke:#181818;stroke-width:1;" x1="318.2051" x2="359.2051" y1="220.8281" y2="220.8281"/><polygon fill="#181818" points="328.2051,216.8281,318.2051,220.8281,328.2051,224.8281,324.2051,220.8281" style="stroke:#181818;stroke-width:1;"/><text fill="#000000" font-family="sans-serif" font-size="13" lengthAdjust="spacing" textLength="166.9878" x="324.2051" y="202.7622">preGrowToVisibleTarget()</text></g><g class="message" data-participant-1="SilkRoad" data-participant-2="SilkRoad"><line style="stroke:#181818;stroke-width:1;" x1="317.2051" x2="359.2051" y1="249.9609" y2="249.9609"/><line style="stroke:#181818;stroke-width:1;" x1="359.2051" x2="359.2051" y1="249.9609" y2="262.9609"/><line style="stroke:#181818;stroke-width:1;" x1="318.2051" x2="359.2051" y1="262.9609" y2="262.9609"/><polygon fill="#181818" points="328.2051,258.9609,318.2051,262.9609,328.2051,266.9609,324.2051,262.9609" style="stroke:#181818;stroke-width:1;"/><text fill="#000000" font-family="sans-serif" font-size="13" lengthAdjust="spacing" textLength="180.959" x="324.2051" y="244.895">applyVisibleMaskForFirstN()</text></g><g class="message" data-participant-1="SilkRoad" data-participant-2="SilkRoad"><line style="stroke:#181818;stroke-width:1;" x1="317.2051" x2="359.2051" y1="299.0938" y2="299.0938"/><line style="stroke:#181818;stroke-width:1;" x1="359.2051" x2="359.2051" y1="299.0938" y2="312.0938"/><line style="stroke:#181818;stroke-width:1;" x1="318.2051" x2="359.2051" y1="312.0938" y2="312.0938"/><polygon fill="#181818" points="328.2051,308.0938,318.2051,312.0938,328.2051,316.0938,324.2051,312.0938" style="stroke:#181818;stroke-width:1;"/><text fill="#000000" font-family="sans-serif" font-size="13" lengthAdjust="spacing" textLength="229.6519" x="324.2051" y="294.0278">rcLog = locationToCoords(location)</text></g><g class="message" data-participant-1="SilkRoad" data-participant-2="SilkRoad"><line style="stroke:#181818;stroke-width:1;" x1="317.2051" x2="359.2051" y1="341.2266" y2="341.2266"/><line style="stroke:#181818;stroke-width:1;" x1="359.2051" x2="359.2051" y1="341.2266" y2="354.2266"/><line style="stroke:#181818;stroke-width:1;" x1="318.2051" x2="359.2051" y1="354.2266" y2="354.2266"/><polygon fill="#181818" points="328.2051,350.2266,318.2051,354.2266,328.2051,358.2266,324.2051,354.2266" style="stroke:#181818;stroke-width:1;"/><text fill="#000000" font-family="sans-serif" font-size="13" lengthAdjust="spacing" textLength="297.4004" x="324.2051" y="336.1606">ensureBoardCanFitLogical(rcLog[0], rcLog[1])</text></g><g class="message" data-participant-1="SilkRoad" data-participant-2="SilkRoad"><line style="stroke:#181818;stroke-width:1;" x1="317.2051" x2="359.2051" y1="383.3594" y2="383.3594"/><line style="stroke:#181818;stroke-width:1;" x1="359.2051" x2="359.2051" y1="383.3594" y2="396.3594"/><line style="stroke:#181818;stroke-width:1;" x1="318.2051" x2="359.2051" y1="396.3594" y2="396.3594"/><polygon fill="#181818" points="328.2051,392.3594,318.2051,396.3594,328.2051,400.3594,324.2051,396.3594" style="stroke:#181818;stroke-width:1;"/><text fill="#000000" font-family="sans-serif" font-size="13" lengthAdjust="spacing" textLength="180.959" x="324.2051" y="378.2935">applyVisibleMaskForFirstN()</text></g><g class="message" data-participant-1="SilkRoad" data-participant-2="SilkRoad"><line style="stroke:#181818;stroke-width:1;" x1="317.2051" x2="359.2051" y1="425.4922" y2="425.4922"/><line style="stroke:#181818;stroke-width:1;" x1="359.2051" x2="359.2051" y1="425.4922" y2="438.4922"/><line style="stroke:#181818;stroke-width:1;" x1="318.2051" x2="359.2051" y1="438.4922" y2="438.4922"/><polygon fill="#181818" points="328.2051,434.4922,318.2051,438.4922,328.2051,442.4922,324.2051,438.4922" style="stroke:#181818;stroke-width:1;"/><text fill="#000000" font-family="sans-serif" font-size="13" lengthAdjust="spacing" textLength="186.583" x="324.2051" y="420.4263">layoutProfitBarAboveBoard()</text></g><!--SRC=[VP11QyCm38Nl-HKw9co3zZfOeIrabswCBUmISb0TjuWQoyXgH__zlAQ4X97uO8nuxzFpGwCiiFwx5rb0KJ8Kq2jyaJjzChQZuOPHsYphvF2qwbNm3DR7izYROek-92rPTcnGYNtkxeyYGwTGqm7w4Jp04bPmeKXxPokKezMYoI2TdZxUD9B22mn9SxuWzbNuf-Bl8I0lvZmOWhlUzMyOJ-bJ9KdKzsIpFdKnuHEpu-CWMyLRPcdZe8a9vxyU4uWCklo6h1VDOmUlbyqaOoxrXCNXbS_w8NmWtQ2iztpfGkJ5Bm00]--></g></svg>