<svg xmlns="http://www.w3.org/2000/svg" xmlns:xlink="http://www.w3.org/1999/xlink" contentStyleType="text/css" data-diagram-type="SEQUENCE" height="544px" preserveAspectRatio="none" style="width:464px;height:544px;background:#FFFFFF;" version="1.1" viewBox="0 0 464 544" width="464px" zoomAndPan="magnify"><defs/><g><rect fill="none" height="319.1953" style="stroke:#000000;stroke-width:1.5;" width="335.5557" x="122.9478" y="127.4297"/><rect fill="none" height="258.9297" style="stroke:#000000;stroke-width:1.5;" width="315.5557" x="132.9478" y="180.6953"/><rect fill="none" height="59.2656" style="stroke:#000000;stroke-width:1.5;" width="190.1406" x="142.9478" y="373.3594"/><g><title>Actor0</title><rect fill="#000000" fill-opacity="0.00000" height="382.3281" width="8" x="26.9961" y="81.2969"/><line style="stroke:#181818;stroke-width:0.5;stroke-dasharray:5.0,5.0;" x1="30" x2="30" y1="81.2969" y2="463.625"/></g><g><title>SilkRoad</title><rect fill="#000000" fill-opacity="0.00000" height="382.3281" width="8" x="186.2139" y="81.2969"/><line style="stroke:#181818;stroke-width:0.5;stroke-dasharray:5.0,5.0;" x1="189.9478" x2="189.9478" y1="81.2969" y2="463.625"/></g><g><title>Cell</title><rect fill="#000000" fill-opacity="0.00000" height="382.3281" width="8" x="330.2646" y="81.2969"/><line style="stroke:#181818;stroke-width:0.5;stroke-dasharray:5.0,5.0;" x1="334.1807" x2="334.1807" y1="81.2969" y2="463.625"/></g><g class="participant participant-head" data-participant="Actor0"><text fill="#000000" font-family="sans-serif" font-size="14" lengthAdjust="spacing" textLength="45.9922" x="5" y="77.9951">Actor0</text><ellipse cx="30.9961" cy="13.5" fill="#E2E2F0" rx="8" ry="8" style="stroke:#181818;stroke-width:0.5;"/><path d="M30.9961,21.5 L30.9961,48.5 M17.9961,29.5 L43.9961,29.5 M30.9961,48.5 L17.9961,63.5 M30.9961,48.5 L43.9961,63.5" fill="none" style="stroke:#181818;stroke-width:0.5;"/></g><g class="participant participant-tail" data-participant="Actor0"><text fill="#000000" font-family="sans-serif" font-size="14" lengthAdjust="spacing" textLength="45.9922" x="5" y="475.6201">Actor0</text><ellipse cx="30.9961" cy="487.4219" fill="#E2E2F0" rx="8" ry="8" style="stroke:#181818;stroke-width:0.5;"/><path d="M30.9961,495.4219 L30.9961,522.4219 M17.9961,503.4219 L43.9961,503.4219 M30.9961,522.4219 L17.9961,537.4219 M30.9961,522.4219 L43.9961,537.4219" fill="none" style="stroke:#181818;stroke-width:0.5;"/></g><g class="participant participant-head" data-participant="SilkRoad"><rect fill="#E2E2F0" height="30.2969" rx="2.5" ry="2.5" style="stroke:#181818;stroke-width:0.5;" width="74.5322" x="152.9478" y="50"/><text fill="#000000" font-family="sans-serif" font-size="14" lengthAdjust="spacing" textLength="60.5322" x="159.9478" y="69.9951">SilkRoad</text></g><g class="participant participant-tail" data-participant="SilkRoad"><rect fill="#E2E2F0" height="30.2969" rx="2.5" ry="2.5" style="stroke:#181818;stroke-width:0.5;" width="74.5322" x="152.9478" y="462.625"/><text fill="#000000" font-family="sans-serif" font-size="14" lengthAdjust="spacing" textLength="60.5322" x="159.9478" y="482.6201">SilkRoad</text></g><g class="participant participant-head" data-participant="Cell"><rect fill="#E2E2F0" height="30.2969" rx="2.5" ry="2.5" style="stroke:#181818;stroke-width:0.5;" width="40.168" x="314.1807" y="50"/><text fill="#000000" font-family="sans-serif" font-size="14" lengthAdjust="spacing" textLength="26.168" x="321.1807" y="69.9951">Cell</text></g><g class="participant participant-tail" data-participant="Cell"><rect fill="#E2E2F0" height="30.2969" rx="2.5" ry="2.5" style="stroke:#181818;stroke-width:0.5;" width="40.168" x="314.1807" y="462.625"/><text fill="#000000" font-family="sans-serif" font-size="14" lengthAdjust="spacing" textLength="26.168" x="321.1807" y="482.6201">Cell</text></g><g class="message" data-participant-1="Actor0" data-participant-2="SilkRoad"><polygon fill="#181818" points="178.2139,108.4297,188.2139,112.4297,178.2139,116.4297,182.2139,112.4297" style="stroke:#181818;stroke-width:1;"/><line style="stroke:#181818;stroke-width:1;" x1="30.9961" x2="184.2139" y1="112.4297" y2="112.4297"/><text fill="#000000" font-family="sans-serif" font-size="13" lengthAdjust="spacing" textLength="135.2178" x="37.9961" y="107.3638">generateSpiralPath()</text></g><path d="M122.9478,127.4297 L199.5718,127.4297 L199.5718,134.5625 L189.5718,144.5625 L122.9478,144.5625 L122.9478,127.4297" fill="#EEEEEE" style="stroke:#000000;stroke-width:1.5;"/><rect fill="none" height="319.1953" style="stroke:#000000;stroke-width:1.5;" width="335.5557" x="122.9478" y="127.4297"/><text fill="#000000" font-family="sans-serif" font-size="13" font-weight="bold" lengthAdjust="spacing" textLength="31.624" x="137.9478" y="140.4966">loop</text><a href="for" target="_top" title="for" xlink:actuate="onRequest" xlink:href="for" xlink:show="new" xlink:title="for" xlink:type="simple"><text fill="#0000FF" font-family="sans-serif" font-size="11" font-weight="bold" lengthAdjust="spacing" text-decoration="underline" textLength="158.3774" x="214.5718" y="139.6401">(int i = 0; i &lt; length; i++)</text></a><g class="message" data-participant-1="SilkRoad" data-participant-2="Cell"><polygon fill="#181818" points="322.2646,161.6953,332.2646,165.6953,322.2646,169.6953,326.2646,165.6953" style="stroke:#181818;stroke-width:1;"/><line style="stroke:#181818;stroke-width:1;" x1="190.2139" x2="328.2646" y1="165.6953" y2="165.6953"/><text fill="#000000" font-family="sans-serif" font-size="13" lengthAdjust="spacing" textLength="89.0957" x="197.2139" y="160.6294">new Cell(x, y)</text></g><path d="M132.9478,180.6953 L197.3906,180.6953 L197.3906,187.8281 L187.3906,197.8281 L132.9478,197.8281 L132.9478,180.6953" fill="#EEEEEE" style="stroke:#000000;stroke-width:1.5;"/><rect fill="none" height="258.9297" style="stroke:#000000;stroke-width:1.5;" width="315.5557" x="132.9478" y="180.6953"/><text fill="#000000" font-family="sans-serif" font-size="13" font-weight="bold" lengthAdjust="spacing" textLength="19.4429" x="147.9478" y="193.7622">alt</text><a href="if" target="_top" title="if" xlink:actuate="onRequest" xlink:href="if" xlink:show="new" xlink:title="if" xlink:type="simple"><text fill="#0000FF" font-family="sans-serif" font-size="11" font-weight="bold" lengthAdjust="spacing" text-decoration="underline" textLength="231.1128" x="212.3906" y="192.9058">(segmentPassed == segmentLength)</text></a><g class="message" data-participant-1="SilkRoad" data-participant-2="SilkRoad"><line style="stroke:#181818;stroke-width:1;" x1="190.2139" x2="232.2139" y1="218.9609" y2="218.9609"/><line style="stroke:#181818;stroke-width:1;" x1="232.2139" x2="232.2139" y1="218.9609" y2="231.9609"/><line style="stroke:#181818;stroke-width:1;" x1="191.2139" x2="232.2139" y1="231.9609" y2="231.9609"/><polygon fill="#181818" points="201.2139,227.9609,191.2139,231.9609,201.2139,235.9609,197.2139,231.9609" style="stroke:#181818;stroke-width:1;"/><text fill="#000000" font-family="sans-serif" font-size="13" lengthAdjust="spacing" textLength="130.0508" x="197.2139" y="213.895">segmentPassed = 0</text></g><g class="message" data-participant-1="SilkRoad" data-participant-2="SilkRoad"><line style="stroke:#181818;stroke-width:1;" x1="190.2139" x2="232.2139" y1="261.0938" y2="261.0938"/><line style="stroke:#181818;stroke-width:1;" x1="232.2139" x2="232.2139" y1="261.0938" y2="274.0938"/><line style="stroke:#181818;stroke-width:1;" x1="191.2139" x2="232.2139" y1="274.0938" y2="274.0938"/><polygon fill="#181818" points="201.2139,270.0938,191.2139,274.0938,201.2139,278.0938,197.2139,274.0938" style="stroke:#181818;stroke-width:1;"/><text fill="#000000" font-family="sans-serif" font-size="13" lengthAdjust="spacing" textLength="69.1133" x="197.2139" y="256.0278">temp = dx</text></g><g class="message" data-participant-1="SilkRoad" data-participant-2="SilkRoad"><line style="stroke:#181818;stroke-width:1;" x1="190.2139" x2="232.2139" y1="303.2266" y2="303.2266"/><line style="stroke:#181818;stroke-width:1;" x1="232.2139" x2="232.2139" y1="303.2266" y2="316.2266"/><line style="stroke:#181818;stroke-width:1;" x1="191.2139" x2="232.2139" y1="316.2266" y2="316.2266"/><polygon fill="#181818" points="201.2139,312.2266,191.2139,316.2266,201.2139,320.2266,197.2139,316.2266" style="stroke:#181818;stroke-width:1;"/><text fill="#000000" font-family="sans-serif" font-size="13" lengthAdjust="spacing" textLength="55.7388" x="197.2139" y="298.1606">dx = -dy</text></g><g class="message" data-participant-1="SilkRoad" data-participant-2="SilkRoad"><line style="stroke:#181818;stroke-width:1;" x1="190.2139" x2="232.2139" y1="345.3594" y2="345.3594"/><line style="stroke:#181818;stroke-width:1;" x1="232.2139" x2="232.2139" y1="345.3594" y2="358.3594"/><line style="stroke:#181818;stroke-width:1;" x1="191.2139" x2="232.2139" y1="358.3594" y2="358.3594"/><polygon fill="#181818" points="201.2139,354.3594,191.2139,358.3594,201.2139,362.3594,197.2139,358.3594" style="stroke:#181818;stroke-width:1;"/><text fill="#000000" font-family="sans-serif" font-size="13" lengthAdjust="spacing" textLength="69.1133" x="197.2139" y="340.2935">dy = temp</text></g><path d="M142.9478,373.3594 L207.3906,373.3594 L207.3906,380.4922 L197.3906,390.4922 L142.9478,390.4922 L142.9478,373.3594" fill="#EEEEEE" style="stroke:#000000;stroke-width:1.5;"/><rect fill="none" height="59.2656" style="stroke:#000000;stroke-width:1.5;" width="190.1406" x="142.9478" y="373.3594"/><text fill="#000000" font-family="sans-serif" font-size="13" font-weight="bold" lengthAdjust="spacing" textLength="19.4429" x="157.9478" y="386.4263">alt</text><a href="if" target="_top" title="if" xlink:actuate="onRequest" xlink:href="if" xlink:show="new" xlink:title="if" xlink:type="simple"><text fill="#0000FF" font-family="sans-serif" font-size="11" font-weight="bold" lengthAdjust="spacing" text-decoration="underline" textLength="58.8457" x="222.3906" y="385.5698">(dy == 0)</text></a><g class="message" data-participant-1="SilkRoad" data-participant-2="SilkRoad"><line style="stroke:#181818;stroke-width:1;" x1="190.2139" x2="232.2139" y1="411.625" y2="411.625"/><line style="stroke:#181818;stroke-width:1;" x1="232.2139" x2="232.2139" y1="411.625" y2="424.625"/><line style="stroke:#181818;stroke-width:1;" x1="191.2139" x2="232.2139" y1="424.625" y2="424.625"/><polygon fill="#181818" points="201.2139,420.625,191.2139,424.625,201.2139,428.625,197.2139,424.625" style="stroke:#181818;stroke-width:1;"/><text fill="#000000" font-family="sans-serif" font-size="13" lengthAdjust="spacing" textLength="123.8745" x="197.2139" y="406.5591">segmentLength++</text></g><!--SRC=[XO_13e8m38RlUueU8MZ2MSN4UFLWz6WyDApYuXWBD17UteAu81UMR6swx__ROivL3OV-JPN7carkF3g6gx6lIuNwhtWaQvNwqh3U1mWsK92Z6fcktjHepyZFA5QsgZpS7j8XCY8ta46wbR03IwxWf-H94jyLo0bUujlt4Kz7xo6DsXLqyK2XPRYP1qGD5IKvFcFJa8OiWx5m6en7pxdlPDwP7j8b0LFfXTFj4gXRmTQwM-GwuNhN08Rb-YyPQRB5yYRVnPCaICXfzOjoFm00]--></g></svg>