<svg xmlns="http://www.w3.org/2000/svg" xmlns:xlink="http://www.w3.org/1999/xlink" contentStyleType="text/css" data-diagram-type="SEQUENCE" height="253px" preserveAspectRatio="none" style="width:224px;height:253px;background:#FFFFFF;" version="1.1" viewBox="0 0 224 253" width="224px" zoomAndPan="magnify"><defs/><g><g><title>Actor0</title><rect fill="#000000" fill-opacity="0.00000" height="91.2656" width="8" x="26.9961" y="81.2969"/><line style="stroke:#181818;stroke-width:0.5;stroke-dasharray:5.0,5.0;" x1="30" x2="30" y1="81.2969" y2="172.5625"/></g><g><title>SilkRoad</title><rect fill="#000000" fill-opacity="0.00000" height="91.2656" width="8" x="122.4263" y="81.2969"/><line style="stroke:#181818;stroke-width:0.5;stroke-dasharray:5.0,5.0;" x1="126.1602" x2="126.1602" y1="81.2969" y2="172.5625"/></g><g class="participant participant-head" data-participant="Actor0"><text fill="#000000" font-family="sans-serif" font-size="14" lengthAdjust="spacing" textLength="45.9922" x="5" y="77.9951">Actor0</text><ellipse cx="30.9961" cy="13.5" fill="#E2E2F0" rx="8" ry="8" style="stroke:#181818;stroke-width:0.5;"/><path d="M30.9961,21.5 L30.9961,48.5 M17.9961,29.5 L43.9961,29.5 M30.9961,48.5 L17.9961,63.5 M30.9961,48.5 L43.9961,63.5" fill="none" style="stroke:#181818;stroke-width:0.5;"/></g><g class="participant participant-tail" data-participant="Actor0"><text fill="#000000" font-family="sans-serif" font-size="14" lengthAdjust="spacing" textLength="45.9922" x="5" y="184.5576">Actor0</text><ellipse cx="30.9961" cy="196.3594" fill="#E2E2F0" rx="8" ry="8" style="stroke:#181818;stroke-width:0.5;"/><path d="M30.9961,204.3594 L30.9961,231.3594 M17.9961,212.3594 L43.9961,212.3594 M30.9961,231.3594 L17.9961,246.3594 M30.9961,231.3594 L43.9961,246.3594" fill="none" style="stroke:#181818;stroke-width:0.5;"/></g><g class="participant participant-head" data-participant="SilkRoad"><rect fill="#E2E2F0" height="30.2969" rx="2.5" ry="2.5" style="stroke:#181818;stroke-width:0.5;" width="74.5322" x="89.1602" y="50"/><text fill="#000000" font-family="sans-serif" font-size="14" lengthAdjust="spacing" textLength="60.5322" x="96.1602" y="69.9951">SilkRoad</text></g><g class="participant participant-tail" data-participant="SilkRoad"><rect fill="#E2E2F0" height="30.2969" rx="2.5" ry="2.5" style="stroke:#181818;stroke-width:0.5;" width="74.5322" x="89.1602" y="171.5625"/><text fill="#000000" font-family="sans-serif" font-size="14" lengthAdjust="spacing" textLength="60.5322" x="96.1602" y="191.5576">SilkRoad</text></g><g class="message" data-participant-1="Actor0" data-participant-2="SilkRoad"><polygon fill="#181818" points="114.4263,108.4297,124.4263,112.4297,114.4263,116.4297,118.4263,112.4297" style="stroke:#181818;stroke-width:1;"/><line style="stroke:#181818;stroke-width:1;" x1="30.9961" x2="120.4263" y1="112.4297" y2="112.4297"/><text fill="#000000" font-family="sans-serif" font-size="13" lengthAdjust="spacing" textLength="71.4302" x="37.9961" y="107.3638">getstores()</text></g><g class="message" data-participant-1="SilkRoad" data-participant-2="SilkRoad"><line style="stroke:#181818;stroke-width:1;" x1="126.4263" x2="168.4263" y1="141.5625" y2="141.5625"/><line style="stroke:#181818;stroke-width:1;" x1="168.4263" x2="168.4263" y1="141.5625" y2="154.5625"/><line style="stroke:#181818;stroke-width:1;" x1="127.4263" x2="168.4263" y1="154.5625" y2="154.5625"/><polygon fill="#181818" points="137.4263,150.5625,127.4263,154.5625,137.4263,158.5625,133.4263,154.5625" style="stroke:#181818;stroke-width:1;"/><text fill="#000000" font-family="sans-serif" font-size="13" lengthAdjust="spacing" textLength="84.335" x="133.4263" y="136.4966">return stores</text></g><!--SRC=[IqmkoIzIS0IH1bm5YKKbcScP1Obv9Gh1cJdPGVc9ALnS44a5NJkuc8ALGdfgIJ5GEBLOGvCBBeogf2YrfBGeJm6Y3000]--></g></svg>