<svg xmlns="http://www.w3.org/2000/svg" xmlns:xlink="http://www.w3.org/1999/xlink" contentStyleType="text/css" data-diagram-type="SEQUENCE" height="521px" preserveAspectRatio="none" style="width:587px;height:521px;background:#FFFFFF;" version="1.1" viewBox="0 0 587 521" width="587px" zoomAndPan="magnify"><defs/><g><rect fill="none" height="46.2656" style="stroke:#000000;stroke-width:1.5;" width="357.9385" x="96.7813" y="256.9609"/><rect fill="none" height="46.2656" style="stroke:#000000;stroke-width:1.5;" width="419.249" x="96.7813" y="317.2266"/><rect fill="none" height="46.2656" style="stroke:#000000;stroke-width:1.5;" width="484.4834" x="96.7813" y="377.4922"/><g><title>Actor0</title><rect fill="#000000" fill-opacity="0.00000" height="359.4609" width="8" x="26.9961" y="81.2969"/><line style="stroke:#181818;stroke-width:0.5;stroke-dasharray:5.0,5.0;" x1="30" x2="30" y1="81.2969" y2="440.7578"/></g><g><title>SilkRoad</title><rect fill="#000000" fill-opacity="0.00000" height="359.4609" width="8" x="140.0474" y="81.2969"/><line style="stroke:#181818;stroke-width:0.5;stroke-dasharray:5.0,5.0;" x1="143.7813" x2="143.7813" y1="81.2969" y2="440.7578"/></g><g><title>Canvas</title><rect fill="#000000" fill-opacity="0.00000" height="359.4609" width="8" x="263.4897" y="81.2969"/><line style="stroke:#181818;stroke-width:0.5;stroke-dasharray:5.0,5.0;" x1="266.7969" x2="266.7969" y1="81.2969" y2="440.7578"/></g><g><title>Rectangle</title><rect fill="#000000" fill-opacity="0.00000" height="359.4609" width="8" x="348.3672" y="81.2969"/><line style="stroke:#181818;stroke-width:0.5;stroke-dasharray:5.0,5.0;" x1="352.1826" x2="352.1826" y1="81.2969" y2="440.7578"/></g><g><title>Cell</title><rect fill="#000000" fill-opacity="0.00000" height="359.4609" width="8" x="420.6357" y="81.2969"/><line style="stroke:#181818;stroke-width:0.5;stroke-dasharray:5.0,5.0;" x1="424.5518" x2="424.5518" y1="81.2969" y2="440.7578"/></g><g><title>Store</title><rect fill="#000000" fill-opacity="0.00000" height="359.4609" width="8" x="476.375" y="81.2969"/><line style="stroke:#181818;stroke-width:0.5;stroke-dasharray:5.0,5.0;" x1="479.7197" x2="479.7197" y1="81.2969" y2="440.7578"/></g><g><title>Robot</title><rect fill="#000000" fill-opacity="0.00000" height="359.4609" width="8" x="539.6475" y="81.2969"/><line style="stroke:#181818;stroke-width:0.5;stroke-dasharray:5.0,5.0;" x1="543.0303" x2="543.0303" y1="81.2969" y2="440.7578"/></g><g class="participant participant-head" data-participant="Actor0"><text fill="#000000" font-family="sans-serif" font-size="14" lengthAdjust="spacing" textLength="45.9922" x="5" y="77.9951">Actor0</text><ellipse cx="30.9961" cy="13.5" fill="#E2E2F0" rx="8" ry="8" style="stroke:#181818;stroke-width:0.5;"/><path d="M30.9961,21.5 L30.9961,48.5 M17.9961,29.5 L43.9961,29.5 M30.9961,48.5 L17.9961,63.5 M30.9961,48.5 L43.9961,63.5" fill="none" style="stroke:#181818;stroke-width:0.5;"/></g><g class="participant participant-tail" data-participant="Actor0"><text fill="#000000" font-family="sans-serif" font-size="14" lengthAdjust="spacing" textLength="45.9922" x="5" y="452.7529">Actor0</text><ellipse cx="30.9961" cy="464.5547" fill="#E2E2F0" rx="8" ry="8" style="stroke:#181818;stroke-width:0.5;"/><path d="M30.9961,472.5547 L30.9961,499.5547 M17.9961,480.5547 L43.9961,480.5547 M30.9961,499.5547 L17.9961,514.5547 M30.9961,499.5547 L43.9961,514.5547" fill="none" style="stroke:#181818;stroke-width:0.5;"/></g><g class="participant participant-head" data-participant="SilkRoad"><rect fill="#E2E2F0" height="30.2969" rx="2.5" ry="2.5" style="stroke:#181818;stroke-width:0.5;" width="74.5322" x="106.7813" y="50"/><text fill="#000000" font-family="sans-serif" font-size="14" lengthAdjust="spacing" textLength="60.5322" x="113.7813" y="69.9951">SilkRoad</text></g><g class="participant participant-tail" data-participant="SilkRoad"><rect fill="#E2E2F0" height="30.2969" rx="2.5" ry="2.5" style="stroke:#181818;stroke-width:0.5;" width="74.5322" x="106.7813" y="439.7578"/><text fill="#000000" font-family="sans-serif" font-size="14" lengthAdjust="spacing" textLength="60.5322" x="113.7813" y="459.7529">SilkRoad</text></g><g class="participant participant-head" data-participant="Canvas"><rect fill="#E2E2F0" height="30.2969" rx="2.5" ry="2.5" style="stroke:#181818;stroke-width:0.5;" width="65.3857" x="234.7969" y="50"/><text fill="#000000" font-family="sans-serif" font-size="14" lengthAdjust="spacing" textLength="51.3857" x="241.7969" y="69.9951">Canvas</text></g><g class="participant participant-tail" data-participant="Canvas"><rect fill="#E2E2F0" height="30.2969" rx="2.5" ry="2.5" style="stroke:#181818;stroke-width:0.5;" width="65.3857" x="234.7969" y="439.7578"/><text fill="#000000" font-family="sans-serif" font-size="14" lengthAdjust="spacing" textLength="51.3857" x="241.7969" y="459.7529">Canvas</text></g><g class="participant participant-head" data-participant="Rectangle"><rect fill="#E2E2F0" height="30.2969" rx="2.5" ry="2.5" style="stroke:#181818;stroke-width:0.5;" width="84.3691" x="310.1826" y="50"/><text fill="#000000" font-family="sans-serif" font-size="14" lengthAdjust="spacing" textLength="70.3691" x="317.1826" y="69.9951">Rectangle</text></g><g class="participant participant-tail" data-participant="Rectangle"><rect fill="#E2E2F0" height="30.2969" rx="2.5" ry="2.5" style="stroke:#181818;stroke-width:0.5;" width="84.3691" x="310.1826" y="439.7578"/><text fill="#000000" font-family="sans-serif" font-size="14" lengthAdjust="spacing" textLength="70.3691" x="317.1826" y="459.7529">Rectangle</text></g><g class="participant participant-head" data-participant="Cell"><rect fill="#E2E2F0" height="30.2969" rx="2.5" ry="2.5" style="stroke:#181818;stroke-width:0.5;" width="40.168" x="404.5518" y="50"/><text fill="#000000" font-family="sans-serif" font-size="14" lengthAdjust="spacing" textLength="26.168" x="411.5518" y="69.9951">Cell</text></g><g class="participant participant-tail" data-participant="Cell"><rect fill="#E2E2F0" height="30.2969" rx="2.5" ry="2.5" style="stroke:#181818;stroke-width:0.5;" width="40.168" x="404.5518" y="439.7578"/><text fill="#000000" font-family="sans-serif" font-size="14" lengthAdjust="spacing" textLength="26.168" x="411.5518" y="459.7529">Cell</text></g><g class="participant participant-head" data-participant="Store"><rect fill="#E2E2F0" height="30.2969" rx="2.5" ry="2.5" style="stroke:#181818;stroke-width:0.5;" width="51.3105" x="454.7197" y="50"/><text fill="#000000" font-family="sans-serif" font-size="14" lengthAdjust="spacing" textLength="37.3105" x="461.7197" y="69.9951">Store</text></g><g class="participant participant-tail" data-participant="Store"><rect fill="#E2E2F0" height="30.2969" rx="2.5" ry="2.5" style="stroke:#181818;stroke-width:0.5;" width="51.3105" x="454.7197" y="439.7578"/><text fill="#000000" font-family="sans-serif" font-size="14" lengthAdjust="spacing" textLength="37.3105" x="461.7197" y="459.7529">Store</text></g><g class="participant participant-head" data-participant="Robot"><rect fill="#E2E2F0" height="30.2969" rx="2.5" ry="2.5" style="stroke:#181818;stroke-width:0.5;" width="55.2344" x="516.0303" y="50"/><text fill="#000000" font-family="sans-serif" font-size="14" lengthAdjust="spacing" textLength="41.2344" x="523.0303" y="69.9951">Robot</text></g><g class="participant participant-tail" data-participant="Robot"><rect fill="#E2E2F0" height="30.2969" rx="2.5" ry="2.5" style="stroke:#181818;stroke-width:0.5;" width="55.2344" x="516.0303" y="439.7578"/><text fill="#000000" font-family="sans-serif" font-size="14" lengthAdjust="spacing" textLength="41.2344" x="523.0303" y="459.7529">Robot</text></g><g class="message" data-participant-1="Actor0" data-participant-2="SilkRoad"><polygon fill="#181818" points="132.0474,108.4297,142.0474,112.4297,132.0474,116.4297,136.0474,112.4297" style="stroke:#181818;stroke-width:1;"/><line style="stroke:#181818;stroke-width:1;" x1="30.9961" x2="138.0474" y1="112.4297" y2="112.4297"/><text fill="#000000" font-family="sans-serif" font-size="13" lengthAdjust="spacing" textLength="89.0513" x="37.9961" y="107.3638">makeVisible()</text></g><g class="message" data-participant-1="SilkRoad" data-participant-2="SilkRoad"><line style="stroke:#181818;stroke-width:1;" x1="144.0474" x2="186.0474" y1="141.5625" y2="141.5625"/><line style="stroke:#181818;stroke-width:1;" x1="186.0474" x2="186.0474" y1="141.5625" y2="154.5625"/><line style="stroke:#181818;stroke-width:1;" x1="145.0474" x2="186.0474" y1="154.5625" y2="154.5625"/><polygon fill="#181818" points="155.0474,150.5625,145.0474,154.5625,155.0474,158.5625,151.0474,154.5625" style="stroke:#181818;stroke-width:1;"/><text fill="#000000" font-family="sans-serif" font-size="13" lengthAdjust="spacing" textLength="87.3882" x="151.0474" y="136.4966">visible = true</text></g><g class="message" data-participant-1="SilkRoad" data-participant-2="Canvas"><polygon fill="#181818" points="255.4897,179.6953,265.4897,183.6953,255.4897,187.6953,259.4897,183.6953" style="stroke:#181818;stroke-width:1;"/><line style="stroke:#181818;stroke-width:1;" x1="144.0474" x2="261.4897" y1="183.6953" y2="183.6953"/><text fill="#000000" font-family="sans-serif" font-size="13" lengthAdjust="spacing" textLength="79.2061" x="151.0474" y="178.6294">getCanvas()</text></g><g class="message" data-participant-1="SilkRoad" data-participant-2="Canvas"><polygon fill="#181818" points="255.4897,208.8281,265.4897,212.8281,255.4897,216.8281,259.4897,212.8281" style="stroke:#181818;stroke-width:1;"/><line style="stroke:#181818;stroke-width:1;" x1="144.0474" x2="261.4897" y1="212.8281" y2="212.8281"/><text fill="#000000" font-family="sans-serif" font-size="13" lengthAdjust="spacing" textLength="99.4424" x="151.0474" y="207.7622">setVisible(true)</text></g><g class="message" data-participant-1="SilkRoad" data-participant-2="Rectangle"><polygon fill="#181818" points="340.3672,237.9609,350.3672,241.9609,340.3672,245.9609,344.3672,241.9609" style="stroke:#181818;stroke-width:1;"/><line style="stroke:#181818;stroke-width:1;" x1="144.0474" x2="346.3672" y1="241.9609" y2="241.9609"/><text fill="#000000" font-family="sans-serif" font-size="13" lengthAdjust="spacing" textLength="89.0513" x="151.0474" y="236.895">makeVisible()</text></g><path d="M96.7813,256.9609 L173.4053,256.9609 L173.4053,264.0938 L163.4053,274.0938 L96.7813,274.0938 L96.7813,256.9609" fill="#EEEEEE" style="stroke:#000000;stroke-width:1.5;"/><rect fill="none" height="46.2656" style="stroke:#000000;stroke-width:1.5;" width="357.9385" x="96.7813" y="256.9609"/><text fill="#000000" font-family="sans-serif" font-size="13" font-weight="bold" lengthAdjust="spacing" textLength="31.624" x="111.7813" y="270.0278">loop</text><a href="for" target="_top" title="for" xlink:actuate="onRequest" xlink:href="for" xlink:show="new" xlink:title="for" xlink:type="simple"><text fill="#0000FF" font-family="sans-serif" font-size="11" font-weight="bold" lengthAdjust="spacing" text-decoration="underline" textLength="98.9248" x="188.4053" y="269.1714">(Cell cell : path)</text></a><g class="message" data-participant-1="SilkRoad" data-participant-2="Cell"><polygon fill="#181818" points="412.6357,291.2266,422.6357,295.2266,412.6357,299.2266,416.6357,295.2266" style="stroke:#181818;stroke-width:1;"/><line style="stroke:#181818;stroke-width:1;" x1="144.0474" x2="418.6357" y1="295.2266" y2="295.2266"/><text fill="#000000" font-family="sans-serif" font-size="13" lengthAdjust="spacing" textLength="131.0791" x="151.0474" y="290.1606">visual.makeVisible()</text></g><path d="M96.7813,317.2266 L173.4053,317.2266 L173.4053,324.3594 L163.4053,334.3594 L96.7813,334.3594 L96.7813,317.2266" fill="#EEEEEE" style="stroke:#000000;stroke-width:1.5;"/><rect fill="none" height="46.2656" style="stroke:#000000;stroke-width:1.5;" width="419.249" x="96.7813" y="317.2266"/><text fill="#000000" font-family="sans-serif" font-size="13" font-weight="bold" lengthAdjust="spacing" textLength="31.624" x="111.7813" y="330.2935">loop</text><a href="for" target="_top" title="for" xlink:actuate="onRequest" xlink:href="for" xlink:show="new" xlink:title="for" xlink:type="simple"><text fill="#0000FF" font-family="sans-serif" font-size="11" font-weight="bold" lengthAdjust="spacing" text-decoration="underline" textLength="130.6089" x="188.4053" y="329.437">(Store store : stores)</text></a><g class="message" data-participant-1="SilkRoad" data-participant-2="Store"><polygon fill="#181818" points="468.375,351.4922,478.375,355.4922,468.375,359.4922,472.375,355.4922" style="stroke:#181818;stroke-width:1;"/><line style="stroke:#181818;stroke-width:1;" x1="144.0474" x2="474.375" y1="355.4922" y2="355.4922"/><text fill="#000000" font-family="sans-serif" font-size="13" lengthAdjust="spacing" textLength="89.0513" x="151.0474" y="350.4263">makeVisible()</text></g><path d="M96.7813,377.4922 L173.4053,377.4922 L173.4053,384.625 L163.4053,394.625 L96.7813,394.625 L96.7813,377.4922" fill="#EEEEEE" style="stroke:#000000;stroke-width:1.5;"/><rect fill="none" height="46.2656" style="stroke:#000000;stroke-width:1.5;" width="484.4834" x="96.7813" y="377.4922"/><text fill="#000000" font-family="sans-serif" font-size="13" font-weight="bold" lengthAdjust="spacing" textLength="31.624" x="111.7813" y="390.5591">loop</text><a href="for" target="_top" title="for" xlink:actuate="onRequest" xlink:href="for" xlink:show="new" xlink:title="for" xlink:type="simple"><text fill="#0000FF" font-family="sans-serif" font-size="11" font-weight="bold" lengthAdjust="spacing" text-decoration="underline" textLength="136.5493" x="188.4053" y="389.7026">(Robot robot : robots)</text></a><g class="message" data-participant-1="SilkRoad" data-participant-2="Robot"><polygon fill="#181818" points="531.6475,411.7578,541.6475,415.7578,531.6475,419.7578,535.6475,415.7578" style="stroke:#181818;stroke-width:1;"/><line style="stroke:#181818;stroke-width:1;" x1="144.0474" x2="537.6475" y1="415.7578" y2="415.7578"/><text fill="#000000" font-family="sans-serif" font-size="13" lengthAdjust="spacing" textLength="89.0513" x="151.0474" y="410.6919">makeVisible()</text></g><!--SRC=[VP313e8m38RlUueUvQ3nJAA9yGqWyM8y5AYuCDd22i_lO4XI8UxGBTkNx- -A9TiEBcCzAeSTwr8xR1boRPhCOYKkhzWEwCLLHYLZMnkI81aZTI508fajB2iLes5_NX8XXJSsTDDU5uPsYLeU93H404x0NK-2Ydq6fYQEvn_D0dZYRz1eaTJojrLBobZhuFuCizkDVuLoB2auv5VoK12MY8kleUCUpK6ggAs4RfeK-AccSVSRodm6_ikc8KCtrJJkMx9i1bQo3m00]--></g></svg>