<svg xmlns="http://www.w3.org/2000/svg" xmlns:xlink="http://www.w3.org/1999/xlink" contentStyleType="text/css" data-diagram-type="SEQUENCE" height="463px" preserveAspectRatio="none" style="width:513px;height:463px;background:#FFFFFF;" version="1.1" viewBox="0 0 513 463" width="513px" zoomAndPan="magnify"><defs/><g><rect fill="none" height="46.2656" style="stroke:#000000;stroke-width:1.5;" width="273.5435" x="107.6548" y="198.6953"/><rect fill="none" height="46.2656" style="stroke:#000000;stroke-width:1.5;" width="334.854" x="107.6548" y="258.9609"/><rect fill="none" height="46.2656" style="stroke:#000000;stroke-width:1.5;" width="400.0884" x="107.6548" y="319.2266"/><g><title>Actor0</title><rect fill="#000000" fill-opacity="0.00000" height="301.1953" width="8" x="26.9961" y="81.2969"/><line style="stroke:#181818;stroke-width:0.5;stroke-dasharray:5.0,5.0;" x1="30" x2="30" y1="81.2969" y2="382.4922"/></g><g><title>SilkRoad</title><rect fill="#000000" fill-opacity="0.00000" height="301.1953" width="8" x="150.9209" y="81.2969"/><line style="stroke:#181818;stroke-width:0.5;stroke-dasharray:5.0,5.0;" x1="154.6548" x2="154.6548" y1="81.2969" y2="382.4922"/></g><g><title>Rectangle</title><rect fill="#000000" fill-opacity="0.00000" height="301.1953" width="8" x="274.8457" y="81.2969"/><line style="stroke:#181818;stroke-width:0.5;stroke-dasharray:5.0,5.0;" x1="278.6611" x2="278.6611" y1="81.2969" y2="382.4922"/></g><g><title>Cell</title><rect fill="#000000" fill-opacity="0.00000" height="301.1953" width="8" x="347.1143" y="81.2969"/><line style="stroke:#181818;stroke-width:0.5;stroke-dasharray:5.0,5.0;" x1="351.0303" x2="351.0303" y1="81.2969" y2="382.4922"/></g><g><title>Store</title><rect fill="#000000" fill-opacity="0.00000" height="301.1953" width="8" x="402.8535" y="81.2969"/><line style="stroke:#181818;stroke-width:0.5;stroke-dasharray:5.0,5.0;" x1="406.1982" x2="406.1982" y1="81.2969" y2="382.4922"/></g><g><title>Robot</title><rect fill="#000000" fill-opacity="0.00000" height="301.1953" width="8" x="466.126" y="81.2969"/><line style="stroke:#181818;stroke-width:0.5;stroke-dasharray:5.0,5.0;" x1="469.5088" x2="469.5088" y1="81.2969" y2="382.4922"/></g><g class="participant participant-head" data-participant="Actor0"><text fill="#000000" font-family="sans-serif" font-size="14" lengthAdjust="spacing" textLength="45.9922" x="5" y="77.9951">Actor0</text><ellipse cx="30.9961" cy="13.5" fill="#E2E2F0" rx="8" ry="8" style="stroke:#181818;stroke-width:0.5;"/><path d="M30.9961,21.5 L30.9961,48.5 M17.9961,29.5 L43.9961,29.5 M30.9961,48.5 L17.9961,63.5 M30.9961,48.5 L43.9961,63.5" fill="none" style="stroke:#181818;stroke-width:0.5;"/></g><g class="participant participant-tail" data-participant="Actor0"><text fill="#000000" font-family="sans-serif" font-size="14" lengthAdjust="spacing" textLength="45.9922" x="5" y="394.4873">Actor0</text><ellipse cx="30.9961" cy="406.2891" fill="#E2E2F0" rx="8" ry="8" style="stroke:#181818;stroke-width:0.5;"/><path d="M30.9961,414.2891 L30.9961,441.2891 M17.9961,422.2891 L43.9961,422.2891 M30.9961,441.2891 L17.9961,456.2891 M30.9961,441.2891 L43.9961,456.2891" fill="none" style="stroke:#181818;stroke-width:0.5;"/></g><g class="participant participant-head" data-participant="SilkRoad"><rect fill="#E2E2F0" height="30.2969" rx="2.5" ry="2.5" style="stroke:#181818;stroke-width:0.5;" width="74.5322" x="117.6548" y="50"/><text fill="#000000" font-family="sans-serif" font-size="14" lengthAdjust="spacing" textLength="60.5322" x="124.6548" y="69.9951">SilkRoad</text></g><g class="participant participant-tail" data-participant="SilkRoad"><rect fill="#E2E2F0" height="30.2969" rx="2.5" ry="2.5" style="stroke:#181818;stroke-width:0.5;" width="74.5322" x="117.6548" y="381.4922"/><text fill="#000000" font-family="sans-serif" font-size="14" lengthAdjust="spacing" textLength="60.5322" x="124.6548" y="401.4873">SilkRoad</text></g><g class="participant participant-head" data-participant="Rectangle"><rect fill="#E2E2F0" height="30.2969" rx="2.5" ry="2.5" style="stroke:#181818;stroke-width:0.5;" width="84.3691" x="236.6611" y="50"/><text fill="#000000" font-family="sans-serif" font-size="14" lengthAdjust="spacing" textLength="70.3691" x="243.6611" y="69.9951">Rectangle</text></g><g class="participant participant-tail" data-participant="Rectangle"><rect fill="#E2E2F0" height="30.2969" rx="2.5" ry="2.5" style="stroke:#181818;stroke-width:0.5;" width="84.3691" x="236.6611" y="381.4922"/><text fill="#000000" font-family="sans-serif" font-size="14" lengthAdjust="spacing" textLength="70.3691" x="243.6611" y="401.4873">Rectangle</text></g><g class="participant participant-head" data-participant="Cell"><rect fill="#E2E2F0" height="30.2969" rx="2.5" ry="2.5" style="stroke:#181818;stroke-width:0.5;" width="40.168" x="331.0303" y="50"/><text fill="#000000" font-family="sans-serif" font-size="14" lengthAdjust="spacing" textLength="26.168" x="338.0303" y="69.9951">Cell</text></g><g class="participant participant-tail" data-participant="Cell"><rect fill="#E2E2F0" height="30.2969" rx="2.5" ry="2.5" style="stroke:#181818;stroke-width:0.5;" width="40.168" x="331.0303" y="381.4922"/><text fill="#000000" font-family="sans-serif" font-size="14" lengthAdjust="spacing" textLength="26.168" x="338.0303" y="401.4873">Cell</text></g><g class="participant participant-head" data-participant="Store"><rect fill="#E2E2F0" height="30.2969" rx="2.5" ry="2.5" style="stroke:#181818;stroke-width:0.5;" width="51.3105" x="381.1982" y="50"/><text fill="#000000" font-family="sans-serif" font-size="14" lengthAdjust="spacing" textLength="37.3105" x="388.1982" y="69.9951">Store</text></g><g class="participant participant-tail" data-participant="Store"><rect fill="#E2E2F0" height="30.2969" rx="2.5" ry="2.5" style="stroke:#181818;stroke-width:0.5;" width="51.3105" x="381.1982" y="381.4922"/><text fill="#000000" font-family="sans-serif" font-size="14" lengthAdjust="spacing" textLength="37.3105" x="388.1982" y="401.4873">Store</text></g><g class="participant participant-head" data-participant="Robot"><rect fill="#E2E2F0" height="30.2969" rx="2.5" ry="2.5" style="stroke:#181818;stroke-width:0.5;" width="55.2344" x="442.5088" y="50"/><text fill="#000000" font-family="sans-serif" font-size="14" lengthAdjust="spacing" textLength="41.2344" x="449.5088" y="69.9951">Robot</text></g><g class="participant participant-tail" data-participant="Robot"><rect fill="#E2E2F0" height="30.2969" rx="2.5" ry="2.5" style="stroke:#181818;stroke-width:0.5;" width="55.2344" x="442.5088" y="381.4922"/><text fill="#000000" font-family="sans-serif" font-size="14" lengthAdjust="spacing" textLength="41.2344" x="449.5088" y="401.4873">Robot</text></g><g class="message" data-participant-1="Actor0" data-participant-2="SilkRoad"><polygon fill="#181818" points="142.9209,108.4297,152.9209,112.4297,142.9209,116.4297,146.9209,112.4297" style="stroke:#181818;stroke-width:1;"/><line style="stroke:#181818;stroke-width:1;" x1="30.9961" x2="148.9209" y1="112.4297" y2="112.4297"/><text fill="#000000" font-family="sans-serif" font-size="13" lengthAdjust="spacing" textLength="99.9248" x="37.9961" y="107.3638">makeInvisible()</text></g><g class="message" data-participant-1="SilkRoad" data-participant-2="SilkRoad"><line style="stroke:#181818;stroke-width:1;" x1="154.9209" x2="196.9209" y1="141.5625" y2="141.5625"/><line style="stroke:#181818;stroke-width:1;" x1="196.9209" x2="196.9209" y1="141.5625" y2="154.5625"/><line style="stroke:#181818;stroke-width:1;" x1="155.9209" x2="196.9209" y1="154.5625" y2="154.5625"/><polygon fill="#181818" points="165.9209,150.5625,155.9209,154.5625,165.9209,158.5625,161.9209,154.5625" style="stroke:#181818;stroke-width:1;"/><text fill="#000000" font-family="sans-serif" font-size="13" lengthAdjust="spacing" textLength="91.6348" x="161.9209" y="136.4966">visible = false</text></g><g class="message" data-participant-1="SilkRoad" data-participant-2="Rectangle"><polygon fill="#181818" points="266.8457,179.6953,276.8457,183.6953,266.8457,187.6953,270.8457,183.6953" style="stroke:#181818;stroke-width:1;"/><line style="stroke:#181818;stroke-width:1;" x1="154.9209" x2="272.8457" y1="183.6953" y2="183.6953"/><text fill="#000000" font-family="sans-serif" font-size="13" lengthAdjust="spacing" textLength="99.9248" x="161.9209" y="178.6294">makeInvisible()</text></g><path d="M107.6548,198.6953 L184.2788,198.6953 L184.2788,205.8281 L174.2788,215.8281 L107.6548,215.8281 L107.6548,198.6953" fill="#EEEEEE" style="stroke:#000000;stroke-width:1.5;"/><rect fill="none" height="46.2656" style="stroke:#000000;stroke-width:1.5;" width="273.5435" x="107.6548" y="198.6953"/><text fill="#000000" font-family="sans-serif" font-size="13" font-weight="bold" lengthAdjust="spacing" textLength="31.624" x="122.6548" y="211.7622">loop</text><a href="for" target="_top" title="for" xlink:actuate="onRequest" xlink:href="for" xlink:show="new" xlink:title="for" xlink:type="simple"><text fill="#0000FF" font-family="sans-serif" font-size="11" font-weight="bold" lengthAdjust="spacing" text-decoration="underline" textLength="98.9248" x="199.2788" y="210.9058">(Cell cell : path)</text></a><g class="message" data-participant-1="SilkRoad" data-participant-2="Cell"><polygon fill="#181818" points="339.1143,232.9609,349.1143,236.9609,339.1143,240.9609,343.1143,236.9609" style="stroke:#181818;stroke-width:1;"/><line style="stroke:#181818;stroke-width:1;" x1="154.9209" x2="345.1143" y1="236.9609" y2="236.9609"/><text fill="#000000" font-family="sans-serif" font-size="13" lengthAdjust="spacing" textLength="141.9526" x="161.9209" y="231.895">visual.makeInvisible()</text></g><path d="M107.6548,258.9609 L184.2788,258.9609 L184.2788,266.0938 L174.2788,276.0938 L107.6548,276.0938 L107.6548,258.9609" fill="#EEEEEE" style="stroke:#000000;stroke-width:1.5;"/><rect fill="none" height="46.2656" style="stroke:#000000;stroke-width:1.5;" width="334.854" x="107.6548" y="258.9609"/><text fill="#000000" font-family="sans-serif" font-size="13" font-weight="bold" lengthAdjust="spacing" textLength="31.624" x="122.6548" y="272.0278">loop</text><a href="for" target="_top" title="for" xlink:actuate="onRequest" xlink:href="for" xlink:show="new" xlink:title="for" xlink:type="simple"><text fill="#0000FF" font-family="sans-serif" font-size="11" font-weight="bold" lengthAdjust="spacing" text-decoration="underline" textLength="130.6089" x="199.2788" y="271.1714">(Store store : stores)</text></a><g class="message" data-participant-1="SilkRoad" data-participant-2="Store"><polygon fill="#181818" points="394.8535,293.2266,404.8535,297.2266,394.8535,301.2266,398.8535,297.2266" style="stroke:#181818;stroke-width:1;"/><line style="stroke:#181818;stroke-width:1;" x1="154.9209" x2="400.8535" y1="297.2266" y2="297.2266"/><text fill="#000000" font-family="sans-serif" font-size="13" lengthAdjust="spacing" textLength="99.9248" x="161.9209" y="292.1606">makeInvisible()</text></g><path d="M107.6548,319.2266 L184.2788,319.2266 L184.2788,326.3594 L174.2788,336.3594 L107.6548,336.3594 L107.6548,319.2266" fill="#EEEEEE" style="stroke:#000000;stroke-width:1.5;"/><rect fill="none" height="46.2656" style="stroke:#000000;stroke-width:1.5;" width="400.0884" x="107.6548" y="319.2266"/><text fill="#000000" font-family="sans-serif" font-size="13" font-weight="bold" lengthAdjust="spacing" textLength="31.624" x="122.6548" y="332.2935">loop</text><a href="for" target="_top" title="for" xlink:actuate="onRequest" xlink:href="for" xlink:show="new" xlink:title="for" xlink:type="simple"><text fill="#0000FF" font-family="sans-serif" font-size="11" font-weight="bold" lengthAdjust="spacing" text-decoration="underline" textLength="136.5493" x="199.2788" y="331.437">(Robot robot : robots)</text></a><g class="message" data-participant-1="SilkRoad" data-participant-2="Robot"><polygon fill="#181818" points="458.126,353.4922,468.126,357.4922,458.126,361.4922,462.126,357.4922" style="stroke:#181818;stroke-width:1;"/><line style="stroke:#181818;stroke-width:1;" x1="154.9209" x2="464.126" y1="357.4922" y2="357.4922"/><text fill="#000000" font-family="sans-serif" font-size="13" lengthAdjust="spacing" textLength="99.9248" x="161.9209" y="352.4263">makeInvisible()</text></g><!--SRC=[XP313i8W38RlF4MFsq7ZcKGJivDNTZGUEiQKh0uoqEUNmRA88P73twJz-xK5fJSpd1SzC8kprr9Rd3oqcaPXiC-IGacFqvrKbcqKKTuRQBb5cCvunj8Ss9qsF71uugWkqrixtP6gQhQLSjjgW2CCI4vbjcsl0ewHCHQkGpYpMZO5kGW7Y_vHtnY4zurgKZNqlv3slp0rzHamNWekAa_H5Q3jQlY7Yzy4SrIUOWadLaC1zm40]--></g></svg>