<svg xmlns="http://www.w3.org/2000/svg" xmlns:xlink="http://www.w3.org/1999/xlink" contentStyleType="text/css" data-diagram-type="SEQUENCE" height="857px" preserveAspectRatio="none" style="width:711px;height:857px;background:#FFFFFF;" version="1.1" viewBox="0 0 711 857" width="711px" zoomAndPan="magnify"><defs/><g><rect fill="none" height="590.6016" style="stroke:#000000;stroke-width:1.5;" width="516.1348" x="188.1914" y="169.5625"/><rect fill="none" height="431.0703" style="stroke:#000000;stroke-width:1.5;" width="496.1348" x="198.1914" y="322.0938"/><g><title>Actor0</title><rect fill="#000000" fill-opacity="0.00000" height="695.8672" width="8" x="26.9961" y="81.2969"/><line style="stroke:#181818;stroke-width:0.5;stroke-dasharray:5.0,5.0;" x1="30" x2="30" y1="81.2969" y2="777.1641"/></g><g><title>SilkRoad</title><rect fill="#000000" fill-opacity="0.00000" height="695.8672" width="8" x="241.4575" y="81.2969"/><line style="stroke:#181818;stroke-width:0.5;stroke-dasharray:5.0,5.0;" x1="245.1914" x2="245.1914" y1="81.2969" y2="777.1641"/></g><g><title>Robot</title><rect fill="#000000" fill-opacity="0.00000" height="695.8672" width="8" x="602.541" y="81.2969"/><line style="stroke:#181818;stroke-width:0.5;stroke-dasharray:5.0,5.0;" x1="605.9238" x2="605.9238" y1="81.2969" y2="777.1641"/></g><g><title>Cell</title><rect fill="#000000" fill-opacity="0.00000" height="695.8672" width="8" x="660.2422" y="81.2969"/><line style="stroke:#181818;stroke-width:0.5;stroke-dasharray:5.0,5.0;" x1="664.1582" x2="664.1582" y1="81.2969" y2="777.1641"/></g><g class="participant participant-head" data-participant="Actor0"><text fill="#000000" font-family="sans-serif" font-size="14" lengthAdjust="spacing" textLength="45.9922" x="5" y="77.9951">Actor0</text><ellipse cx="30.9961" cy="13.5" fill="#E2E2F0" rx="8" ry="8" style="stroke:#181818;stroke-width:0.5;"/><path d="M30.9961,21.5 L30.9961,48.5 M17.9961,29.5 L43.9961,29.5 M30.9961,48.5 L17.9961,63.5 M30.9961,48.5 L43.9961,63.5" fill="none" style="stroke:#181818;stroke-width:0.5;"/></g><g class="participant participant-tail" data-participant="Actor0"><text fill="#000000" font-family="sans-serif" font-size="14" lengthAdjust="spacing" textLength="45.9922" x="5" y="789.1592">Actor0</text><ellipse cx="30.9961" cy="800.9609" fill="#E2E2F0" rx="8" ry="8" style="stroke:#181818;stroke-width:0.5;"/><path d="M30.9961,808.9609 L30.9961,835.9609 M17.9961,816.9609 L43.9961,816.9609 M30.9961,835.9609 L17.9961,850.9609 M30.9961,835.9609 L43.9961,850.9609" fill="none" style="stroke:#181818;stroke-width:0.5;"/></g><g class="participant participant-head" data-participant="SilkRoad"><rect fill="#E2E2F0" height="30.2969" rx="2.5" ry="2.5" style="stroke:#181818;stroke-width:0.5;" width="74.5322" x="208.1914" y="50"/><text fill="#000000" font-family="sans-serif" font-size="14" lengthAdjust="spacing" textLength="60.5322" x="215.1914" y="69.9951">SilkRoad</text></g><g class="participant participant-tail" data-participant="SilkRoad"><rect fill="#E2E2F0" height="30.2969" rx="2.5" ry="2.5" style="stroke:#181818;stroke-width:0.5;" width="74.5322" x="208.1914" y="776.1641"/><text fill="#000000" font-family="sans-serif" font-size="14" lengthAdjust="spacing" textLength="60.5322" x="215.1914" y="796.1592">SilkRoad</text></g><g class="participant participant-head" data-participant="Robot"><rect fill="#E2E2F0" height="30.2969" rx="2.5" ry="2.5" style="stroke:#181818;stroke-width:0.5;" width="55.2344" x="578.9238" y="50"/><text fill="#000000" font-family="sans-serif" font-size="14" lengthAdjust="spacing" textLength="41.2344" x="585.9238" y="69.9951">Robot</text></g><g class="participant participant-tail" data-participant="Robot"><rect fill="#E2E2F0" height="30.2969" rx="2.5" ry="2.5" style="stroke:#181818;stroke-width:0.5;" width="55.2344" x="578.9238" y="776.1641"/><text fill="#000000" font-family="sans-serif" font-size="14" lengthAdjust="spacing" textLength="41.2344" x="585.9238" y="796.1592">Robot</text></g><g class="participant participant-head" data-participant="Cell"><rect fill="#E2E2F0" height="30.2969" rx="2.5" ry="2.5" style="stroke:#181818;stroke-width:0.5;" width="40.168" x="644.1582" y="50"/><text fill="#000000" font-family="sans-serif" font-size="14" lengthAdjust="spacing" textLength="26.168" x="651.1582" y="69.9951">Cell</text></g><g class="participant participant-tail" data-participant="Cell"><rect fill="#E2E2F0" height="30.2969" rx="2.5" ry="2.5" style="stroke:#181818;stroke-width:0.5;" width="40.168" x="644.1582" y="776.1641"/><text fill="#000000" font-family="sans-serif" font-size="14" lengthAdjust="spacing" textLength="26.168" x="651.1582" y="796.1592">Cell</text></g><g class="message" data-participant-1="Actor0" data-participant-2="SilkRoad"><polygon fill="#181818" points="233.4575,108.4297,243.4575,112.4297,233.4575,116.4297,237.4575,112.4297" style="stroke:#181818;stroke-width:1;"/><line style="stroke:#181818;stroke-width:1;" x1="30.9961" x2="239.4575" y1="112.4297" y2="112.4297"/><text fill="#000000" font-family="sans-serif" font-size="13" lengthAdjust="spacing" textLength="190.4614" x="37.9961" y="107.3638">moveRobot(location, meters)</text></g><g class="message" data-participant-1="SilkRoad" data-participant-2="SilkRoad"><line style="stroke:#181818;stroke-width:1;" x1="245.4575" x2="287.4575" y1="141.5625" y2="141.5625"/><line style="stroke:#181818;stroke-width:1;" x1="287.4575" x2="287.4575" y1="141.5625" y2="154.5625"/><line style="stroke:#181818;stroke-width:1;" x1="246.4575" x2="287.4575" y1="154.5625" y2="154.5625"/><polygon fill="#181818" points="256.4575,150.5625,246.4575,154.5625,256.4575,158.5625,252.4575,154.5625" style="stroke:#181818;stroke-width:1;"/><text fill="#000000" font-family="sans-serif" font-size="13" lengthAdjust="spacing" textLength="241.7886" x="252.4575" y="136.4966">robotToMove = foundRobot(location)</text></g><path d="M188.1914,169.5625 L252.6343,169.5625 L252.6343,176.6953 L242.6343,186.6953 L188.1914,186.6953 L188.1914,169.5625" fill="#EEEEEE" style="stroke:#000000;stroke-width:1.5;"/><rect fill="none" height="590.6016" style="stroke:#000000;stroke-width:1.5;" width="516.1348" x="188.1914" y="169.5625"/><text fill="#000000" font-family="sans-serif" font-size="13" font-weight="bold" lengthAdjust="spacing" textLength="19.4429" x="203.1914" y="182.6294">alt</text><a href="if" target="_top" title="if" xlink:actuate="onRequest" xlink:href="if" xlink:show="new" xlink:title="if" xlink:type="simple"><text fill="#0000FF" font-family="sans-serif" font-size="11" font-weight="bold" lengthAdjust="spacing" text-decoration="underline" textLength="141.2168" x="267.6343" y="181.7729">(robotToMove == null)</text></a><g class="message" data-participant-1="SilkRoad" data-participant-2="SilkRoad"><line style="stroke:#181818;stroke-width:1;" x1="245.4575" x2="287.4575" y1="207.8281" y2="207.8281"/><line style="stroke:#181818;stroke-width:1;" x1="287.4575" x2="287.4575" y1="207.8281" y2="220.8281"/><line style="stroke:#181818;stroke-width:1;" x1="246.4575" x2="287.4575" y1="220.8281" y2="220.8281"/><polygon fill="#181818" points="256.4575,216.8281,246.4575,220.8281,256.4575,224.8281,252.4575,220.8281" style="stroke:#181818;stroke-width:1;"/><text fill="#000000" font-family="sans-serif" font-size="13" lengthAdjust="spacing" textLength="298.6509" x="252.4575" y="202.7622">print("No hay robot en la ubicaci&#243;n indicada")</text></g><g class="message" data-participant-1="SilkRoad" data-participant-2="SilkRoad"><line style="stroke:#181818;stroke-width:1;" x1="245.4575" x2="287.4575" y1="249.9609" y2="249.9609"/><line style="stroke:#181818;stroke-width:1;" x1="287.4575" x2="287.4575" y1="249.9609" y2="262.9609"/><line style="stroke:#181818;stroke-width:1;" x1="246.4575" x2="287.4575" y1="262.9609" y2="262.9609"/><polygon fill="#181818" points="256.4575,258.9609,246.4575,262.9609,256.4575,266.9609,252.4575,262.9609" style="stroke:#181818;stroke-width:1;"/><text fill="#000000" font-family="sans-serif" font-size="13" lengthAdjust="spacing" textLength="155.9873" x="252.4575" y="244.895">lastOperationOk = false</text></g><line style="stroke:#000000;stroke-width:1;stroke-dasharray:2.0,2.0;" x1="188.1914" x2="704.3262" y1="271.9609" y2="271.9609"/><g class="message" data-participant-1="SilkRoad" data-participant-2="SilkRoad"><line style="stroke:#181818;stroke-width:1;" x1="245.4575" x2="287.4575" y1="294.0938" y2="294.0938"/><line style="stroke:#181818;stroke-width:1;" x1="287.4575" x2="287.4575" y1="294.0938" y2="307.0938"/><line style="stroke:#181818;stroke-width:1;" x1="246.4575" x2="287.4575" y1="307.0938" y2="307.0938"/><polygon fill="#181818" points="256.4575,303.0938,246.4575,307.0938,256.4575,311.0938,252.4575,307.0938" style="stroke:#181818;stroke-width:1;"/><text fill="#000000" font-family="sans-serif" font-size="13" lengthAdjust="spacing" textLength="217.8516" x="252.4575" y="289.0278">newLocation = location + meters</text></g><path d="M198.1914,322.0938 L262.6343,322.0938 L262.6343,329.2266 L252.6343,339.2266 L198.1914,339.2266 L198.1914,322.0938" fill="#EEEEEE" style="stroke:#000000;stroke-width:1.5;"/><rect fill="none" height="431.0703" style="stroke:#000000;stroke-width:1.5;" width="496.1348" x="198.1914" y="322.0938"/><text fill="#000000" font-family="sans-serif" font-size="13" font-weight="bold" lengthAdjust="spacing" textLength="19.4429" x="213.1914" y="335.1606">alt</text><a href="if" target="_top" title="if" xlink:actuate="onRequest" xlink:href="if" xlink:show="new" xlink:title="if" xlink:type="simple"><text fill="#0000FF" font-family="sans-serif" font-size="11" font-weight="bold" lengthAdjust="spacing" text-decoration="underline" textLength="178.3096" x="277.6343" y="334.3042">(!isMoveValid(newLocation))</text></a><g class="message" data-participant-1="SilkRoad" data-participant-2="SilkRoad"><line style="stroke:#181818;stroke-width:1;" x1="245.4575" x2="287.4575" y1="360.3594" y2="360.3594"/><line style="stroke:#181818;stroke-width:1;" x1="287.4575" x2="287.4575" y1="360.3594" y2="373.3594"/><line style="stroke:#181818;stroke-width:1;" x1="246.4575" x2="287.4575" y1="373.3594" y2="373.3594"/><polygon fill="#181818" points="256.4575,369.3594,246.4575,373.3594,256.4575,377.3594,252.4575,373.3594" style="stroke:#181818;stroke-width:1;"/><text fill="#000000" font-family="sans-serif" font-size="13" lengthAdjust="spacing" textLength="155.9873" x="252.4575" y="355.2935">lastOperationOk = false</text></g><line style="stroke:#000000;stroke-width:1;stroke-dasharray:2.0,2.0;" x1="198.1914" x2="694.3262" y1="382.3594" y2="382.3594"/><a href="if" target="_top" title="if" xlink:actuate="onRequest" xlink:href="if" xlink:show="new" xlink:title="if" xlink:type="simple"><text fill="#0000FF" font-family="sans-serif" font-size="11" font-weight="bold" lengthAdjust="spacing" text-decoration="underline" textLength="87.4146" x="203.1914" y="392.5698">(meters == 0)</text></a><g class="message" data-participant-1="SilkRoad" data-participant-2="SilkRoad"><line style="stroke:#181818;stroke-width:1;" x1="245.4575" x2="287.4575" y1="417.2969" y2="417.2969"/><line style="stroke:#181818;stroke-width:1;" x1="287.4575" x2="287.4575" y1="417.2969" y2="430.2969"/><line style="stroke:#181818;stroke-width:1;" x1="246.4575" x2="287.4575" y1="430.2969" y2="430.2969"/><polygon fill="#181818" points="256.4575,426.2969,246.4575,430.2969,256.4575,434.2969,252.4575,430.2969" style="stroke:#181818;stroke-width:1;"/><text fill="#000000" font-family="sans-serif" font-size="13" lengthAdjust="spacing" textLength="253.1572" x="252.4575" y="412.231">robotBestProfit(location, robotToMove)</text></g><line style="stroke:#000000;stroke-width:1;stroke-dasharray:2.0,2.0;" x1="198.1914" x2="694.3262" y1="439.2969" y2="439.2969"/><a href="if" target="_top" title="if" xlink:actuate="onRequest" xlink:href="if" xlink:show="new" xlink:title="if" xlink:type="simple"><text fill="#0000FF" font-family="sans-serif" font-size="11" font-weight="bold" lengthAdjust="spacing" text-decoration="underline" textLength="226.2251" x="203.1914" y="449.5073">(!checkRobotPosition(newLocation))</text></a><g class="message" data-participant-1="SilkRoad" data-participant-2="SilkRoad"><line style="stroke:#181818;stroke-width:1;" x1="245.4575" x2="287.4575" y1="474.2344" y2="474.2344"/><line style="stroke:#181818;stroke-width:1;" x1="287.4575" x2="287.4575" y1="474.2344" y2="487.2344"/><line style="stroke:#181818;stroke-width:1;" x1="246.4575" x2="287.4575" y1="487.2344" y2="487.2344"/><polygon fill="#181818" points="256.4575,483.2344,246.4575,487.2344,256.4575,491.2344,252.4575,487.2344" style="stroke:#181818;stroke-width:1;"/><text fill="#000000" font-family="sans-serif" font-size="13" lengthAdjust="spacing" textLength="155.9873" x="252.4575" y="469.1685">lastOperationOk = false</text></g><line style="stroke:#000000;stroke-width:1;stroke-dasharray:2.0,2.0;" x1="198.1914" x2="694.3262" y1="496.2344" y2="496.2344"/><g class="message" data-participant-1="SilkRoad" data-participant-2="SilkRoad"><line style="stroke:#181818;stroke-width:1;" x1="245.4575" x2="287.4575" y1="518.3672" y2="518.3672"/><line style="stroke:#181818;stroke-width:1;" x1="287.4575" x2="287.4575" y1="518.3672" y2="531.3672"/><line style="stroke:#181818;stroke-width:1;" x1="246.4575" x2="287.4575" y1="531.3672" y2="531.3672"/><polygon fill="#181818" points="256.4575,527.3672,246.4575,531.3672,256.4575,535.3672,252.4575,531.3672" style="stroke:#181818;stroke-width:1;"/><text fill="#000000" font-family="sans-serif" font-size="13" lengthAdjust="spacing" textLength="347.0835" x="252.4575" y="513.3013">moveElementToLocation(robotToMove, newLocation)</text></g><g class="message" data-participant-1="SilkRoad" data-participant-2="Robot"><polygon fill="#181818" points="594.541,556.5,604.541,560.5,594.541,564.5,598.541,560.5" style="stroke:#181818;stroke-width:1;"/><line style="stroke:#181818;stroke-width:1;" x1="245.4575" x2="600.541" y1="560.5" y2="560.5"/><text fill="#000000" font-family="sans-serif" font-size="13" lengthAdjust="spacing" textLength="167.3052" x="252.4575" y="555.4341">setLocation(newLocation)</text></g><g class="message" data-participant-1="SilkRoad" data-participant-2="Cell"><polygon fill="#181818" points="652.2422,585.6328,662.2422,589.6328,652.2422,593.6328,656.2422,589.6328" style="stroke:#181818;stroke-width:1;"/><line style="stroke:#181818;stroke-width:1;" x1="245.4575" x2="658.2422" y1="589.6328" y2="589.6328"/><text fill="#000000" font-family="sans-serif" font-size="13" lengthAdjust="spacing" textLength="296.9307" x="252.4575" y="584.5669">path.get(newLocation).occupied_robot = true</text></g><g class="message" data-participant-1="SilkRoad" data-participant-2="Cell"><polygon fill="#181818" points="652.2422,614.7656,662.2422,618.7656,652.2422,622.7656,656.2422,618.7656" style="stroke:#181818;stroke-width:1;"/><line style="stroke:#181818;stroke-width:1;" x1="245.4575" x2="658.2422" y1="618.7656" y2="618.7656"/><text fill="#000000" font-family="sans-serif" font-size="13" lengthAdjust="spacing" textLength="270.6768" x="252.4575" y="613.6997">path.get(location).occupied_robot = false</text></g><g class="message" data-participant-1="SilkRoad" data-participant-2="SilkRoad"><line style="stroke:#181818;stroke-width:1;" x1="245.4575" x2="287.4575" y1="647.8984" y2="647.8984"/><line style="stroke:#181818;stroke-width:1;" x1="287.4575" x2="287.4575" y1="647.8984" y2="660.8984"/><line style="stroke:#181818;stroke-width:1;" x1="246.4575" x2="287.4575" y1="660.8984" y2="660.8984"/><polygon fill="#181818" points="256.4575,656.8984,246.4575,660.8984,256.4575,664.8984,252.4575,660.8984" style="stroke:#181818;stroke-width:1;"/><text fill="#000000" font-family="sans-serif" font-size="13" lengthAdjust="spacing" textLength="297.54" x="252.4575" y="642.8325">checkTimesStore(newLocation, robotToMove)</text></g><g class="message" data-participant-1="SilkRoad" data-participant-2="SilkRoad"><line style="stroke:#181818;stroke-width:1;" x1="245.4575" x2="287.4575" y1="690.0313" y2="690.0313"/><line style="stroke:#181818;stroke-width:1;" x1="287.4575" x2="287.4575" y1="690.0313" y2="703.0313"/><line style="stroke:#181818;stroke-width:1;" x1="246.4575" x2="287.4575" y1="703.0313" y2="703.0313"/><polygon fill="#181818" points="256.4575,699.0313,246.4575,703.0313,256.4575,707.0313,252.4575,703.0313" style="stroke:#181818;stroke-width:1;"/><text fill="#000000" font-family="sans-serif" font-size="13" lengthAdjust="spacing" textLength="228.1729" x="252.4575" y="684.9653">checkRobotRecollect(newLocation)</text></g><g class="message" data-participant-1="SilkRoad" data-participant-2="SilkRoad"><line style="stroke:#181818;stroke-width:1;" x1="245.4575" x2="287.4575" y1="732.1641" y2="732.1641"/><line style="stroke:#181818;stroke-width:1;" x1="287.4575" x2="287.4575" y1="732.1641" y2="745.1641"/><line style="stroke:#181818;stroke-width:1;" x1="246.4575" x2="287.4575" y1="745.1641" y2="745.1641"/><polygon fill="#181818" points="256.4575,741.1641,246.4575,745.1641,256.4575,749.1641,252.4575,745.1641" style="stroke:#181818;stroke-width:1;"/><text fill="#000000" font-family="sans-serif" font-size="13" lengthAdjust="spacing" textLength="151.7407" x="252.4575" y="727.0981">lastOperationOk = true</text></g><!--SRC=[hLFHIiCm57tFLrptrE8SUnOcgFYcRcp35n79qZiNTfkK95NyBZ_17pD9jzhArefOQ2dXddFFFUU62wSDN8Rlc1NSE2bamPM3XQJjNFEiTJZNA-rQ9zT8n5Y5XxEB6WRdaEjNZ824jE1EQZM471qQcxAwh0qneNofxpmI9h3MfShQ32dZvE1HhY5frKv0bKJf4mF_724lZ5Gk6TnhsF3tgXMW0k9GhgJWGdv-A90gy_yP7wHTLCIjcnPeegRfDcZbP95X-7JW5BxTxYRncFrGSBhp9KBh0K-a3SCzS99Pqa2ckp7_e2z0WiQgGTKqc3Vkfun-NQ5rCwFNifbf8uZqHuSJiK6nZH7Ej9MX_fydwSE79RmXp55vYVk-pTqPDaD93z95_PxBegiPUa7XOeIbusupUa7N0eoq46KXCNkkjd02pfJuAnewpl5jJ8SVCP2bpD4k_9N5fgm3IVOHHMVcA3GH2jTlIcUmjGUeCkRVBm00]--></g></svg>