<svg xmlns="http://www.w3.org/2000/svg" xmlns:xlink="http://www.w3.org/1999/xlink" contentStyleType="text/css" data-diagram-type="SEQUENCE" height="672px" preserveAspectRatio="none" style="width:638px;height:672px;background:#FFFFFF;" version="1.1" viewBox="0 0 638 672" width="638px" zoomAndPan="magnify"><defs/><g><rect fill="none" height="447.3984" style="stroke:#000000;stroke-width:1.5;" width="449.8306" x="181.6978" y="127.4297"/><rect fill="none" height="46.2656" style="stroke:#000000;stroke-width:1.5;" width="389.6626" x="191.6978" y="479.4297"/><g><title>Actor0</title><rect fill="#000000" fill-opacity="0.00000" height="510.5313" width="8" x="26.9961" y="81.2969"/><line style="stroke:#181818;stroke-width:0.5;stroke-dasharray:5.0,5.0;" x1="30" x2="30" y1="81.2969" y2="591.8281"/></g><g><title>SilkRoad</title><rect fill="#000000" fill-opacity="0.00000" height="510.5313" width="8" x="234.9639" y="81.2969"/><line style="stroke:#181818;stroke-width:0.5;stroke-dasharray:5.0,5.0;" x1="238.6978" x2="238.6978" y1="81.2969" y2="591.8281"/></g><g><title>Store</title><rect fill="#000000" fill-opacity="0.00000" height="510.5313" width="8" x="541.7051" y="81.2969"/><line style="stroke:#181818;stroke-width:0.5;stroke-dasharray:5.0,5.0;" x1="545.0498" x2="545.0498" y1="81.2969" y2="591.8281"/></g><g><title>Cell</title><rect fill="#000000" fill-opacity="0.00000" height="510.5313" width="8" x="597.4443" y="81.2969"/><line style="stroke:#181818;stroke-width:0.5;stroke-dasharray:5.0,5.0;" x1="601.3604" x2="601.3604" y1="81.2969" y2="591.8281"/></g><g class="participant participant-head" data-participant="Actor0"><text fill="#000000" font-family="sans-serif" font-size="14" lengthAdjust="spacing" textLength="45.9922" x="5" y="77.9951">Actor0</text><ellipse cx="30.9961" cy="13.5" fill="#E2E2F0" rx="8" ry="8" style="stroke:#181818;stroke-width:0.5;"/><path d="M30.9961,21.5 L30.9961,48.5 M17.9961,29.5 L43.9961,29.5 M30.9961,48.5 L17.9961,63.5 M30.9961,48.5 L43.9961,63.5" fill="none" style="stroke:#181818;stroke-width:0.5;"/></g><g class="participant participant-tail" data-participant="Actor0"><text fill="#000000" font-family="sans-serif" font-size="14" lengthAdjust="spacing" textLength="45.9922" x="5" y="603.8232">Actor0</text><ellipse cx="30.9961" cy="615.625" fill="#E2E2F0" rx="8" ry="8" style="stroke:#181818;stroke-width:0.5;"/><path d="M30.9961,623.625 L30.9961,650.625 M17.9961,631.625 L43.9961,631.625 M30.9961,650.625 L17.9961,665.625 M30.9961,650.625 L43.9961,665.625" fill="none" style="stroke:#181818;stroke-width:0.5;"/></g><g class="participant participant-head" data-participant="SilkRoad"><rect fill="#E2E2F0" height="30.2969" rx="2.5" ry="2.5" style="stroke:#181818;stroke-width:0.5;" width="74.5322" x="201.6978" y="50"/><text fill="#000000" font-family="sans-serif" font-size="14" lengthAdjust="spacing" textLength="60.5322" x="208.6978" y="69.9951">SilkRoad</text></g><g class="participant participant-tail" data-participant="SilkRoad"><rect fill="#E2E2F0" height="30.2969" rx="2.5" ry="2.5" style="stroke:#181818;stroke-width:0.5;" width="74.5322" x="201.6978" y="590.8281"/><text fill="#000000" font-family="sans-serif" font-size="14" lengthAdjust="spacing" textLength="60.5322" x="208.6978" y="610.8232">SilkRoad</text></g><g class="participant participant-head" data-participant="Store"><rect fill="#E2E2F0" height="30.2969" rx="2.5" ry="2.5" style="stroke:#181818;stroke-width:0.5;" width="51.3105" x="520.0498" y="50"/><text fill="#000000" font-family="sans-serif" font-size="14" lengthAdjust="spacing" textLength="37.3105" x="527.0498" y="69.9951">Store</text></g><g class="participant participant-tail" data-participant="Store"><rect fill="#E2E2F0" height="30.2969" rx="2.5" ry="2.5" style="stroke:#181818;stroke-width:0.5;" width="51.3105" x="520.0498" y="590.8281"/><text fill="#000000" font-family="sans-serif" font-size="14" lengthAdjust="spacing" textLength="37.3105" x="527.0498" y="610.8232">Store</text></g><g class="participant participant-head" data-participant="Cell"><rect fill="#E2E2F0" height="30.2969" rx="2.5" ry="2.5" style="stroke:#181818;stroke-width:0.5;" width="40.168" x="581.3604" y="50"/><text fill="#000000" font-family="sans-serif" font-size="14" lengthAdjust="spacing" textLength="26.168" x="588.3604" y="69.9951">Cell</text></g><g class="participant participant-tail" data-participant="Cell"><rect fill="#E2E2F0" height="30.2969" rx="2.5" ry="2.5" style="stroke:#181818;stroke-width:0.5;" width="40.168" x="581.3604" y="590.8281"/><text fill="#000000" font-family="sans-serif" font-size="14" lengthAdjust="spacing" textLength="26.168" x="588.3604" y="610.8232">Cell</text></g><g class="message" data-participant-1="Actor0" data-participant-2="SilkRoad"><polygon fill="#181818" points="226.9639,108.4297,236.9639,112.4297,226.9639,116.4297,230.9639,112.4297" style="stroke:#181818;stroke-width:1;"/><line style="stroke:#181818;stroke-width:1;" x1="30.9961" x2="232.9639" y1="112.4297" y2="112.4297"/><text fill="#000000" font-family="sans-serif" font-size="13" lengthAdjust="spacing" textLength="183.9678" x="37.9961" y="107.3638">placeStore(location, tenges)</text></g><path d="M181.6978,127.4297 L246.1406,127.4297 L246.1406,134.5625 L236.1406,144.5625 L181.6978,144.5625 L181.6978,127.4297" fill="#EEEEEE" style="stroke:#000000;stroke-width:1.5;"/><rect fill="none" height="447.3984" style="stroke:#000000;stroke-width:1.5;" width="449.8306" x="181.6978" y="127.4297"/><text fill="#000000" font-family="sans-serif" font-size="13" font-weight="bold" lengthAdjust="spacing" textLength="19.4429" x="196.6978" y="140.4966">alt</text><a href="if" target="_top" title="if" xlink:actuate="onRequest" xlink:href="if" xlink:show="new" xlink:title="if" xlink:type="simple"><text fill="#0000FF" font-family="sans-serif" font-size="11" font-weight="bold" lengthAdjust="spacing" text-decoration="underline" textLength="215.7729" x="261.1406" y="139.6401">(location &lt; 0 || location &gt;= length)</text></a><g class="message" data-participant-1="SilkRoad" data-participant-2="SilkRoad"><line style="stroke:#181818;stroke-width:1;" x1="238.9639" x2="280.9639" y1="165.6953" y2="165.6953"/><line style="stroke:#181818;stroke-width:1;" x1="280.9639" x2="280.9639" y1="165.6953" y2="178.6953"/><line style="stroke:#181818;stroke-width:1;" x1="239.9639" x2="280.9639" y1="178.6953" y2="178.6953"/><polygon fill="#181818" points="249.9639,174.6953,239.9639,178.6953,249.9639,182.6953,245.9639,178.6953" style="stroke:#181818;stroke-width:1;"/><text fill="#000000" font-family="sans-serif" font-size="13" lengthAdjust="spacing" textLength="219.0703" x="245.9639" y="160.6294">print("Ubicaci&#243;n fuera del l&#237;mite")</text></g><g class="message" data-participant-1="SilkRoad" data-participant-2="SilkRoad"><line style="stroke:#181818;stroke-width:1;" x1="238.9639" x2="280.9639" y1="207.8281" y2="207.8281"/><line style="stroke:#181818;stroke-width:1;" x1="280.9639" x2="280.9639" y1="207.8281" y2="220.8281"/><line style="stroke:#181818;stroke-width:1;" x1="239.9639" x2="280.9639" y1="220.8281" y2="220.8281"/><polygon fill="#181818" points="249.9639,216.8281,239.9639,220.8281,249.9639,224.8281,245.9639,220.8281" style="stroke:#181818;stroke-width:1;"/><text fill="#000000" font-family="sans-serif" font-size="13" lengthAdjust="spacing" textLength="155.9873" x="245.9639" y="202.7622">lastOperationOk = false</text></g><line style="stroke:#000000;stroke-width:1;stroke-dasharray:2.0,2.0;" x1="181.6978" x2="631.5283" y1="229.8281" y2="229.8281"/><a href="if" target="_top" title="if" xlink:actuate="onRequest" xlink:href="if" xlink:show="new" xlink:title="if" xlink:type="simple"><text fill="#0000FF" font-family="sans-serif" font-size="11" font-weight="bold" lengthAdjust="spacing" text-decoration="underline" textLength="220.29" x="186.6978" y="240.0386">(path.get(location).occupied_store)</text></a><g class="message" data-participant-1="SilkRoad" data-participant-2="SilkRoad"><line style="stroke:#181818;stroke-width:1;" x1="238.9639" x2="280.9639" y1="264.7656" y2="264.7656"/><line style="stroke:#181818;stroke-width:1;" x1="280.9639" x2="280.9639" y1="264.7656" y2="277.7656"/><line style="stroke:#181818;stroke-width:1;" x1="239.9639" x2="280.9639" y1="277.7656" y2="277.7656"/><polygon fill="#181818" points="249.9639,273.7656,239.9639,277.7656,249.9639,281.7656,245.9639,277.7656" style="stroke:#181818;stroke-width:1;"/><text fill="#000000" font-family="sans-serif" font-size="13" lengthAdjust="spacing" textLength="176.0015" x="245.9639" y="259.6997">print("Ubicaci&#243;n ocupada")</text></g><g class="message" data-participant-1="SilkRoad" data-participant-2="SilkRoad"><line style="stroke:#181818;stroke-width:1;" x1="238.9639" x2="280.9639" y1="306.8984" y2="306.8984"/><line style="stroke:#181818;stroke-width:1;" x1="280.9639" x2="280.9639" y1="306.8984" y2="319.8984"/><line style="stroke:#181818;stroke-width:1;" x1="239.9639" x2="280.9639" y1="319.8984" y2="319.8984"/><polygon fill="#181818" points="249.9639,315.8984,239.9639,319.8984,249.9639,323.8984,245.9639,319.8984" style="stroke:#181818;stroke-width:1;"/><text fill="#000000" font-family="sans-serif" font-size="13" lengthAdjust="spacing" textLength="155.9873" x="245.9639" y="301.8325">lastOperationOk = false</text></g><line style="stroke:#000000;stroke-width:1;stroke-dasharray:2.0,2.0;" x1="181.6978" x2="631.5283" y1="328.8984" y2="328.8984"/><g class="message" data-participant-1="SilkRoad" data-participant-2="Store"><polygon fill="#181818" points="533.7051,347.0313,543.7051,351.0313,533.7051,355.0313,537.7051,351.0313" style="stroke:#181818;stroke-width:1;"/><line style="stroke:#181818;stroke-width:1;" x1="238.9639" x2="539.7051" y1="351.0313" y2="351.0313"/><text fill="#000000" font-family="sans-serif" font-size="13" lengthAdjust="spacing" textLength="179.9941" x="245.9639" y="345.9653">new Store(location, tenges)</text></g><g class="message" data-participant-1="SilkRoad" data-participant-2="SilkRoad"><line style="stroke:#181818;stroke-width:1;" x1="238.9639" x2="280.9639" y1="380.1641" y2="380.1641"/><line style="stroke:#181818;stroke-width:1;" x1="280.9639" x2="280.9639" y1="380.1641" y2="393.1641"/><line style="stroke:#181818;stroke-width:1;" x1="239.9639" x2="280.9639" y1="393.1641" y2="393.1641"/><polygon fill="#181818" points="249.9639,389.1641,239.9639,393.1641,249.9639,397.1641,245.9639,393.1641" style="stroke:#181818;stroke-width:1;"/><text fill="#000000" font-family="sans-serif" font-size="13" lengthAdjust="spacing" textLength="292.7412" x="245.9639" y="375.0981">moveElementToLocation(newStore, location)</text></g><g class="message" data-participant-1="SilkRoad" data-participant-2="Cell"><polygon fill="#181818" points="589.4443,418.2969,599.4443,422.2969,589.4443,426.2969,593.4443,422.2969" style="stroke:#181818;stroke-width:1;"/><line style="stroke:#181818;stroke-width:1;" x1="238.9639" x2="595.4443" y1="422.2969" y2="422.2969"/><text fill="#000000" font-family="sans-serif" font-size="13" lengthAdjust="spacing" textLength="264.9956" x="245.9639" y="417.231">path.get(location).occupied_store = true</text></g><g class="message" data-participant-1="SilkRoad" data-participant-2="SilkRoad"><line style="stroke:#181818;stroke-width:1;" x1="238.9639" x2="280.9639" y1="451.4297" y2="451.4297"/><line style="stroke:#181818;stroke-width:1;" x1="280.9639" x2="280.9639" y1="451.4297" y2="464.4297"/><line style="stroke:#181818;stroke-width:1;" x1="239.9639" x2="280.9639" y1="464.4297" y2="464.4297"/><polygon fill="#181818" points="249.9639,460.4297,239.9639,464.4297,249.9639,468.4297,245.9639,464.4297" style="stroke:#181818;stroke-width:1;"/><text fill="#000000" font-family="sans-serif" font-size="13" lengthAdjust="spacing" textLength="140.2007" x="245.9639" y="446.3638">stores.add(newStore)</text></g><path d="M191.6978,479.4297 L256.1406,479.4297 L256.1406,486.5625 L246.1406,496.5625 L191.6978,496.5625 L191.6978,479.4297" fill="#EEEEEE" style="stroke:#000000;stroke-width:1.5;"/><rect fill="none" height="46.2656" style="stroke:#000000;stroke-width:1.5;" width="389.6626" x="191.6978" y="479.4297"/><text fill="#000000" font-family="sans-serif" font-size="13" font-weight="bold" lengthAdjust="spacing" textLength="19.4429" x="206.6978" y="492.4966">alt</text><a href="if" target="_top" title="if" xlink:actuate="onRequest" xlink:href="if" xlink:show="new" xlink:title="if" xlink:type="simple"><text fill="#0000FF" font-family="sans-serif" font-size="11" font-weight="bold" lengthAdjust="spacing" text-decoration="underline" textLength="50.4185" x="271.1406" y="491.6401">(visible)</text></a><g class="message" data-participant-1="SilkRoad" data-participant-2="Store"><polygon fill="#181818" points="533.7051,513.6953,543.7051,517.6953,533.7051,521.6953,537.7051,517.6953" style="stroke:#181818;stroke-width:1;"/><line style="stroke:#181818;stroke-width:1;" x1="238.9639" x2="539.7051" y1="517.6953" y2="517.6953"/><text fill="#000000" font-family="sans-serif" font-size="13" lengthAdjust="spacing" textLength="89.0513" x="245.9639" y="512.6294">makeVisible()</text></g><g class="message" data-participant-1="SilkRoad" data-participant-2="SilkRoad"><line style="stroke:#181818;stroke-width:1;" x1="238.9639" x2="280.9639" y1="553.8281" y2="553.8281"/><line style="stroke:#181818;stroke-width:1;" x1="280.9639" x2="280.9639" y1="553.8281" y2="566.8281"/><line style="stroke:#181818;stroke-width:1;" x1="239.9639" x2="280.9639" y1="566.8281" y2="566.8281"/><polygon fill="#181818" points="249.9639,562.8281,239.9639,566.8281,249.9639,570.8281,245.9639,566.8281" style="stroke:#181818;stroke-width:1;"/><text fill="#000000" font-family="sans-serif" font-size="13" lengthAdjust="spacing" textLength="151.7407" x="245.9639" y="548.7622">lastOperationOk = true</text></g><!--SRC=[dP9DQiCm48NtFiMGbGsfoReqWLAwAmJwjocbJAHn8ZoMX3rEDxbILpr2BbRPRWLfY4lgXS3oVEyzFHcLk1gkktMMUAp5AEFH2ZmOBkyTwiFDC4O7EpV4d2G33nUBYC4bU4P5FP6oKoZ6sIa8sJKrMO8iy68AY9_W2cQmsq5yNyo1mx1iijS4mXELVxdKnaewULePXShiFoqKBTK8cXXu_r4PeKas9i3OoD87f7DTbZ270hcXXC8oHFGectnD4hDckLEgzORqMzETxzo4Bi2eyV-vZhakHe0ilSEfoaUyAhUbMwQAh3owksyo3MAzrZHUoh58T__T6V-gACINkgMn4FrSawFMqNdmY__ArZHcnJzrd-gWmfAUXybq422hpskwZngeBm00]--></g></svg>