<svg xmlns="http://www.w3.org/2000/svg" xmlns:xlink="http://www.w3.org/1999/xlink" contentStyleType="text/css" data-diagram-type="SEQUENCE" height="672px" preserveAspectRatio="none" style="width:595px;height:672px;background:#FFFFFF;" version="1.1" viewBox="0 0 595 672" width="595px" zoomAndPan="magnify"><defs/><g><rect fill="none" height="447.3984" style="stroke:#000000;stroke-width:1.5;" width="455.436" x="132.7192" y="127.4297"/><rect fill="none" height="46.2656" style="stroke:#000000;stroke-width:1.5;" width="395.2681" x="142.7192" y="479.4297"/><g><title>Actor0</title><rect fill="#000000" fill-opacity="0.00000" height="510.5313" width="8" x="26.9961" y="81.2969"/><line style="stroke:#181818;stroke-width:0.5;stroke-dasharray:5.0,5.0;" x1="30" x2="30" y1="81.2969" y2="591.8281"/></g><g><title>SilkRoad</title><rect fill="#000000" fill-opacity="0.00000" height="510.5313" width="8" x="185.9854" y="81.2969"/><line style="stroke:#181818;stroke-width:0.5;stroke-dasharray:5.0,5.0;" x1="189.7192" x2="189.7192" y1="81.2969" y2="591.8281"/></g><g><title>Robot</title><rect fill="#000000" fill-opacity="0.00000" height="510.5313" width="8" x="496.3701" y="81.2969"/><line style="stroke:#181818;stroke-width:0.5;stroke-dasharray:5.0,5.0;" x1="499.7529" x2="499.7529" y1="81.2969" y2="591.8281"/></g><g><title>Cell</title><rect fill="#000000" fill-opacity="0.00000" height="510.5313" width="8" x="554.0713" y="81.2969"/><line style="stroke:#181818;stroke-width:0.5;stroke-dasharray:5.0,5.0;" x1="557.9873" x2="557.9873" y1="81.2969" y2="591.8281"/></g><g class="participant participant-head" data-participant="Actor0"><text fill="#000000" font-family="sans-serif" font-size="14" lengthAdjust="spacing" textLength="45.9922" x="5" y="77.9951">Actor0</text><ellipse cx="30.9961" cy="13.5" fill="#E2E2F0" rx="8" ry="8" style="stroke:#181818;stroke-width:0.5;"/><path d="M30.9961,21.5 L30.9961,48.5 M17.9961,29.5 L43.9961,29.5 M30.9961,48.5 L17.9961,63.5 M30.9961,48.5 L43.9961,63.5" fill="none" style="stroke:#181818;stroke-width:0.5;"/></g><g class="participant participant-tail" data-participant="Actor0"><text fill="#000000" font-family="sans-serif" font-size="14" lengthAdjust="spacing" textLength="45.9922" x="5" y="603.8232">Actor0</text><ellipse cx="30.9961" cy="615.625" fill="#E2E2F0" rx="8" ry="8" style="stroke:#181818;stroke-width:0.5;"/><path d="M30.9961,623.625 L30.9961,650.625 M17.9961,631.625 L43.9961,631.625 M30.9961,650.625 L17.9961,665.625 M30.9961,650.625 L43.9961,665.625" fill="none" style="stroke:#181818;stroke-width:0.5;"/></g><g class="participant participant-head" data-participant="SilkRoad"><rect fill="#E2E2F0" height="30.2969" rx="2.5" ry="2.5" style="stroke:#181818;stroke-width:0.5;" width="74.5322" x="152.7192" y="50"/><text fill="#000000" font-family="sans-serif" font-size="14" lengthAdjust="spacing" textLength="60.5322" x="159.7192" y="69.9951">SilkRoad</text></g><g class="participant participant-tail" data-participant="SilkRoad"><rect fill="#E2E2F0" height="30.2969" rx="2.5" ry="2.5" style="stroke:#181818;stroke-width:0.5;" width="74.5322" x="152.7192" y="590.8281"/><text fill="#000000" font-family="sans-serif" font-size="14" lengthAdjust="spacing" textLength="60.5322" x="159.7192" y="610.8232">SilkRoad</text></g><g class="participant participant-head" data-participant="Robot"><rect fill="#E2E2F0" height="30.2969" rx="2.5" ry="2.5" style="stroke:#181818;stroke-width:0.5;" width="55.2344" x="472.7529" y="50"/><text fill="#000000" font-family="sans-serif" font-size="14" lengthAdjust="spacing" textLength="41.2344" x="479.7529" y="69.9951">Robot</text></g><g class="participant participant-tail" data-participant="Robot"><rect fill="#E2E2F0" height="30.2969" rx="2.5" ry="2.5" style="stroke:#181818;stroke-width:0.5;" width="55.2344" x="472.7529" y="590.8281"/><text fill="#000000" font-family="sans-serif" font-size="14" lengthAdjust="spacing" textLength="41.2344" x="479.7529" y="610.8232">Robot</text></g><g class="participant participant-head" data-participant="Cell"><rect fill="#E2E2F0" height="30.2969" rx="2.5" ry="2.5" style="stroke:#181818;stroke-width:0.5;" width="40.168" x="537.9873" y="50"/><text fill="#000000" font-family="sans-serif" font-size="14" lengthAdjust="spacing" textLength="26.168" x="544.9873" y="69.9951">Cell</text></g><g class="participant participant-tail" data-participant="Cell"><rect fill="#E2E2F0" height="30.2969" rx="2.5" ry="2.5" style="stroke:#181818;stroke-width:0.5;" width="40.168" x="537.9873" y="590.8281"/><text fill="#000000" font-family="sans-serif" font-size="14" lengthAdjust="spacing" textLength="26.168" x="544.9873" y="610.8232">Cell</text></g><g class="message" data-participant-1="Actor0" data-participant-2="SilkRoad"><polygon fill="#181818" points="177.9854,108.4297,187.9854,112.4297,177.9854,116.4297,181.9854,112.4297" style="stroke:#181818;stroke-width:1;"/><line style="stroke:#181818;stroke-width:1;" x1="30.9961" x2="183.9854" y1="112.4297" y2="112.4297"/><text fill="#000000" font-family="sans-serif" font-size="13" lengthAdjust="spacing" textLength="134.9893" x="37.9961" y="107.3638">placeRobot(location)</text></g><path d="M132.7192,127.4297 L197.1621,127.4297 L197.1621,134.5625 L187.1621,144.5625 L132.7192,144.5625 L132.7192,127.4297" fill="#EEEEEE" style="stroke:#000000;stroke-width:1.5;"/><rect fill="none" height="447.3984" style="stroke:#000000;stroke-width:1.5;" width="455.436" x="132.7192" y="127.4297"/><text fill="#000000" font-family="sans-serif" font-size="13" font-weight="bold" lengthAdjust="spacing" textLength="19.4429" x="147.7192" y="140.4966">alt</text><a href="if" target="_top" title="if" xlink:actuate="onRequest" xlink:href="if" xlink:show="new" xlink:title="if" xlink:type="simple"><text fill="#0000FF" font-family="sans-serif" font-size="11" font-weight="bold" lengthAdjust="spacing" text-decoration="underline" textLength="215.7729" x="212.1621" y="139.6401">(location &lt; 0 || location &gt;= length)</text></a><g class="message" data-participant-1="SilkRoad" data-participant-2="SilkRoad"><line style="stroke:#181818;stroke-width:1;" x1="189.9854" x2="231.9854" y1="165.6953" y2="165.6953"/><line style="stroke:#181818;stroke-width:1;" x1="231.9854" x2="231.9854" y1="165.6953" y2="178.6953"/><line style="stroke:#181818;stroke-width:1;" x1="190.9854" x2="231.9854" y1="178.6953" y2="178.6953"/><polygon fill="#181818" points="200.9854,174.6953,190.9854,178.6953,200.9854,182.6953,196.9854,178.6953" style="stroke:#181818;stroke-width:1;"/><text fill="#000000" font-family="sans-serif" font-size="13" lengthAdjust="spacing" textLength="219.0703" x="196.9854" y="160.6294">print("Ubicaci&#243;n fuera del l&#237;mite")</text></g><g class="message" data-participant-1="SilkRoad" data-participant-2="SilkRoad"><line style="stroke:#181818;stroke-width:1;" x1="189.9854" x2="231.9854" y1="207.8281" y2="207.8281"/><line style="stroke:#181818;stroke-width:1;" x1="231.9854" x2="231.9854" y1="207.8281" y2="220.8281"/><line style="stroke:#181818;stroke-width:1;" x1="190.9854" x2="231.9854" y1="220.8281" y2="220.8281"/><polygon fill="#181818" points="200.9854,216.8281,190.9854,220.8281,200.9854,224.8281,196.9854,220.8281" style="stroke:#181818;stroke-width:1;"/><text fill="#000000" font-family="sans-serif" font-size="13" lengthAdjust="spacing" textLength="155.9873" x="196.9854" y="202.7622">lastOperationOk = false</text></g><line style="stroke:#000000;stroke-width:1;stroke-dasharray:2.0,2.0;" x1="132.7192" x2="588.1553" y1="229.8281" y2="229.8281"/><a href="if" target="_top" title="if" xlink:actuate="onRequest" xlink:href="if" xlink:show="new" xlink:title="if" xlink:type="simple"><text fill="#0000FF" font-family="sans-serif" font-size="11" font-weight="bold" lengthAdjust="spacing" text-decoration="underline" textLength="221.7134" x="137.7192" y="240.0386">(path.get(location).occupied_robot)</text></a><g class="message" data-participant-1="SilkRoad" data-participant-2="SilkRoad"><line style="stroke:#181818;stroke-width:1;" x1="189.9854" x2="231.9854" y1="264.7656" y2="264.7656"/><line style="stroke:#181818;stroke-width:1;" x1="231.9854" x2="231.9854" y1="264.7656" y2="277.7656"/><line style="stroke:#181818;stroke-width:1;" x1="190.9854" x2="231.9854" y1="277.7656" y2="277.7656"/><polygon fill="#181818" points="200.9854,273.7656,190.9854,277.7656,200.9854,281.7656,196.9854,277.7656" style="stroke:#181818;stroke-width:1;"/><text fill="#000000" font-family="sans-serif" font-size="13" lengthAdjust="spacing" textLength="176.0015" x="196.9854" y="259.6997">print("Ubicaci&#243;n ocupada")</text></g><g class="message" data-participant-1="SilkRoad" data-participant-2="SilkRoad"><line style="stroke:#181818;stroke-width:1;" x1="189.9854" x2="231.9854" y1="306.8984" y2="306.8984"/><line style="stroke:#181818;stroke-width:1;" x1="231.9854" x2="231.9854" y1="306.8984" y2="319.8984"/><line style="stroke:#181818;stroke-width:1;" x1="190.9854" x2="231.9854" y1="319.8984" y2="319.8984"/><polygon fill="#181818" points="200.9854,315.8984,190.9854,319.8984,200.9854,323.8984,196.9854,319.8984" style="stroke:#181818;stroke-width:1;"/><text fill="#000000" font-family="sans-serif" font-size="13" lengthAdjust="spacing" textLength="155.9873" x="196.9854" y="301.8325">lastOperationOk = false</text></g><line style="stroke:#000000;stroke-width:1;stroke-dasharray:2.0,2.0;" x1="132.7192" x2="588.1553" y1="328.8984" y2="328.8984"/><g class="message" data-participant-1="SilkRoad" data-participant-2="Robot"><polygon fill="#181818" points="488.3701,347.0313,498.3701,351.0313,488.3701,355.0313,492.3701,351.0313" style="stroke:#181818;stroke-width:1;"/><line style="stroke:#181818;stroke-width:1;" x1="189.9854" x2="494.3701" y1="351.0313" y2="351.0313"/><text fill="#000000" font-family="sans-serif" font-size="13" lengthAdjust="spacing" textLength="131.0156" x="196.9854" y="345.9653">new Robot(location)</text></g><g class="message" data-participant-1="SilkRoad" data-participant-2="SilkRoad"><line style="stroke:#181818;stroke-width:1;" x1="189.9854" x2="231.9854" y1="380.1641" y2="380.1641"/><line style="stroke:#181818;stroke-width:1;" x1="231.9854" x2="231.9854" y1="380.1641" y2="393.1641"/><line style="stroke:#181818;stroke-width:1;" x1="190.9854" x2="231.9854" y1="393.1641" y2="393.1641"/><polygon fill="#181818" points="200.9854,389.1641,190.9854,393.1641,200.9854,397.1641,196.9854,393.1641" style="stroke:#181818;stroke-width:1;"/><text fill="#000000" font-family="sans-serif" font-size="13" lengthAdjust="spacing" textLength="296.3848" x="196.9854" y="375.0981">moveElementToLocation(newRobot, location)</text></g><g class="message" data-participant-1="SilkRoad" data-participant-2="Cell"><polygon fill="#181818" points="546.0713,418.2969,556.0713,422.2969,546.0713,426.2969,550.0713,422.2969" style="stroke:#181818;stroke-width:1;"/><line style="stroke:#181818;stroke-width:1;" x1="189.9854" x2="552.0713" y1="422.2969" y2="422.2969"/><text fill="#000000" font-family="sans-serif" font-size="13" lengthAdjust="spacing" textLength="266.4302" x="196.9854" y="417.231">path.get(location).occupied_robot = true</text></g><g class="message" data-participant-1="SilkRoad" data-participant-2="SilkRoad"><line style="stroke:#181818;stroke-width:1;" x1="189.9854" x2="231.9854" y1="451.4297" y2="451.4297"/><line style="stroke:#181818;stroke-width:1;" x1="231.9854" x2="231.9854" y1="451.4297" y2="464.4297"/><line style="stroke:#181818;stroke-width:1;" x1="190.9854" x2="231.9854" y1="464.4297" y2="464.4297"/><polygon fill="#181818" points="200.9854,460.4297,190.9854,464.4297,200.9854,468.4297,196.9854,464.4297" style="stroke:#181818;stroke-width:1;"/><text fill="#000000" font-family="sans-serif" font-size="13" lengthAdjust="spacing" textLength="145.2788" x="196.9854" y="446.3638">robots.add(newRobot)</text></g><path d="M142.7192,479.4297 L207.1621,479.4297 L207.1621,486.5625 L197.1621,496.5625 L142.7192,496.5625 L142.7192,479.4297" fill="#EEEEEE" style="stroke:#000000;stroke-width:1.5;"/><rect fill="none" height="46.2656" style="stroke:#000000;stroke-width:1.5;" width="395.2681" x="142.7192" y="479.4297"/><text fill="#000000" font-family="sans-serif" font-size="13" font-weight="bold" lengthAdjust="spacing" textLength="19.4429" x="157.7192" y="492.4966">alt</text><a href="if" target="_top" title="if" xlink:actuate="onRequest" xlink:href="if" xlink:show="new" xlink:title="if" xlink:type="simple"><text fill="#0000FF" font-family="sans-serif" font-size="11" font-weight="bold" lengthAdjust="spacing" text-decoration="underline" textLength="50.4185" x="222.1621" y="491.6401">(visible)</text></a><g class="message" data-participant-1="SilkRoad" data-participant-2="Robot"><polygon fill="#181818" points="488.3701,513.6953,498.3701,517.6953,488.3701,521.6953,492.3701,517.6953" style="stroke:#181818;stroke-width:1;"/><line style="stroke:#181818;stroke-width:1;" x1="189.9854" x2="494.3701" y1="517.6953" y2="517.6953"/><text fill="#000000" font-family="sans-serif" font-size="13" lengthAdjust="spacing" textLength="89.0513" x="196.9854" y="512.6294">makeVisible()</text></g><g class="message" data-participant-1="SilkRoad" data-participant-2="SilkRoad"><line style="stroke:#181818;stroke-width:1;" x1="189.9854" x2="231.9854" y1="553.8281" y2="553.8281"/><line style="stroke:#181818;stroke-width:1;" x1="231.9854" x2="231.9854" y1="553.8281" y2="566.8281"/><line style="stroke:#181818;stroke-width:1;" x1="190.9854" x2="231.9854" y1="566.8281" y2="566.8281"/><polygon fill="#181818" points="200.9854,562.8281,190.9854,566.8281,200.9854,570.8281,196.9854,566.8281" style="stroke:#181818;stroke-width:1;"/><text fill="#000000" font-family="sans-serif" font-size="13" lengthAdjust="spacing" textLength="151.7407" x="196.9854" y="548.7622">lastOperationOk = true</text></g><!--SRC=[dP9DQiCm48NtFiMGbGsjoReqWLAwAmJIdqqfPIoD4-6nPEnnkicLkkeHSh7ATX1DIXnIBGGQzBrvyoHKucguw_PfL64jHfaAhS2JuMBfK1yKbovpSb2v9-Oe6dYudWSCRg1YLDGJCJk5OfnD8cI1DvD3AC4jJ66xXN2Upu39hcITl4VWLr0yKg-DbNZoaXc5oko-BUGjrGYQ67ZtLHgXIJ8cmDZ8el98rtLHm0nov8OYyjjWiK9PfolwPJzrIhML8VrHTtDTwj1v63N-tzSVhe_NGvO-uJZgaHwbsz03KqbMdjtZdeYzIAzn1QT5klVkPZiNZRSjTKjZ9lfxJOfQXyv3l_17DgOn6TC-vbEpbrZGwt0p7WJ8wiiIxgrwwWS0]--></g></svg>