<svg xmlns="http://www.w3.org/2000/svg" xmlns:xlink="http://www.w3.org/1999/xlink" contentStyleType="text/css" data-diagram-type="SEQUENCE" height="736px" preserveAspectRatio="none" style="width:645px;height:736px;background:#FFFFFF;" version="1.1" viewBox="0 0 645 736" width="645px" zoomAndPan="magnify"><defs/><g><rect fill="none" height="101.3984" style="stroke:#000000;stroke-width:1.5;" width="296.2837" x="174.7178" y="127.4297"/><rect fill="none" height="227.7969" style="stroke:#000000;stroke-width:1.5;" width="464.5229" x="174.7178" y="411.3594"/><g><title>Actor0</title><rect fill="#000000" fill-opacity="0.00000" height="574.8594" width="8" x="26.9961" y="81.2969"/><line style="stroke:#181818;stroke-width:0.5;stroke-dasharray:5.0,5.0;" x1="30" x2="30" y1="81.2969" y2="656.1563"/></g><g><title>SilkRoad</title><rect fill="#000000" fill-opacity="0.00000" height="574.8594" width="8" x="217.9839" y="81.2969"/><line style="stroke:#181818;stroke-width:0.5;stroke-dasharray:5.0,5.0;" x1="221.7178" x2="221.7178" y1="81.2969" y2="656.1563"/></g><g><title>Board</title><rect fill="#000000" fill-opacity="0.00000" height="574.8594" width="8" x="503.5366" y="81.2969"/><line style="stroke:#181818;stroke-width:0.5;stroke-dasharray:5.0,5.0;" x1="506.8408" x2="506.8408" y1="81.2969" y2="656.1563"/></g><g class="participant participant-head" data-participant="Actor0"><text fill="#000000" font-family="sans-serif" font-size="14" lengthAdjust="spacing" textLength="45.9922" x="5" y="77.9951">Actor0</text><ellipse cx="30.9961" cy="13.5" fill="#E2E2F0" rx="8" ry="8" style="stroke:#181818;stroke-width:0.5;"/><path d="M30.9961,21.5 L30.9961,48.5 M17.9961,29.5 L43.9961,29.5 M30.9961,48.5 L17.9961,63.5 M30.9961,48.5 L43.9961,63.5" fill="none" style="stroke:#181818;stroke-width:0.5;"/></g><g class="participant participant-tail" data-participant="Actor0"><text fill="#000000" font-family="sans-serif" font-size="14" lengthAdjust="spacing" textLength="45.9922" x="5" y="668.1514">Actor0</text><ellipse cx="30.9961" cy="679.9531" fill="#E2E2F0" rx="8" ry="8" style="stroke:#181818;stroke-width:0.5;"/><path d="M30.9961,687.9531 L30.9961,714.9531 M17.9961,695.9531 L43.9961,695.9531 M30.9961,714.9531 L17.9961,729.9531 M30.9961,714.9531 L43.9961,729.9531" fill="none" style="stroke:#181818;stroke-width:0.5;"/></g><g class="participant participant-head" data-participant="SilkRoad"><rect fill="#E2E2F0" height="30.2969" rx="2.5" ry="2.5" style="stroke:#181818;stroke-width:0.5;" width="74.5322" x="184.7178" y="50"/><text fill="#000000" font-family="sans-serif" font-size="14" lengthAdjust="spacing" textLength="60.5322" x="191.7178" y="69.9951">SilkRoad</text></g><g class="participant participant-tail" data-participant="SilkRoad"><rect fill="#E2E2F0" height="30.2969" rx="2.5" ry="2.5" style="stroke:#181818;stroke-width:0.5;" width="74.5322" x="184.7178" y="655.1563"/><text fill="#000000" font-family="sans-serif" font-size="14" lengthAdjust="spacing" textLength="60.5322" x="191.7178" y="675.1514">SilkRoad</text></g><g class="participant participant-head" data-participant="Board"><rect fill="#E2E2F0" height="30.2969" rx="2.5" ry="2.5" style="stroke:#181818;stroke-width:0.5;" width="55.3916" x="479.8408" y="50"/><text fill="#000000" font-family="sans-serif" font-size="14" lengthAdjust="spacing" textLength="41.3916" x="486.8408" y="69.9951">Board</text></g><g class="participant participant-tail" data-participant="Board"><rect fill="#E2E2F0" height="30.2969" rx="2.5" ry="2.5" style="stroke:#181818;stroke-width:0.5;" width="55.3916" x="479.8408" y="655.1563"/><text fill="#000000" font-family="sans-serif" font-size="14" lengthAdjust="spacing" textLength="41.3916" x="486.8408" y="675.1514">Board</text></g><g class="message" data-participant-1="Actor0" data-participant-2="SilkRoad"><polygon fill="#181818" points="209.9839,108.4297,219.9839,112.4297,209.9839,116.4297,213.9839,112.4297" style="stroke:#181818;stroke-width:1;"/><line style="stroke:#181818;stroke-width:1;" x1="30.9961" x2="215.9839" y1="112.4297" y2="112.4297"/><text fill="#000000" font-family="sans-serif" font-size="13" lengthAdjust="spacing" textLength="166.9878" x="37.9961" y="107.3638">preGrowToVisibleTarget()</text></g><path d="M174.7178,127.4297 L251.3418,127.4297 L251.3418,134.5625 L241.3418,144.5625 L174.7178,144.5625 L174.7178,127.4297" fill="#EEEEEE" style="stroke:#000000;stroke-width:1.5;"/><rect fill="none" height="101.3984" style="stroke:#000000;stroke-width:1.5;" width="296.2837" x="174.7178" y="127.4297"/><text fill="#000000" font-family="sans-serif" font-size="13" font-weight="bold" lengthAdjust="spacing" textLength="31.624" x="189.7178" y="140.4966">loop</text><a href="for" target="_top" title="for" xlink:actuate="onRequest" xlink:href="for" xlink:show="new" xlink:title="for" xlink:type="simple"><text fill="#0000FF" font-family="sans-serif" font-size="11" font-weight="bold" lengthAdjust="spacing" text-decoration="underline" textLength="199.6597" x="266.3418" y="139.6401">(int i = 0; i &lt; visibleTarget; i++)</text></a><g class="message" data-participant-1="SilkRoad" data-participant-2="SilkRoad"><line style="stroke:#181818;stroke-width:1;" x1="221.9839" x2="263.9839" y1="165.6953" y2="165.6953"/><line style="stroke:#181818;stroke-width:1;" x1="263.9839" x2="263.9839" y1="165.6953" y2="178.6953"/><line style="stroke:#181818;stroke-width:1;" x1="222.9839" x2="263.9839" y1="178.6953" y2="178.6953"/><polygon fill="#181818" points="232.9839,174.6953,222.9839,178.6953,232.9839,182.6953,228.9839,178.6953" style="stroke:#181818;stroke-width:1;"/><text fill="#000000" font-family="sans-serif" font-size="13" lengthAdjust="spacing" textLength="158.2344" x="228.9839" y="160.6294">rc = locationToCoords(i)</text></g><g class="message" data-participant-1="SilkRoad" data-participant-2="SilkRoad"><line style="stroke:#181818;stroke-width:1;" x1="221.9839" x2="263.9839" y1="207.8281" y2="207.8281"/><line style="stroke:#181818;stroke-width:1;" x1="263.9839" x2="263.9839" y1="207.8281" y2="220.8281"/><line style="stroke:#181818;stroke-width:1;" x1="222.9839" x2="263.9839" y1="220.8281" y2="220.8281"/><polygon fill="#181818" points="232.9839,216.8281,222.9839,220.8281,232.9839,224.8281,228.9839,220.8281" style="stroke:#181818;stroke-width:1;"/><text fill="#000000" font-family="sans-serif" font-size="13" lengthAdjust="spacing" textLength="216.6265" x="228.9839" y="202.7622">update minR, maxR, minC, maxC</text></g><g class="message" data-participant-1="SilkRoad" data-participant-2="SilkRoad"><line style="stroke:#181818;stroke-width:1;" x1="221.9839" x2="263.9839" y1="256.9609" y2="256.9609"/><line style="stroke:#181818;stroke-width:1;" x1="263.9839" x2="263.9839" y1="256.9609" y2="269.9609"/><line style="stroke:#181818;stroke-width:1;" x1="222.9839" x2="263.9839" y1="269.9609" y2="269.9609"/><polygon fill="#181818" points="232.9839,265.9609,222.9839,269.9609,232.9839,273.9609,228.9839,269.9609" style="stroke:#181818;stroke-width:1;"/><text fill="#000000" font-family="sans-serif" font-size="13" lengthAdjust="spacing" textLength="122.0273" x="228.9839" y="251.895">originRow = -minR</text></g><g class="message" data-participant-1="SilkRoad" data-participant-2="SilkRoad"><line style="stroke:#181818;stroke-width:1;" x1="221.9839" x2="263.9839" y1="299.0938" y2="299.0938"/><line style="stroke:#181818;stroke-width:1;" x1="263.9839" x2="263.9839" y1="299.0938" y2="312.0938"/><line style="stroke:#181818;stroke-width:1;" x1="222.9839" x2="263.9839" y1="312.0938" y2="312.0938"/><polygon fill="#181818" points="232.9839,308.0938,222.9839,312.0938,232.9839,316.0938,228.9839,312.0938" style="stroke:#181818;stroke-width:1;"/><text fill="#000000" font-family="sans-serif" font-size="13" lengthAdjust="spacing" textLength="115.0957" x="228.9839" y="294.0278">originCol = -minC</text></g><g class="message" data-participant-1="SilkRoad" data-participant-2="SilkRoad"><line style="stroke:#181818;stroke-width:1;" x1="221.9839" x2="263.9839" y1="341.2266" y2="341.2266"/><line style="stroke:#181818;stroke-width:1;" x1="263.9839" x2="263.9839" y1="341.2266" y2="354.2266"/><line style="stroke:#181818;stroke-width:1;" x1="222.9839" x2="263.9839" y1="354.2266" y2="354.2266"/><polygon fill="#181818" points="232.9839,350.2266,222.9839,354.2266,232.9839,358.2266,228.9839,354.2266" style="stroke:#181818;stroke-width:1;"/><text fill="#000000" font-family="sans-serif" font-size="13" lengthAdjust="spacing" textLength="197.3232" x="228.9839" y="336.1606">needRows = maxR - minR + 1</text></g><g class="message" data-participant-1="SilkRoad" data-participant-2="SilkRoad"><line style="stroke:#181818;stroke-width:1;" x1="221.9839" x2="263.9839" y1="383.3594" y2="383.3594"/><line style="stroke:#181818;stroke-width:1;" x1="263.9839" x2="263.9839" y1="383.3594" y2="396.3594"/><line style="stroke:#181818;stroke-width:1;" x1="222.9839" x2="263.9839" y1="396.3594" y2="396.3594"/><polygon fill="#181818" points="232.9839,392.3594,222.9839,396.3594,232.9839,400.3594,228.9839,396.3594" style="stroke:#181818;stroke-width:1;"/><text fill="#000000" font-family="sans-serif" font-size="13" lengthAdjust="spacing" textLength="190.436" x="228.9839" y="378.2935">needCols = maxC - minC + 1</text></g><path d="M174.7178,411.3594 L239.1606,411.3594 L239.1606,418.4922 L229.1606,428.4922 L174.7178,428.4922 L174.7178,411.3594" fill="#EEEEEE" style="stroke:#000000;stroke-width:1.5;"/><rect fill="none" height="227.7969" style="stroke:#000000;stroke-width:1.5;" width="464.5229" x="174.7178" y="411.3594"/><text fill="#000000" font-family="sans-serif" font-size="13" font-weight="bold" lengthAdjust="spacing" textLength="19.4429" x="189.7178" y="424.4263">alt</text><a href="if" target="_top" title="if" xlink:actuate="onRequest" xlink:href="if" xlink:show="new" xlink:title="if" xlink:type="simple"><text fill="#0000FF" font-family="sans-serif" font-size="11" font-weight="bold" lengthAdjust="spacing" text-decoration="underline" textLength="380.0801" x="254.1606" y="423.5698">(needRows &gt; board.getRows() || needCols &gt; board.getCols())</text></a><g class="message" data-participant-1="SilkRoad" data-participant-2="SilkRoad"><line style="stroke:#181818;stroke-width:1;" x1="221.9839" x2="263.9839" y1="449.625" y2="449.625"/><line style="stroke:#181818;stroke-width:1;" x1="263.9839" x2="263.9839" y1="449.625" y2="462.625"/><line style="stroke:#181818;stroke-width:1;" x1="222.9839" x2="263.9839" y1="462.625" y2="462.625"/><polygon fill="#181818" points="232.9839,458.625,222.9839,462.625,232.9839,466.625,228.9839,462.625" style="stroke:#181818;stroke-width:1;"/><text fill="#000000" font-family="sans-serif" font-size="13" lengthAdjust="spacing" textLength="141.8257" x="228.9839" y="444.5591">board.makeInvisible()</text></g><g class="message" data-participant-1="SilkRoad" data-participant-2="SilkRoad"><line style="stroke:#181818;stroke-width:1;" x1="221.9839" x2="263.9839" y1="491.7578" y2="491.7578"/><line style="stroke:#181818;stroke-width:1;" x1="263.9839" x2="263.9839" y1="491.7578" y2="504.7578"/><line style="stroke:#181818;stroke-width:1;" x1="222.9839" x2="263.9839" y1="504.7578" y2="504.7578"/><polygon fill="#181818" points="232.9839,500.7578,222.9839,504.7578,232.9839,508.7578,228.9839,504.7578" style="stroke:#181818;stroke-width:1;"/><text fill="#000000" font-family="sans-serif" font-size="13" lengthAdjust="spacing" textLength="271.5527" x="228.9839" y="486.6919">board = new Board(needRows, needCols)</text></g><g class="message" data-participant-1="SilkRoad" data-participant-2="SilkRoad"><line style="stroke:#181818;stroke-width:1;" x1="221.9839" x2="263.9839" y1="533.8906" y2="533.8906"/><line style="stroke:#181818;stroke-width:1;" x1="263.9839" x2="263.9839" y1="533.8906" y2="546.8906"/><line style="stroke:#181818;stroke-width:1;" x1="222.9839" x2="263.9839" y1="546.8906" y2="546.8906"/><polygon fill="#181818" points="232.9839,542.8906,222.9839,546.8906,232.9839,550.8906,228.9839,546.8906" style="stroke:#181818;stroke-width:1;"/><text fill="#000000" font-family="sans-serif" font-size="13" lengthAdjust="spacing" textLength="130.9521" x="228.9839" y="528.8247">board.makeVisible()</text></g><g class="message" data-participant-1="SilkRoad" data-participant-2="SilkRoad"><line style="stroke:#181818;stroke-width:1;" x1="221.9839" x2="263.9839" y1="576.0234" y2="576.0234"/><line style="stroke:#181818;stroke-width:1;" x1="263.9839" x2="263.9839" y1="576.0234" y2="589.0234"/><line style="stroke:#181818;stroke-width:1;" x1="222.9839" x2="263.9839" y1="589.0234" y2="589.0234"/><polygon fill="#181818" points="232.9839,585.0234,222.9839,589.0234,232.9839,593.0234,228.9839,589.0234" style="stroke:#181818;stroke-width:1;"/><text fill="#000000" font-family="sans-serif" font-size="13" lengthAdjust="spacing" textLength="99.2075" x="228.9839" y="570.9575">resyncVisuals()</text></g><g class="message" data-participant-1="SilkRoad" data-participant-2="SilkRoad"><line style="stroke:#181818;stroke-width:1;" x1="221.9839" x2="263.9839" y1="618.1563" y2="618.1563"/><line style="stroke:#181818;stroke-width:1;" x1="263.9839" x2="263.9839" y1="618.1563" y2="631.1563"/><line style="stroke:#181818;stroke-width:1;" x1="222.9839" x2="263.9839" y1="631.1563" y2="631.1563"/><polygon fill="#181818" points="232.9839,627.1563,222.9839,631.1563,232.9839,635.1563,228.9839,631.1563" style="stroke:#181818;stroke-width:1;"/><text fill="#000000" font-family="sans-serif" font-size="13" lengthAdjust="spacing" textLength="186.583" x="228.9839" y="613.0903">layoutProfitBarAboveBoard()</text></g><!--SRC=[ZP8zRy8m48Pt_ueRRG4LNVibWOUgMqKH2-fm90QTCBx8CL0aVdpF1AKmaEB1ZfttUU_r1nQ98unoFrGLnaG5LHWIV95VJnZBgyKnOooLQkGmU6jLy0HLTE-HzrEUKKqBxwOOLovfepnp1VEbbD4a7WIlC7oMuGLsbqfPwlNCjm9fhUrrYLW8wxd0H1ocR9bZMMioNSosAZ4vs52Oz663FxcdO4_VLhaWsxb1SgILKBoNeeFCTmij-xFGtX86vqhngqMNay3W50jwyDX5YF6Pi0rXJuH2ds1EIz2jxHiiyWKzo6dckJPmFFvPNFpDSssw3xiHRt3jFiBvehJv5v2WmUsRXz86wxSXp7qLP_VKYwu-X4AaMyoxwP9wFF0sVKPUKXfZ72ruvvg89Z-1Nm00]--></g></svg>