<svg xmlns="http://www.w3.org/2000/svg" xmlns:xlink="http://www.w3.org/1999/xlink" contentStyleType="text/css" data-diagram-type="SEQUENCE" height="440px" preserveAspectRatio="none" style="width:370px;height:440px;background:#FFFFFF;" version="1.1" viewBox="0 0 370 440" width="370px" zoomAndPan="magnify"><defs/><g><rect fill="none" height="46.2656" style="stroke:#000000;stroke-width:1.5;" width="248.6621" x="60.4727" y="127.4297"/><g><title>Actor0</title><rect fill="#000000" fill-opacity="0.00000" height="277.9297" width="8" x="26.9961" y="81.2969"/><line style="stroke:#181818;stroke-width:0.5;stroke-dasharray:5.0,5.0;" x1="30" x2="30" y1="81.2969" y2="359.2266"/></g><g><title>SilkRoad</title><rect fill="#000000" fill-opacity="0.00000" height="277.9297" width="8" x="103.7388" y="81.2969"/><line style="stroke:#181818;stroke-width:0.5;stroke-dasharray:5.0,5.0;" x1="107.4727" x2="107.4727" y1="81.2969" y2="359.2266"/></g><g><title>Store</title><rect fill="#000000" fill-opacity="0.00000" height="277.9297" width="8" x="269.4795" y="81.2969"/><line style="stroke:#181818;stroke-width:0.5;stroke-dasharray:5.0,5.0;" x1="272.8242" x2="272.8242" y1="81.2969" y2="359.2266"/></g><g><title>Robot</title><rect fill="#000000" fill-opacity="0.00000" height="277.9297" width="8" x="332.752" y="81.2969"/><line style="stroke:#181818;stroke-width:0.5;stroke-dasharray:5.0,5.0;" x1="336.1348" x2="336.1348" y1="81.2969" y2="359.2266"/></g><g class="participant participant-head" data-participant="Actor0"><text fill="#000000" font-family="sans-serif" font-size="14" lengthAdjust="spacing" textLength="45.9922" x="5" y="77.9951">Actor0</text><ellipse cx="30.9961" cy="13.5" fill="#E2E2F0" rx="8" ry="8" style="stroke:#181818;stroke-width:0.5;"/><path d="M30.9961,21.5 L30.9961,48.5 M17.9961,29.5 L43.9961,29.5 M30.9961,48.5 L17.9961,63.5 M30.9961,48.5 L43.9961,63.5" fill="none" style="stroke:#181818;stroke-width:0.5;"/></g><g class="participant participant-tail" data-participant="Actor0"><text fill="#000000" font-family="sans-serif" font-size="14" lengthAdjust="spacing" textLength="45.9922" x="5" y="371.2217">Actor0</text><ellipse cx="30.9961" cy="383.0234" fill="#E2E2F0" rx="8" ry="8" style="stroke:#181818;stroke-width:0.5;"/><path d="M30.9961,391.0234 L30.9961,418.0234 M17.9961,399.0234 L43.9961,399.0234 M30.9961,418.0234 L17.9961,433.0234 M30.9961,418.0234 L43.9961,433.0234" fill="none" style="stroke:#181818;stroke-width:0.5;"/></g><g class="participant participant-head" data-participant="SilkRoad"><rect fill="#E2E2F0" height="30.2969" rx="2.5" ry="2.5" style="stroke:#181818;stroke-width:0.5;" width="74.5322" x="70.4727" y="50"/><text fill="#000000" font-family="sans-serif" font-size="14" lengthAdjust="spacing" textLength="60.5322" x="77.4727" y="69.9951">SilkRoad</text></g><g class="participant participant-tail" data-participant="SilkRoad"><rect fill="#E2E2F0" height="30.2969" rx="2.5" ry="2.5" style="stroke:#181818;stroke-width:0.5;" width="74.5322" x="70.4727" y="358.2266"/><text fill="#000000" font-family="sans-serif" font-size="14" lengthAdjust="spacing" textLength="60.5322" x="77.4727" y="378.2217">SilkRoad</text></g><g class="participant participant-head" data-participant="Store"><rect fill="#E2E2F0" height="30.2969" rx="2.5" ry="2.5" style="stroke:#181818;stroke-width:0.5;" width="51.3105" x="247.8242" y="50"/><text fill="#000000" font-family="sans-serif" font-size="14" lengthAdjust="spacing" textLength="37.3105" x="254.8242" y="69.9951">Store</text></g><g class="participant participant-tail" data-participant="Store"><rect fill="#E2E2F0" height="30.2969" rx="2.5" ry="2.5" style="stroke:#181818;stroke-width:0.5;" width="51.3105" x="247.8242" y="358.2266"/><text fill="#000000" font-family="sans-serif" font-size="14" lengthAdjust="spacing" textLength="37.3105" x="254.8242" y="378.2217">Store</text></g><g class="participant participant-head" data-participant="Robot"><rect fill="#E2E2F0" height="30.2969" rx="2.5" ry="2.5" style="stroke:#181818;stroke-width:0.5;" width="55.2344" x="309.1348" y="50"/><text fill="#000000" font-family="sans-serif" font-size="14" lengthAdjust="spacing" textLength="41.2344" x="316.1348" y="69.9951">Robot</text></g><g class="participant participant-tail" data-participant="Robot"><rect fill="#E2E2F0" height="30.2969" rx="2.5" ry="2.5" style="stroke:#181818;stroke-width:0.5;" width="55.2344" x="309.1348" y="358.2266"/><text fill="#000000" font-family="sans-serif" font-size="14" lengthAdjust="spacing" textLength="41.2344" x="316.1348" y="378.2217">Robot</text></g><g class="message" data-participant-1="Actor0" data-participant-2="SilkRoad"><polygon fill="#181818" points="95.7388,108.4297,105.7388,112.4297,95.7388,116.4297,99.7388,112.4297" style="stroke:#181818;stroke-width:1;"/><line style="stroke:#181818;stroke-width:1;" x1="30.9961" x2="101.7388" y1="112.4297" y2="112.4297"/><text fill="#000000" font-family="sans-serif" font-size="13" lengthAdjust="spacing" textLength="52.7427" x="37.9961" y="107.3638">reboot()</text></g><path d="M60.4727,127.4297 L137.0967,127.4297 L137.0967,134.5625 L127.0967,144.5625 L60.4727,144.5625 L60.4727,127.4297" fill="#EEEEEE" style="stroke:#000000;stroke-width:1.5;"/><rect fill="none" height="46.2656" style="stroke:#000000;stroke-width:1.5;" width="248.6621" x="60.4727" y="127.4297"/><text fill="#000000" font-family="sans-serif" font-size="13" font-weight="bold" lengthAdjust="spacing" textLength="31.624" x="75.4727" y="140.4966">loop</text><a href="for" target="_top" title="for" xlink:actuate="onRequest" xlink:href="for" xlink:show="new" xlink:title="for" xlink:type="simple"><text fill="#0000FF" font-family="sans-serif" font-size="11" font-weight="bold" lengthAdjust="spacing" text-decoration="underline" textLength="130.6089" x="152.0967" y="139.6401">(Store store : stores)</text></a><g class="message" data-participant-1="SilkRoad" data-participant-2="Store"><polygon fill="#181818" points="261.4795,161.6953,271.4795,165.6953,261.4795,169.6953,265.4795,165.6953" style="stroke:#181818;stroke-width:1;"/><line style="stroke:#181818;stroke-width:1;" x1="107.7388" x2="267.4795" y1="165.6953" y2="165.6953"/><text fill="#000000" font-family="sans-serif" font-size="13" lengthAdjust="spacing" textLength="118.1743" x="114.7388" y="160.6294">resupplyToInitial()</text></g><g class="message" data-participant-1="SilkRoad" data-participant-2="SilkRoad"><line style="stroke:#181818;stroke-width:1;" x1="107.7388" x2="149.7388" y1="201.8281" y2="201.8281"/><line style="stroke:#181818;stroke-width:1;" x1="149.7388" x2="149.7388" y1="201.8281" y2="214.8281"/><line style="stroke:#181818;stroke-width:1;" x1="108.7388" x2="149.7388" y1="214.8281" y2="214.8281"/><polygon fill="#181818" points="118.7388,210.8281,108.7388,214.8281,118.7388,218.8281,114.7388,214.8281" style="stroke:#181818;stroke-width:1;"/><text fill="#000000" font-family="sans-serif" font-size="13" lengthAdjust="spacing" textLength="95.4688" x="114.7388" y="196.7622">returnRobots()</text></g><g class="message" data-participant-1="SilkRoad" data-participant-2="SilkRoad"><line style="stroke:#181818;stroke-width:1;" x1="107.7388" x2="149.7388" y1="243.9609" y2="243.9609"/><line style="stroke:#181818;stroke-width:1;" x1="149.7388" x2="149.7388" y1="243.9609" y2="256.9609"/><line style="stroke:#181818;stroke-width:1;" x1="108.7388" x2="149.7388" y1="256.9609" y2="256.9609"/><polygon fill="#181818" points="118.7388,252.9609,108.7388,256.9609,118.7388,260.9609,114.7388,256.9609" style="stroke:#181818;stroke-width:1;"/><text fill="#000000" font-family="sans-serif" font-size="13" lengthAdjust="spacing" textLength="91.5776" x="114.7388" y="238.895">totalProfit = 0</text></g><g class="message" data-participant-1="SilkRoad" data-participant-2="SilkRoad"><line style="stroke:#181818;stroke-width:1;" x1="107.7388" x2="149.7388" y1="286.0938" y2="286.0938"/><line style="stroke:#181818;stroke-width:1;" x1="149.7388" x2="149.7388" y1="286.0938" y2="299.0938"/><line style="stroke:#181818;stroke-width:1;" x1="108.7388" x2="149.7388" y1="299.0938" y2="299.0938"/><polygon fill="#181818" points="118.7388,295.0938,108.7388,299.0938,118.7388,303.0938,114.7388,299.0938" style="stroke:#181818;stroke-width:1;"/><text fill="#000000" font-family="sans-serif" font-size="13" lengthAdjust="spacing" textLength="112.6011" x="114.7388" y="281.0278">updateProfitBar()</text></g><g class="message" data-participant-1="SilkRoad" data-participant-2="SilkRoad"><line style="stroke:#181818;stroke-width:1;" x1="107.7388" x2="149.7388" y1="328.2266" y2="328.2266"/><line style="stroke:#181818;stroke-width:1;" x1="149.7388" x2="149.7388" y1="328.2266" y2="341.2266"/><line style="stroke:#181818;stroke-width:1;" x1="108.7388" x2="149.7388" y1="341.2266" y2="341.2266"/><polygon fill="#181818" points="118.7388,337.2266,108.7388,341.2266,118.7388,345.2266,114.7388,341.2266" style="stroke:#181818;stroke-width:1;"/><text fill="#000000" font-family="sans-serif" font-size="13" lengthAdjust="spacing" textLength="151.7407" x="114.7388" y="323.1606">lastOperationOk = true</text></g><!--SRC=[TOwn2eD0343t-ugCTIWu2osqMoUBxLOwH3tXyBY4N6xet_VK8dKmGmB9oqkmKnAuJBaqZAAkSun1uU7ys13sssR6xARJK4jgp2A0utdTWmh4jaHwA8mdOdWD-T1XDa2SSxNKMBmDv5Wt9yiFoDF4x3zFkWMd3dsssT2R3Vj_KPE4-QUOoHrAIT7VXGQdS89o3qlSezg5kwBi-pn6hTaAggDGZzcfakmN]--></g></svg>