<svg xmlns="http://www.w3.org/2000/svg" xmlns:xlink="http://www.w3.org/1999/xlink" contentStyleType="text/css" data-diagram-type="SEQUENCE" height="657px" preserveAspectRatio="none" style="width:584px;height:657px;background:#FFFFFF;" version="1.1" viewBox="0 0 584 657" width="584px" zoomAndPan="magnify"><defs/><g><rect fill="none" height="90.3984" style="stroke:#000000;stroke-width:1.5;" width="376.2544" x="20" y="180.6953"/><rect fill="none" height="17.1328" style="stroke:#000000;stroke-width:1.5;" width="91.9517" x="30" y="246.9609"/><rect fill="none" height="275.0625" style="stroke:#000000;stroke-width:1.5;" width="404.7793" x="172.395" y="285.0938"/><g><title>Actor0</title><rect fill="#000000" fill-opacity="0.00000" height="495.8594" width="8" x="41.9961" y="81.2969"/><line style="stroke:#181818;stroke-width:0.5;stroke-dasharray:5.0,5.0;" x1="45" x2="45" y1="81.2969" y2="577.1563"/></g><g><title>SilkRoad</title><rect fill="#000000" fill-opacity="0.00000" height="495.8594" width="8" x="215.6611" y="81.2969"/><line style="stroke:#181818;stroke-width:0.5;stroke-dasharray:5.0,5.0;" x1="219.395" x2="219.395" y1="81.2969" y2="577.1563"/></g><g><title>Robot</title><rect fill="#000000" fill-opacity="0.00000" height="495.8594" width="8" x="485.3892" y="81.2969"/><line style="stroke:#181818;stroke-width:0.5;stroke-dasharray:5.0,5.0;" x1="488.772" x2="488.772" y1="81.2969" y2="577.1563"/></g><g><title>Cell</title><rect fill="#000000" fill-opacity="0.00000" height="495.8594" width="8" x="543.0903" y="81.2969"/><line style="stroke:#181818;stroke-width:0.5;stroke-dasharray:5.0,5.0;" x1="547.0063" x2="547.0063" y1="81.2969" y2="577.1563"/></g><g class="participant participant-head" data-participant="Actor0"><text fill="#000000" font-family="sans-serif" font-size="14" lengthAdjust="spacing" textLength="45.9922" x="20" y="77.9951">Actor0</text><ellipse cx="45.9961" cy="13.5" fill="#E2E2F0" rx="8" ry="8" style="stroke:#181818;stroke-width:0.5;"/><path d="M45.9961,21.5 L45.9961,48.5 M32.9961,29.5 L58.9961,29.5 M45.9961,48.5 L32.9961,63.5 M45.9961,48.5 L58.9961,63.5" fill="none" style="stroke:#181818;stroke-width:0.5;"/></g><g class="participant participant-tail" data-participant="Actor0"><text fill="#000000" font-family="sans-serif" font-size="14" lengthAdjust="spacing" textLength="45.9922" x="20" y="589.1514">Actor0</text><ellipse cx="45.9961" cy="600.9531" fill="#E2E2F0" rx="8" ry="8" style="stroke:#181818;stroke-width:0.5;"/><path d="M45.9961,608.9531 L45.9961,635.9531 M32.9961,616.9531 L58.9961,616.9531 M45.9961,635.9531 L32.9961,650.9531 M45.9961,635.9531 L58.9961,650.9531" fill="none" style="stroke:#181818;stroke-width:0.5;"/></g><g class="participant participant-head" data-participant="SilkRoad"><rect fill="#E2E2F0" height="30.2969" rx="2.5" ry="2.5" style="stroke:#181818;stroke-width:0.5;" width="74.5322" x="182.395" y="50"/><text fill="#000000" font-family="sans-serif" font-size="14" lengthAdjust="spacing" textLength="60.5322" x="189.395" y="69.9951">SilkRoad</text></g><g class="participant participant-tail" data-participant="SilkRoad"><rect fill="#E2E2F0" height="30.2969" rx="2.5" ry="2.5" style="stroke:#181818;stroke-width:0.5;" width="74.5322" x="182.395" y="576.1563"/><text fill="#000000" font-family="sans-serif" font-size="14" lengthAdjust="spacing" textLength="60.5322" x="189.395" y="596.1514">SilkRoad</text></g><g class="participant participant-head" data-participant="Robot"><rect fill="#E2E2F0" height="30.2969" rx="2.5" ry="2.5" style="stroke:#181818;stroke-width:0.5;" width="55.2344" x="461.772" y="50"/><text fill="#000000" font-family="sans-serif" font-size="14" lengthAdjust="spacing" textLength="41.2344" x="468.772" y="69.9951">Robot</text></g><g class="participant participant-tail" data-participant="Robot"><rect fill="#E2E2F0" height="30.2969" rx="2.5" ry="2.5" style="stroke:#181818;stroke-width:0.5;" width="55.2344" x="461.772" y="576.1563"/><text fill="#000000" font-family="sans-serif" font-size="14" lengthAdjust="spacing" textLength="41.2344" x="468.772" y="596.1514">Robot</text></g><g class="participant participant-head" data-participant="Cell"><rect fill="#E2E2F0" height="30.2969" rx="2.5" ry="2.5" style="stroke:#181818;stroke-width:0.5;" width="40.168" x="527.0063" y="50"/><text fill="#000000" font-family="sans-serif" font-size="14" lengthAdjust="spacing" textLength="26.168" x="534.0063" y="69.9951">Cell</text></g><g class="participant participant-tail" data-participant="Cell"><rect fill="#E2E2F0" height="30.2969" rx="2.5" ry="2.5" style="stroke:#181818;stroke-width:0.5;" width="40.168" x="527.0063" y="576.1563"/><text fill="#000000" font-family="sans-serif" font-size="14" lengthAdjust="spacing" textLength="26.168" x="534.0063" y="596.1514">Cell</text></g><g class="message" data-participant-1="Actor0" data-participant-2="SilkRoad"><polygon fill="#181818" points="207.6611,108.4297,217.6611,112.4297,207.6611,116.4297,211.6611,112.4297" style="stroke:#181818;stroke-width:1;"/><line style="stroke:#181818;stroke-width:1;" x1="45.9961" x2="213.6611" y1="112.4297" y2="112.4297"/><text fill="#000000" font-family="sans-serif" font-size="13" lengthAdjust="spacing" textLength="149.665" x="52.9961" y="107.3638">removeRobot(location)</text></g><g class="message" data-participant-1="SilkRoad" data-participant-2="Robot"><polygon fill="#181818" points="477.3892,161.6953,487.3892,165.6953,477.3892,169.6953,481.3892,165.6953" style="stroke:#181818;stroke-width:1;"/><line style="stroke:#181818;stroke-width:1;" x1="219.6611" x2="483.3892" y1="165.6953" y2="165.6953"/><text fill="#000000" font-family="sans-serif" font-size="13" lengthAdjust="spacing" textLength="86.7026" x="226.6611" y="160.6294">getLocation()</text></g><path d="M20,180.6953 L84.4429,180.6953 L84.4429,187.8281 L74.4429,197.8281 L20,197.8281 L20,180.6953" fill="#EEEEEE" style="stroke:#000000;stroke-width:1.5;"/><rect fill="none" height="90.3984" style="stroke:#000000;stroke-width:1.5;" width="376.2544" x="20" y="180.6953"/><text fill="#000000" font-family="sans-serif" font-size="13" font-weight="bold" lengthAdjust="spacing" textLength="19.4429" x="35" y="193.7622">alt</text><a href="if" target="_top" title="if" xlink:actuate="onRequest" xlink:href="if" xlink:show="new" xlink:title="if" xlink:type="simple"><text fill="#0000FF" font-family="sans-serif" font-size="11" font-weight="bold" lengthAdjust="spacing" text-decoration="underline" textLength="207.2598" x="99.4429" y="192.9058">(robot.getLocation() == location)</text></a><g class="message" data-participant-1="SilkRoad" data-participant-2="SilkRoad"><line style="stroke:#181818;stroke-width:1;" x1="219.6611" x2="261.6611" y1="218.9609" y2="218.9609"/><line style="stroke:#181818;stroke-width:1;" x1="261.6611" x2="261.6611" y1="218.9609" y2="231.9609"/><line style="stroke:#181818;stroke-width:1;" x1="220.6611" x2="261.6611" y1="231.9609" y2="231.9609"/><polygon fill="#181818" points="230.6611,227.9609,220.6611,231.9609,230.6611,235.9609,226.6611,231.9609" style="stroke:#181818;stroke-width:1;"/><text fill="#000000" font-family="sans-serif" font-size="13" lengthAdjust="spacing" textLength="157.5933" x="226.6611" y="213.895">robotToRemove = robot</text></g><path d="M30,246.9609 L116.9517,246.9609 L116.9517,254.0938 L106.9517,264.0938 L30,264.0938 L30,246.9609" fill="#EEEEEE" style="stroke:#000000;stroke-width:1.5;"/><rect fill="none" height="17.1328" style="stroke:#000000;stroke-width:1.5;" width="91.9517" x="30" y="246.9609"/><text fill="#000000" font-family="sans-serif" font-size="13" font-weight="bold" lengthAdjust="spacing" textLength="41.9517" x="45" y="260.0278">break</text><path d="M172.395,285.0938 L236.8379,285.0938 L236.8379,292.2266 L226.8379,302.2266 L172.395,302.2266 L172.395,285.0938" fill="#EEEEEE" style="stroke:#000000;stroke-width:1.5;"/><rect fill="none" height="275.0625" style="stroke:#000000;stroke-width:1.5;" width="404.7793" x="172.395" y="285.0938"/><text fill="#000000" font-family="sans-serif" font-size="13" font-weight="bold" lengthAdjust="spacing" textLength="19.4429" x="187.395" y="298.1606">alt</text><a href="if" target="_top" title="if" xlink:actuate="onRequest" xlink:href="if" xlink:show="new" xlink:title="if" xlink:type="simple"><text fill="#0000FF" font-family="sans-serif" font-size="11" font-weight="bold" lengthAdjust="spacing" text-decoration="underline" textLength="157.6631" x="251.8379" y="297.3042">(robotToRemove == null)</text></a><g class="message" data-participant-1="SilkRoad" data-participant-2="SilkRoad"><line style="stroke:#181818;stroke-width:1;" x1="219.6611" x2="261.6611" y1="323.3594" y2="323.3594"/><line style="stroke:#181818;stroke-width:1;" x1="261.6611" x2="261.6611" y1="323.3594" y2="336.3594"/><line style="stroke:#181818;stroke-width:1;" x1="220.6611" x2="261.6611" y1="336.3594" y2="336.3594"/><polygon fill="#181818" points="230.6611,332.3594,220.6611,336.3594,230.6611,340.3594,226.6611,336.3594" style="stroke:#181818;stroke-width:1;"/><text fill="#000000" font-family="sans-serif" font-size="13" lengthAdjust="spacing" textLength="255.728" x="226.6611" y="318.2935">print("No hay robot en esta ubicaci&#243;n")</text></g><g class="message" data-participant-1="SilkRoad" data-participant-2="SilkRoad"><line style="stroke:#181818;stroke-width:1;" x1="219.6611" x2="261.6611" y1="365.4922" y2="365.4922"/><line style="stroke:#181818;stroke-width:1;" x1="261.6611" x2="261.6611" y1="365.4922" y2="378.4922"/><line style="stroke:#181818;stroke-width:1;" x1="220.6611" x2="261.6611" y1="378.4922" y2="378.4922"/><polygon fill="#181818" points="230.6611,374.4922,220.6611,378.4922,230.6611,382.4922,226.6611,378.4922" style="stroke:#181818;stroke-width:1;"/><text fill="#000000" font-family="sans-serif" font-size="13" lengthAdjust="spacing" textLength="155.9873" x="226.6611" y="360.4263">lastOperationOk = false</text></g><line style="stroke:#000000;stroke-width:1;stroke-dasharray:2.0,2.0;" x1="172.395" x2="577.1743" y1="387.4922" y2="387.4922"/><g class="message" data-participant-1="SilkRoad" data-participant-2="Robot"><polygon fill="#181818" points="477.3892,405.625,487.3892,409.625,477.3892,413.625,481.3892,409.625" style="stroke:#181818;stroke-width:1;"/><line style="stroke:#181818;stroke-width:1;" x1="219.6611" x2="483.3892" y1="409.625" y2="409.625"/><text fill="#000000" font-family="sans-serif" font-size="13" lengthAdjust="spacing" textLength="99.9248" x="226.6611" y="404.5591">makeInvisible()</text></g><g class="message" data-participant-1="SilkRoad" data-participant-2="Robot"><polygon fill="#181818" points="477.3892,434.7578,487.3892,438.7578,477.3892,442.7578,481.3892,438.7578" style="stroke:#181818;stroke-width:1;"/><line style="stroke:#181818;stroke-width:1;" x1="219.6611" x2="483.3892" y1="438.7578" y2="438.7578"/><text fill="#000000" font-family="sans-serif" font-size="13" lengthAdjust="spacing" textLength="91.7744" x="226.6611" y="433.6919">releaseColor()</text></g><g class="message" data-participant-1="SilkRoad" data-participant-2="SilkRoad"><line style="stroke:#181818;stroke-width:1;" x1="219.6611" x2="261.6611" y1="467.8906" y2="467.8906"/><line style="stroke:#181818;stroke-width:1;" x1="261.6611" x2="261.6611" y1="467.8906" y2="480.8906"/><line style="stroke:#181818;stroke-width:1;" x1="220.6611" x2="261.6611" y1="480.8906" y2="480.8906"/><polygon fill="#181818" points="230.6611,476.8906,220.6611,480.8906,230.6611,484.8906,226.6611,480.8906" style="stroke:#181818;stroke-width:1;"/><text fill="#000000" font-family="sans-serif" font-size="13" lengthAdjust="spacing" textLength="209.1362" x="226.6611" y="462.8247">robots.remove(robotToRemove)</text></g><g class="message" data-participant-1="SilkRoad" data-participant-2="Cell"><polygon fill="#181818" points="535.0903,506.0234,545.0903,510.0234,535.0903,514.0234,539.0903,510.0234" style="stroke:#181818;stroke-width:1;"/><line style="stroke:#181818;stroke-width:1;" x1="219.6611" x2="541.0903" y1="510.0234" y2="510.0234"/><text fill="#000000" font-family="sans-serif" font-size="13" lengthAdjust="spacing" textLength="270.6768" x="226.6611" y="504.9575">path.get(location).occupied_robot = false</text></g><g class="message" data-participant-1="SilkRoad" data-participant-2="SilkRoad"><line style="stroke:#181818;stroke-width:1;" x1="219.6611" x2="261.6611" y1="539.1563" y2="539.1563"/><line style="stroke:#181818;stroke-width:1;" x1="261.6611" x2="261.6611" y1="539.1563" y2="552.1563"/><line style="stroke:#181818;stroke-width:1;" x1="220.6611" x2="261.6611" y1="552.1563" y2="552.1563"/><polygon fill="#181818" points="230.6611,548.1563,220.6611,552.1563,230.6611,556.1563,226.6611,552.1563" style="stroke:#181818;stroke-width:1;"/><text fill="#000000" font-family="sans-serif" font-size="13" lengthAdjust="spacing" textLength="151.7407" x="226.6611" y="534.0903">lastOperationOk = true</text></g><!--SRC=[bLB1QiCm3BtxAqHFpc5bvq86ewV1M27RhOoXkEfcebh1SGhxhdt2VcontQNDjXPci8njlISzIMY2UBYDzbgrw8CrjaKNuD5oKmbk9e-Lr18cBqjYLYhZuUfcXC42FEraJmcYMGm6AwvGBDB2UZi4rUaBVBABV7R5iu9XZJG3PNLmUALmVw3HHV923h2sMz09EvyuG5d263MJ_YG-pJKIF4cLKeOotqTGxGcRT2EtKN6hQUWZiWJNC_-XuYHOwwqBUlOWy8Rl1_taWBg0qDVMeB6V7svMNE9WxCAg9P_qhPeXvIroHugYELV17JPqv_QsipMJBixwUMB2ZfR2ulN5D7BJvhdLqrhyniLPYV8nlCLU7OTYBiRqhQNDIox6jvX_wG- -fzYRBm00]--></g></svg>