<svg xmlns="http://www.w3.org/2000/svg" xmlns:xlink="http://www.w3.org/1999/xlink" contentStyleType="text/css" data-diagram-type="SEQUENCE" height="657px" preserveAspectRatio="none" style="width:585px;height:657px;background:#FFFFFF;" version="1.1" viewBox="0 0 585 657" width="585px" zoomAndPan="magnify"><defs/><g><rect fill="none" height="90.3984" style="stroke:#000000;stroke-width:1.5;" width="369.7417" x="20" y="180.6953"/><rect fill="none" height="17.1328" style="stroke:#000000;stroke-width:1.5;" width="91.9517" x="30" y="246.9609"/><rect fill="none" height="275.0625" style="stroke:#000000;stroke-width:1.5;" width="409.3809" x="168.7515" y="285.0938"/><g><title>Actor0</title><rect fill="#000000" fill-opacity="0.00000" height="495.8594" width="8" x="41.9961" y="81.2969"/><line style="stroke:#181818;stroke-width:0.5;stroke-dasharray:5.0,5.0;" x1="45" x2="45" y1="81.2969" y2="577.1563"/></g><g><title>SilkRoad</title><rect fill="#000000" fill-opacity="0.00000" height="495.8594" width="8" x="212.0176" y="81.2969"/><line style="stroke:#181818;stroke-width:0.5;stroke-dasharray:5.0,5.0;" x1="215.7515" x2="215.7515" y1="81.2969" y2="577.1563"/></g><g><title>Store</title><rect fill="#000000" fill-opacity="0.00000" height="495.8594" width="8" x="488.3091" y="81.2969"/><line style="stroke:#181818;stroke-width:0.5;stroke-dasharray:5.0,5.0;" x1="491.6538" x2="491.6538" y1="81.2969" y2="577.1563"/></g><g><title>Cell</title><rect fill="#000000" fill-opacity="0.00000" height="495.8594" width="8" x="544.0483" y="81.2969"/><line style="stroke:#181818;stroke-width:0.5;stroke-dasharray:5.0,5.0;" x1="547.9644" x2="547.9644" y1="81.2969" y2="577.1563"/></g><g class="participant participant-head" data-participant="Actor0"><text fill="#000000" font-family="sans-serif" font-size="14" lengthAdjust="spacing" textLength="45.9922" x="20" y="77.9951">Actor0</text><ellipse cx="45.9961" cy="13.5" fill="#E2E2F0" rx="8" ry="8" style="stroke:#181818;stroke-width:0.5;"/><path d="M45.9961,21.5 L45.9961,48.5 M32.9961,29.5 L58.9961,29.5 M45.9961,48.5 L32.9961,63.5 M45.9961,48.5 L58.9961,63.5" fill="none" style="stroke:#181818;stroke-width:0.5;"/></g><g class="participant participant-tail" data-participant="Actor0"><text fill="#000000" font-family="sans-serif" font-size="14" lengthAdjust="spacing" textLength="45.9922" x="20" y="589.1514">Actor0</text><ellipse cx="45.9961" cy="600.9531" fill="#E2E2F0" rx="8" ry="8" style="stroke:#181818;stroke-width:0.5;"/><path d="M45.9961,608.9531 L45.9961,635.9531 M32.9961,616.9531 L58.9961,616.9531 M45.9961,635.9531 L32.9961,650.9531 M45.9961,635.9531 L58.9961,650.9531" fill="none" style="stroke:#181818;stroke-width:0.5;"/></g><g class="participant participant-head" data-participant="SilkRoad"><rect fill="#E2E2F0" height="30.2969" rx="2.5" ry="2.5" style="stroke:#181818;stroke-width:0.5;" width="74.5322" x="178.7515" y="50"/><text fill="#000000" font-family="sans-serif" font-size="14" lengthAdjust="spacing" textLength="60.5322" x="185.7515" y="69.9951">SilkRoad</text></g><g class="participant participant-tail" data-participant="SilkRoad"><rect fill="#E2E2F0" height="30.2969" rx="2.5" ry="2.5" style="stroke:#181818;stroke-width:0.5;" width="74.5322" x="178.7515" y="576.1563"/><text fill="#000000" font-family="sans-serif" font-size="14" lengthAdjust="spacing" textLength="60.5322" x="185.7515" y="596.1514">SilkRoad</text></g><g class="participant participant-head" data-participant="Store"><rect fill="#E2E2F0" height="30.2969" rx="2.5" ry="2.5" style="stroke:#181818;stroke-width:0.5;" width="51.3105" x="466.6538" y="50"/><text fill="#000000" font-family="sans-serif" font-size="14" lengthAdjust="spacing" textLength="37.3105" x="473.6538" y="69.9951">Store</text></g><g class="participant participant-tail" data-participant="Store"><rect fill="#E2E2F0" height="30.2969" rx="2.5" ry="2.5" style="stroke:#181818;stroke-width:0.5;" width="51.3105" x="466.6538" y="576.1563"/><text fill="#000000" font-family="sans-serif" font-size="14" lengthAdjust="spacing" textLength="37.3105" x="473.6538" y="596.1514">Store</text></g><g class="participant participant-head" data-participant="Cell"><rect fill="#E2E2F0" height="30.2969" rx="2.5" ry="2.5" style="stroke:#181818;stroke-width:0.5;" width="40.168" x="527.9644" y="50"/><text fill="#000000" font-family="sans-serif" font-size="14" lengthAdjust="spacing" textLength="26.168" x="534.9644" y="69.9951">Cell</text></g><g class="participant participant-tail" data-participant="Cell"><rect fill="#E2E2F0" height="30.2969" rx="2.5" ry="2.5" style="stroke:#181818;stroke-width:0.5;" width="40.168" x="527.9644" y="576.1563"/><text fill="#000000" font-family="sans-serif" font-size="14" lengthAdjust="spacing" textLength="26.168" x="534.9644" y="596.1514">Cell</text></g><g class="message" data-participant-1="Actor0" data-participant-2="SilkRoad"><polygon fill="#181818" points="204.0176,108.4297,214.0176,112.4297,204.0176,116.4297,208.0176,112.4297" style="stroke:#181818;stroke-width:1;"/><line style="stroke:#181818;stroke-width:1;" x1="45.9961" x2="210.0176" y1="112.4297" y2="112.4297"/><text fill="#000000" font-family="sans-serif" font-size="13" lengthAdjust="spacing" textLength="146.0215" x="52.9961" y="107.3638">removeStore(location)</text></g><g class="message" data-participant-1="SilkRoad" data-participant-2="Store"><polygon fill="#181818" points="480.3091,161.6953,490.3091,165.6953,480.3091,169.6953,484.3091,165.6953" style="stroke:#181818;stroke-width:1;"/><line style="stroke:#181818;stroke-width:1;" x1="216.0176" x2="486.3091" y1="165.6953" y2="165.6953"/><text fill="#000000" font-family="sans-serif" font-size="13" lengthAdjust="spacing" textLength="86.7026" x="223.0176" y="160.6294">getLocation()</text></g><path d="M20,180.6953 L84.4429,180.6953 L84.4429,187.8281 L74.4429,197.8281 L20,197.8281 L20,180.6953" fill="#EEEEEE" style="stroke:#000000;stroke-width:1.5;"/><rect fill="none" height="90.3984" style="stroke:#000000;stroke-width:1.5;" width="369.7417" x="20" y="180.6953"/><text fill="#000000" font-family="sans-serif" font-size="13" font-weight="bold" lengthAdjust="spacing" textLength="19.4429" x="35" y="193.7622">alt</text><a href="if" target="_top" title="if" xlink:actuate="onRequest" xlink:href="if" xlink:show="new" xlink:title="if" xlink:type="simple"><text fill="#0000FF" font-family="sans-serif" font-size="11" font-weight="bold" lengthAdjust="spacing" text-decoration="underline" textLength="205.8364" x="99.4429" y="192.9058">(store.getLocation() == location)</text></a><g class="message" data-participant-1="SilkRoad" data-participant-2="SilkRoad"><line style="stroke:#181818;stroke-width:1;" x1="216.0176" x2="258.0176" y1="218.9609" y2="218.9609"/><line style="stroke:#181818;stroke-width:1;" x1="258.0176" x2="258.0176" y1="218.9609" y2="231.9609"/><line style="stroke:#181818;stroke-width:1;" x1="217.0176" x2="258.0176" y1="231.9609" y2="231.9609"/><polygon fill="#181818" points="227.0176,227.9609,217.0176,231.9609,227.0176,235.9609,223.0176,231.9609" style="stroke:#181818;stroke-width:1;"/><text fill="#000000" font-family="sans-serif" font-size="13" lengthAdjust="spacing" textLength="154.7241" x="223.0176" y="213.895">storeToRemove = store</text></g><path d="M30,246.9609 L116.9517,246.9609 L116.9517,254.0938 L106.9517,264.0938 L30,264.0938 L30,246.9609" fill="#EEEEEE" style="stroke:#000000;stroke-width:1.5;"/><rect fill="none" height="17.1328" style="stroke:#000000;stroke-width:1.5;" width="91.9517" x="30" y="246.9609"/><text fill="#000000" font-family="sans-serif" font-size="13" font-weight="bold" lengthAdjust="spacing" textLength="41.9517" x="45" y="260.0278">break</text><path d="M168.7515,285.0938 L233.1943,285.0938 L233.1943,292.2266 L223.1943,302.2266 L168.7515,302.2266 L168.7515,285.0938" fill="#EEEEEE" style="stroke:#000000;stroke-width:1.5;"/><rect fill="none" height="275.0625" style="stroke:#000000;stroke-width:1.5;" width="409.3809" x="168.7515" y="285.0938"/><text fill="#000000" font-family="sans-serif" font-size="13" font-weight="bold" lengthAdjust="spacing" textLength="19.4429" x="183.7515" y="298.1606">alt</text><a href="if" target="_top" title="if" xlink:actuate="onRequest" xlink:href="if" xlink:show="new" xlink:title="if" xlink:type="simple"><text fill="#0000FF" font-family="sans-serif" font-size="11" font-weight="bold" lengthAdjust="spacing" text-decoration="underline" textLength="156.2397" x="248.1943" y="297.3042">(storeToRemove == null)</text></a><g class="message" data-participant-1="SilkRoad" data-participant-2="SilkRoad"><line style="stroke:#181818;stroke-width:1;" x1="216.0176" x2="258.0176" y1="323.3594" y2="323.3594"/><line style="stroke:#181818;stroke-width:1;" x1="258.0176" x2="258.0176" y1="323.3594" y2="336.3594"/><line style="stroke:#181818;stroke-width:1;" x1="217.0176" x2="258.0176" y1="336.3594" y2="336.3594"/><polygon fill="#181818" points="227.0176,332.3594,217.0176,336.3594,227.0176,340.3594,223.0176,336.3594" style="stroke:#181818;stroke-width:1;"/><text fill="#000000" font-family="sans-serif" font-size="13" lengthAdjust="spacing" textLength="262.2915" x="223.0176" y="318.2935">print("No hay tienda en esta ubicaci&#243;n")</text></g><g class="message" data-participant-1="SilkRoad" data-participant-2="SilkRoad"><line style="stroke:#181818;stroke-width:1;" x1="216.0176" x2="258.0176" y1="365.4922" y2="365.4922"/><line style="stroke:#181818;stroke-width:1;" x1="258.0176" x2="258.0176" y1="365.4922" y2="378.4922"/><line style="stroke:#181818;stroke-width:1;" x1="217.0176" x2="258.0176" y1="378.4922" y2="378.4922"/><polygon fill="#181818" points="227.0176,374.4922,217.0176,378.4922,227.0176,382.4922,223.0176,378.4922" style="stroke:#181818;stroke-width:1;"/><text fill="#000000" font-family="sans-serif" font-size="13" lengthAdjust="spacing" textLength="155.9873" x="223.0176" y="360.4263">lastOperationOk = false</text></g><line style="stroke:#000000;stroke-width:1;stroke-dasharray:2.0,2.0;" x1="168.7515" x2="578.1323" y1="387.4922" y2="387.4922"/><g class="message" data-participant-1="SilkRoad" data-participant-2="Store"><polygon fill="#181818" points="480.3091,405.625,490.3091,409.625,480.3091,413.625,484.3091,409.625" style="stroke:#181818;stroke-width:1;"/><line style="stroke:#181818;stroke-width:1;" x1="216.0176" x2="486.3091" y1="409.625" y2="409.625"/><text fill="#000000" font-family="sans-serif" font-size="13" lengthAdjust="spacing" textLength="99.9248" x="223.0176" y="404.5591">makeInvisible()</text></g><g class="message" data-participant-1="SilkRoad" data-participant-2="Store"><polygon fill="#181818" points="480.3091,434.7578,490.3091,438.7578,480.3091,442.7578,484.3091,438.7578" style="stroke:#181818;stroke-width:1;"/><line style="stroke:#181818;stroke-width:1;" x1="216.0176" x2="486.3091" y1="438.7578" y2="438.7578"/><text fill="#000000" font-family="sans-serif" font-size="13" lengthAdjust="spacing" textLength="91.7744" x="223.0176" y="433.6919">releaseColor()</text></g><g class="message" data-participant-1="SilkRoad" data-participant-2="SilkRoad"><line style="stroke:#181818;stroke-width:1;" x1="216.0176" x2="258.0176" y1="467.8906" y2="467.8906"/><line style="stroke:#181818;stroke-width:1;" x1="258.0176" x2="258.0176" y1="467.8906" y2="480.8906"/><line style="stroke:#181818;stroke-width:1;" x1="217.0176" x2="258.0176" y1="480.8906" y2="480.8906"/><polygon fill="#181818" points="227.0176,476.8906,217.0176,480.8906,227.0176,484.8906,223.0176,480.8906" style="stroke:#181818;stroke-width:1;"/><text fill="#000000" font-family="sans-serif" font-size="13" lengthAdjust="spacing" textLength="206.2671" x="223.0176" y="462.8247">stores.remove(storeToRemove)</text></g><g class="message" data-participant-1="SilkRoad" data-participant-2="Cell"><polygon fill="#181818" points="536.0483,506.0234,546.0483,510.0234,536.0483,514.0234,540.0483,510.0234" style="stroke:#181818;stroke-width:1;"/><line style="stroke:#181818;stroke-width:1;" x1="216.0176" x2="542.0483" y1="510.0234" y2="510.0234"/><text fill="#000000" font-family="sans-serif" font-size="13" lengthAdjust="spacing" textLength="269.2422" x="223.0176" y="504.9575">path.get(location).occupied_store = false</text></g><g class="message" data-participant-1="SilkRoad" data-participant-2="SilkRoad"><line style="stroke:#181818;stroke-width:1;" x1="216.0176" x2="258.0176" y1="539.1563" y2="539.1563"/><line style="stroke:#181818;stroke-width:1;" x1="258.0176" x2="258.0176" y1="539.1563" y2="552.1563"/><line style="stroke:#181818;stroke-width:1;" x1="217.0176" x2="258.0176" y1="552.1563" y2="552.1563"/><polygon fill="#181818" points="227.0176,548.1563,217.0176,552.1563,227.0176,556.1563,223.0176,552.1563" style="stroke:#181818;stroke-width:1;"/><text fill="#000000" font-family="sans-serif" font-size="13" lengthAdjust="spacing" textLength="151.7407" x="223.0176" y="534.0903">lastOperationOk = true</text></g><!--SRC=[bLB1QiCm3BtxAqHFpc5Xvq86ewV1QA7RhOoXEEfgejh1TWhxhdt2VcontIM4heKPec3xlISzIwY2TV0Ouxteq0MjT8Scm8lcTckncHyEC9gTh8XPYCo7kuUH1ajmTBGdIXJ9Lc7GrXI2hUrWjn-IodG5FiLb_llYJS2mHfaeUGPyK7W-oyWYeP03xFGUPEAMCm1K5OnPi-Y5y5Hh4dYrsrGoL7a_acf7sAOTcKR4JynJJymAJC_ybuifMUUq2NAnjd30JmXw4CH16SW7XBxM2fN-_ZABufO8em-RZbmok6c7clV8dWJ5SEq9ZzZIapbfhsicMLp5EM92JolBricRPUIkbRdNyyUuvCLXYVun76ApfgaehL9zfwbvpzFmQ-PV_eFhAJRd1m00]--></g></svg>