<svg xmlns="http://www.w3.org/2000/svg" xmlns:xlink="http://www.w3.org/1999/xlink" contentStyleType="text/css" data-diagram-type="SEQUENCE" height="313px" preserveAspectRatio="none" style="width:370px;height:313px;background:#FFFFFF;" version="1.1" viewBox="0 0 370 313" width="370px" zoomAndPan="magnify"><defs/><g><rect fill="none" height="46.2656" style="stroke:#000000;stroke-width:1.5;" width="248.6621" x="115.4561" y="127.4297"/><g><title>Actor0</title><rect fill="#000000" fill-opacity="0.00000" height="151.5313" width="8" x="26.9961" y="81.2969"/><line style="stroke:#181818;stroke-width:0.5;stroke-dasharray:5.0,5.0;" x1="30" x2="30" y1="81.2969" y2="232.8281"/></g><g><title>SilkRoad</title><rect fill="#000000" fill-opacity="0.00000" height="151.5313" width="8" x="158.7222" y="81.2969"/><line style="stroke:#181818;stroke-width:0.5;stroke-dasharray:5.0,5.0;" x1="162.4561" x2="162.4561" y1="81.2969" y2="232.8281"/></g><g><title>Store</title><rect fill="#000000" fill-opacity="0.00000" height="151.5313" width="8" x="324.4629" y="81.2969"/><line style="stroke:#181818;stroke-width:0.5;stroke-dasharray:5.0,5.0;" x1="327.8076" x2="327.8076" y1="81.2969" y2="232.8281"/></g><g class="participant participant-head" data-participant="Actor0"><text fill="#000000" font-family="sans-serif" font-size="14" lengthAdjust="spacing" textLength="45.9922" x="5" y="77.9951">Actor0</text><ellipse cx="30.9961" cy="13.5" fill="#E2E2F0" rx="8" ry="8" style="stroke:#181818;stroke-width:0.5;"/><path d="M30.9961,21.5 L30.9961,48.5 M17.9961,29.5 L43.9961,29.5 M30.9961,48.5 L17.9961,63.5 M30.9961,48.5 L43.9961,63.5" fill="none" style="stroke:#181818;stroke-width:0.5;"/></g><g class="participant participant-tail" data-participant="Actor0"><text fill="#000000" font-family="sans-serif" font-size="14" lengthAdjust="spacing" textLength="45.9922" x="5" y="244.8232">Actor0</text><ellipse cx="30.9961" cy="256.625" fill="#E2E2F0" rx="8" ry="8" style="stroke:#181818;stroke-width:0.5;"/><path d="M30.9961,264.625 L30.9961,291.625 M17.9961,272.625 L43.9961,272.625 M30.9961,291.625 L17.9961,306.625 M30.9961,291.625 L43.9961,306.625" fill="none" style="stroke:#181818;stroke-width:0.5;"/></g><g class="participant participant-head" data-participant="SilkRoad"><rect fill="#E2E2F0" height="30.2969" rx="2.5" ry="2.5" style="stroke:#181818;stroke-width:0.5;" width="74.5322" x="125.4561" y="50"/><text fill="#000000" font-family="sans-serif" font-size="14" lengthAdjust="spacing" textLength="60.5322" x="132.4561" y="69.9951">SilkRoad</text></g><g class="participant participant-tail" data-participant="SilkRoad"><rect fill="#E2E2F0" height="30.2969" rx="2.5" ry="2.5" style="stroke:#181818;stroke-width:0.5;" width="74.5322" x="125.4561" y="231.8281"/><text fill="#000000" font-family="sans-serif" font-size="14" lengthAdjust="spacing" textLength="60.5322" x="132.4561" y="251.8232">SilkRoad</text></g><g class="participant participant-head" data-participant="Store"><rect fill="#E2E2F0" height="30.2969" rx="2.5" ry="2.5" style="stroke:#181818;stroke-width:0.5;" width="51.3105" x="302.8076" y="50"/><text fill="#000000" font-family="sans-serif" font-size="14" lengthAdjust="spacing" textLength="37.3105" x="309.8076" y="69.9951">Store</text></g><g class="participant participant-tail" data-participant="Store"><rect fill="#E2E2F0" height="30.2969" rx="2.5" ry="2.5" style="stroke:#181818;stroke-width:0.5;" width="51.3105" x="302.8076" y="231.8281"/><text fill="#000000" font-family="sans-serif" font-size="14" lengthAdjust="spacing" textLength="37.3105" x="309.8076" y="251.8232">Store</text></g><g class="message" data-participant-1="Actor0" data-participant-2="SilkRoad"><polygon fill="#181818" points="150.7222,108.4297,160.7222,112.4297,150.7222,116.4297,154.7222,112.4297" style="stroke:#181818;stroke-width:1;"/><line style="stroke:#181818;stroke-width:1;" x1="30.9961" x2="156.7222" y1="112.4297" y2="112.4297"/><text fill="#000000" font-family="sans-serif" font-size="13" lengthAdjust="spacing" textLength="107.7261" x="37.9961" y="107.3638">resupplyStores()</text></g><path d="M115.4561,127.4297 L192.0801,127.4297 L192.0801,134.5625 L182.0801,144.5625 L115.4561,144.5625 L115.4561,127.4297" fill="#EEEEEE" style="stroke:#000000;stroke-width:1.5;"/><rect fill="none" height="46.2656" style="stroke:#000000;stroke-width:1.5;" width="248.6621" x="115.4561" y="127.4297"/><text fill="#000000" font-family="sans-serif" font-size="13" font-weight="bold" lengthAdjust="spacing" textLength="31.624" x="130.4561" y="140.4966">loop</text><a href="for" target="_top" title="for" xlink:actuate="onRequest" xlink:href="for" xlink:show="new" xlink:title="for" xlink:type="simple"><text fill="#0000FF" font-family="sans-serif" font-size="11" font-weight="bold" lengthAdjust="spacing" text-decoration="underline" textLength="130.6089" x="207.0801" y="139.6401">(Store store : stores)</text></a><g class="message" data-participant-1="SilkRoad" data-participant-2="Store"><polygon fill="#181818" points="316.4629,161.6953,326.4629,165.6953,316.4629,169.6953,320.4629,165.6953" style="stroke:#181818;stroke-width:1;"/><line style="stroke:#181818;stroke-width:1;" x1="162.7222" x2="322.4629" y1="165.6953" y2="165.6953"/><text fill="#000000" font-family="sans-serif" font-size="13" lengthAdjust="spacing" textLength="66.3076" x="169.7222" y="160.6294">resupply()</text></g><g class="message" data-participant-1="SilkRoad" data-participant-2="SilkRoad"><line style="stroke:#181818;stroke-width:1;" x1="162.7222" x2="204.7222" y1="201.8281" y2="201.8281"/><line style="stroke:#181818;stroke-width:1;" x1="204.7222" x2="204.7222" y1="201.8281" y2="214.8281"/><line style="stroke:#181818;stroke-width:1;" x1="163.7222" x2="204.7222" y1="214.8281" y2="214.8281"/><polygon fill="#181818" points="173.7222,210.8281,163.7222,214.8281,173.7222,218.8281,169.7222,214.8281" style="stroke:#181818;stroke-width:1;"/><text fill="#000000" font-family="sans-serif" font-size="13" lengthAdjust="spacing" textLength="151.7407" x="169.7222" y="196.7622">lastOperationOk = true</text></g><!--SRC=[LOqn2iCm34LtdK9ZCXGw1rhe2GBjM3g8H0KJOmbP6NhxE4wR4Wt_m-VnH8EBuMtDCoYPXo4e9ST7YDDTQ3oE1ME03SVJTQUmG-CygyPFPNBJGXHHVBwBlgaRvfhTrhbz0PRR3Qlj2_nKHS9fX0FoVnWfUwziv45IF-45tMPU0000]--></g></svg>