<svg xmlns="http://www.w3.org/2000/svg" xmlns:xlink="http://www.w3.org/1999/xlink" contentStyleType="text/css" data-diagram-type="SEQUENCE" height="384px" preserveAspectRatio="none" style="width:513px;height:384px;background:#FFFFFF;" version="1.1" viewBox="0 0 513 384" width="513px" zoomAndPan="magnify"><defs/><g><rect fill="none" height="117.5313" style="stroke:#000000;stroke-width:1.5;" width="404.0913" x="103.1987" y="127.4297"/><g><title>Actor0</title><rect fill="#000000" fill-opacity="0.00000" height="222.7969" width="8" x="26.9961" y="81.2969"/><line style="stroke:#181818;stroke-width:0.5;stroke-dasharray:5.0,5.0;" x1="30" x2="30" y1="81.2969" y2="304.0938"/></g><g><title>SilkRoad</title><rect fill="#000000" fill-opacity="0.00000" height="222.7969" width="8" x="146.4648" y="81.2969"/><line style="stroke:#181818;stroke-width:0.5;stroke-dasharray:5.0,5.0;" x1="150.1987" x2="150.1987" y1="81.2969" y2="304.0938"/></g><g><title>Robot</title><rect fill="#000000" fill-opacity="0.00000" height="222.7969" width="8" x="465.6729" y="81.2969"/><line style="stroke:#181818;stroke-width:0.5;stroke-dasharray:5.0,5.0;" x1="469.0557" x2="469.0557" y1="81.2969" y2="304.0938"/></g><g class="participant participant-head" data-participant="Actor0"><text fill="#000000" font-family="sans-serif" font-size="14" lengthAdjust="spacing" textLength="45.9922" x="5" y="77.9951">Actor0</text><ellipse cx="30.9961" cy="13.5" fill="#E2E2F0" rx="8" ry="8" style="stroke:#181818;stroke-width:0.5;"/><path d="M30.9961,21.5 L30.9961,48.5 M17.9961,29.5 L43.9961,29.5 M30.9961,48.5 L17.9961,63.5 M30.9961,48.5 L43.9961,63.5" fill="none" style="stroke:#181818;stroke-width:0.5;"/></g><g class="participant participant-tail" data-participant="Actor0"><text fill="#000000" font-family="sans-serif" font-size="14" lengthAdjust="spacing" textLength="45.9922" x="5" y="316.0889">Actor0</text><ellipse cx="30.9961" cy="327.8906" fill="#E2E2F0" rx="8" ry="8" style="stroke:#181818;stroke-width:0.5;"/><path d="M30.9961,335.8906 L30.9961,362.8906 M17.9961,343.8906 L43.9961,343.8906 M30.9961,362.8906 L17.9961,377.8906 M30.9961,362.8906 L43.9961,377.8906" fill="none" style="stroke:#181818;stroke-width:0.5;"/></g><g class="participant participant-head" data-participant="SilkRoad"><rect fill="#E2E2F0" height="30.2969" rx="2.5" ry="2.5" style="stroke:#181818;stroke-width:0.5;" width="74.5322" x="113.1987" y="50"/><text fill="#000000" font-family="sans-serif" font-size="14" lengthAdjust="spacing" textLength="60.5322" x="120.1987" y="69.9951">SilkRoad</text></g><g class="participant participant-tail" data-participant="SilkRoad"><rect fill="#E2E2F0" height="30.2969" rx="2.5" ry="2.5" style="stroke:#181818;stroke-width:0.5;" width="74.5322" x="113.1987" y="303.0938"/><text fill="#000000" font-family="sans-serif" font-size="14" lengthAdjust="spacing" textLength="60.5322" x="120.1987" y="323.0889">SilkRoad</text></g><g class="participant participant-head" data-participant="Robot"><rect fill="#E2E2F0" height="30.2969" rx="2.5" ry="2.5" style="stroke:#181818;stroke-width:0.5;" width="55.2344" x="442.0557" y="50"/><text fill="#000000" font-family="sans-serif" font-size="14" lengthAdjust="spacing" textLength="41.2344" x="449.0557" y="69.9951">Robot</text></g><g class="participant participant-tail" data-participant="Robot"><rect fill="#E2E2F0" height="30.2969" rx="2.5" ry="2.5" style="stroke:#181818;stroke-width:0.5;" width="55.2344" x="442.0557" y="303.0938"/><text fill="#000000" font-family="sans-serif" font-size="14" lengthAdjust="spacing" textLength="41.2344" x="449.0557" y="323.0889">Robot</text></g><g class="message" data-participant-1="Actor0" data-participant-2="SilkRoad"><polygon fill="#181818" points="138.4648,108.4297,148.4648,112.4297,138.4648,116.4297,142.4648,112.4297" style="stroke:#181818;stroke-width:1;"/><line style="stroke:#181818;stroke-width:1;" x1="30.9961" x2="144.4648" y1="112.4297" y2="112.4297"/><text fill="#000000" font-family="sans-serif" font-size="13" lengthAdjust="spacing" textLength="95.4688" x="37.9961" y="107.3638">returnRobots()</text></g><path d="M103.1987,127.4297 L179.8228,127.4297 L179.8228,134.5625 L169.8228,144.5625 L103.1987,144.5625 L103.1987,127.4297" fill="#EEEEEE" style="stroke:#000000;stroke-width:1.5;"/><rect fill="none" height="117.5313" style="stroke:#000000;stroke-width:1.5;" width="404.0913" x="103.1987" y="127.4297"/><text fill="#000000" font-family="sans-serif" font-size="13" font-weight="bold" lengthAdjust="spacing" textLength="31.624" x="118.1987" y="140.4966">loop</text><a href="for" target="_top" title="for" xlink:actuate="onRequest" xlink:href="for" xlink:show="new" xlink:title="for" xlink:type="simple"><text fill="#0000FF" font-family="sans-serif" font-size="11" font-weight="bold" lengthAdjust="spacing" text-decoration="underline" textLength="136.5493" x="194.8228" y="139.6401">(Robot robot : robots)</text></a><g class="message" data-participant-1="SilkRoad" data-participant-2="Robot"><polygon fill="#181818" points="457.6729,161.6953,467.6729,165.6953,457.6729,169.6953,461.6729,165.6953" style="stroke:#181818;stroke-width:1;"/><line style="stroke:#181818;stroke-width:1;" x1="150.4648" x2="463.6729" y1="165.6953" y2="165.6953"/><text fill="#000000" font-family="sans-serif" font-size="13" lengthAdjust="spacing" textLength="122.6748" x="157.4648" y="160.6294">getInitialLocation()</text></g><g class="message" data-participant-1="SilkRoad" data-participant-2="SilkRoad"><line style="stroke:#181818;stroke-width:1;" x1="150.4648" x2="192.4648" y1="194.8281" y2="194.8281"/><line style="stroke:#181818;stroke-width:1;" x1="192.4648" x2="192.4648" y1="194.8281" y2="207.8281"/><line style="stroke:#181818;stroke-width:1;" x1="151.4648" x2="192.4648" y1="207.8281" y2="207.8281"/><polygon fill="#181818" points="161.4648,203.8281,151.4648,207.8281,161.4648,211.8281,157.4648,207.8281" style="stroke:#181818;stroke-width:1;"/><text fill="#000000" font-family="sans-serif" font-size="13" lengthAdjust="spacing" textLength="305.208" x="157.4648" y="189.7622">moveElementToLocation(robot, initialLocation)</text></g><g class="message" data-participant-1="SilkRoad" data-participant-2="Robot"><polygon fill="#181818" points="457.6729,232.9609,467.6729,236.9609,457.6729,240.9609,461.6729,236.9609" style="stroke:#181818;stroke-width:1;"/><line style="stroke:#181818;stroke-width:1;" x1="150.4648" x2="463.6729" y1="236.9609" y2="236.9609"/><text fill="#000000" font-family="sans-serif" font-size="13" lengthAdjust="spacing" textLength="157.4854" x="157.4648" y="231.895">returnToInitialLocation()</text></g><g class="message" data-participant-1="SilkRoad" data-participant-2="SilkRoad"><line style="stroke:#181818;stroke-width:1;" x1="150.4648" x2="192.4648" y1="273.0938" y2="273.0938"/><line style="stroke:#181818;stroke-width:1;" x1="192.4648" x2="192.4648" y1="273.0938" y2="286.0938"/><line style="stroke:#181818;stroke-width:1;" x1="151.4648" x2="192.4648" y1="286.0938" y2="286.0938"/><polygon fill="#181818" points="161.4648,282.0938,151.4648,286.0938,161.4648,290.0938,157.4648,286.0938" style="stroke:#181818;stroke-width:1;"/><text fill="#000000" font-family="sans-serif" font-size="13" lengthAdjust="spacing" textLength="151.7407" x="157.4648" y="268.0278">lastOperationOk = true</text></g><!--SRC=[TOx12i8m38RlVOeSDr3mF53mu44G1dKtyL2tA65TKxhCvxTsCfoo7188N_ulfXOEi7_tZV8c2DNaZHCuasqrcsQsr7nZKMh4ORsRA2WWe0p19QBFScMPFLpkCJnBEmYf5-Fiywk2MDDzpD8Vu85oT2Hax8bh8yGknlt2N-AEdtYmsA6JYgUJf5a1pPFoHUluViN_QdIDMb1RqqlfCIIqR64B4WPy0G00]--></g></svg>