<svg xmlns="http://www.w3.org/2000/svg" xmlns:xlink="http://www.w3.org/1999/xlink" contentStyleType="text/css" data-diagram-type="SEQUENCE" height="397px" preserveAspectRatio="none" style="width:626px;height:397px;background:#FFFFFF;" version="1.1" viewBox="0 0 626 397" width="626px" zoomAndPan="magnify"><defs/><g><rect fill="none" height="88.3984" style="stroke:#000000;stroke-width:1.5;" width="561.145" x="59.2476" y="169.5625"/><g><title>Actor0</title><rect fill="#000000" fill-opacity="0.00000" height="235.7969" width="8" x="26.9961" y="81.2969"/><line style="stroke:#181818;stroke-width:0.5;stroke-dasharray:5.0,5.0;" x1="30" x2="30" y1="81.2969" y2="317.0938"/></g><g><title>SilkRoad</title><rect fill="#000000" fill-opacity="0.00000" height="235.7969" width="8" x="102.5137" y="81.2969"/><line style="stroke:#181818;stroke-width:0.5;stroke-dasharray:5.0,5.0;" x1="106.2476" x2="106.2476" y1="81.2969" y2="317.0938"/></g><g><title>Robot</title><rect fill="#000000" fill-opacity="0.00000" height="235.7969" width="8" x="578.7754" y="81.2969"/><line style="stroke:#181818;stroke-width:0.5;stroke-dasharray:5.0,5.0;" x1="582.1582" x2="582.1582" y1="81.2969" y2="317.0938"/></g><g class="participant participant-head" data-participant="Actor0"><text fill="#000000" font-family="sans-serif" font-size="14" lengthAdjust="spacing" textLength="45.9922" x="5" y="77.9951">Actor0</text><ellipse cx="30.9961" cy="13.5" fill="#E2E2F0" rx="8" ry="8" style="stroke:#181818;stroke-width:0.5;"/><path d="M30.9961,21.5 L30.9961,48.5 M17.9961,29.5 L43.9961,29.5 M30.9961,48.5 L17.9961,63.5 M30.9961,48.5 L43.9961,63.5" fill="none" style="stroke:#181818;stroke-width:0.5;"/></g><g class="participant participant-tail" data-participant="Actor0"><text fill="#000000" font-family="sans-serif" font-size="14" lengthAdjust="spacing" textLength="45.9922" x="5" y="329.0889">Actor0</text><ellipse cx="30.9961" cy="340.8906" fill="#E2E2F0" rx="8" ry="8" style="stroke:#181818;stroke-width:0.5;"/><path d="M30.9961,348.8906 L30.9961,375.8906 M17.9961,356.8906 L43.9961,356.8906 M30.9961,375.8906 L17.9961,390.8906 M30.9961,375.8906 L43.9961,390.8906" fill="none" style="stroke:#181818;stroke-width:0.5;"/></g><g class="participant participant-head" data-participant="SilkRoad"><rect fill="#E2E2F0" height="30.2969" rx="2.5" ry="2.5" style="stroke:#181818;stroke-width:0.5;" width="74.5322" x="69.2476" y="50"/><text fill="#000000" font-family="sans-serif" font-size="14" lengthAdjust="spacing" textLength="60.5322" x="76.2476" y="69.9951">SilkRoad</text></g><g class="participant participant-tail" data-participant="SilkRoad"><rect fill="#E2E2F0" height="30.2969" rx="2.5" ry="2.5" style="stroke:#181818;stroke-width:0.5;" width="74.5322" x="69.2476" y="316.0938"/><text fill="#000000" font-family="sans-serif" font-size="14" lengthAdjust="spacing" textLength="60.5322" x="76.2476" y="336.0889">SilkRoad</text></g><g class="participant participant-head" data-participant="Robot"><rect fill="#E2E2F0" height="30.2969" rx="2.5" ry="2.5" style="stroke:#181818;stroke-width:0.5;" width="55.2344" x="555.1582" y="50"/><text fill="#000000" font-family="sans-serif" font-size="14" lengthAdjust="spacing" textLength="41.2344" x="562.1582" y="69.9951">Robot</text></g><g class="participant participant-tail" data-participant="Robot"><rect fill="#E2E2F0" height="30.2969" rx="2.5" ry="2.5" style="stroke:#181818;stroke-width:0.5;" width="55.2344" x="555.1582" y="316.0938"/><text fill="#000000" font-family="sans-serif" font-size="14" lengthAdjust="spacing" textLength="41.2344" x="562.1582" y="336.0889">Robot</text></g><g class="message" data-participant-1="Actor0" data-participant-2="SilkRoad"><polygon fill="#181818" points="94.5137,108.4297,104.5137,112.4297,94.5137,116.4297,98.5137,112.4297" style="stroke:#181818;stroke-width:1;"/><line style="stroke:#181818;stroke-width:1;" x1="30.9961" x2="100.5137" y1="112.4297" y2="112.4297"/><text fill="#000000" font-family="sans-serif" font-size="13" lengthAdjust="spacing" textLength="51.5176" x="37.9961" y="107.3638">robots()</text></g><g class="message" data-participant-1="SilkRoad" data-participant-2="SilkRoad"><line style="stroke:#181818;stroke-width:1;" x1="106.5137" x2="148.5137" y1="141.5625" y2="141.5625"/><line style="stroke:#181818;stroke-width:1;" x1="148.5137" x2="148.5137" y1="141.5625" y2="154.5625"/><line style="stroke:#181818;stroke-width:1;" x1="107.5137" x2="148.5137" y1="154.5625" y2="154.5625"/><polygon fill="#181818" points="117.5137,150.5625,107.5137,154.5625,117.5137,158.5625,113.5137,154.5625" style="stroke:#181818;stroke-width:1;"/><text fill="#000000" font-family="sans-serif" font-size="13" lengthAdjust="spacing" textLength="462.2617" x="113.5137" y="136.4966">Collections.sort(robots, Comparator.comparingInt(Robot::getLocation))</text></g><path d="M59.2476,169.5625 L135.8716,169.5625 L135.8716,176.6953 L125.8716,186.6953 L59.2476,186.6953 L59.2476,169.5625" fill="#EEEEEE" style="stroke:#000000;stroke-width:1.5;"/><rect fill="none" height="88.3984" style="stroke:#000000;stroke-width:1.5;" width="561.145" x="59.2476" y="169.5625"/><text fill="#000000" font-family="sans-serif" font-size="13" font-weight="bold" lengthAdjust="spacing" textLength="31.624" x="74.2476" y="182.6294">loop</text><a href="for" target="_top" title="for" xlink:actuate="onRequest" xlink:href="for" xlink:show="new" xlink:title="for" xlink:type="simple"><text fill="#0000FF" font-family="sans-serif" font-size="11" font-weight="bold" lengthAdjust="spacing" text-decoration="underline" textLength="196.9849" x="150.8716" y="181.7729">(int i = 0; i &lt; robots.size(); i++)</text></a><g class="message" data-participant-1="SilkRoad" data-participant-2="Robot"><polygon fill="#181818" points="570.7754,203.8281,580.7754,207.8281,570.7754,211.8281,574.7754,207.8281" style="stroke:#181818;stroke-width:1;"/><line style="stroke:#181818;stroke-width:1;" x1="106.5137" x2="576.7754" y1="207.8281" y2="207.8281"/><text fill="#000000" font-family="sans-serif" font-size="13" lengthAdjust="spacing" textLength="86.7026" x="113.5137" y="202.7622">getLocation()</text></g><g class="message" data-participant-1="SilkRoad" data-participant-2="SilkRoad"><line style="stroke:#181818;stroke-width:1;" x1="106.5137" x2="148.5137" y1="236.9609" y2="236.9609"/><line style="stroke:#181818;stroke-width:1;" x1="148.5137" x2="148.5137" y1="236.9609" y2="249.9609"/><line style="stroke:#181818;stroke-width:1;" x1="107.5137" x2="148.5137" y1="249.9609" y2="249.9609"/><polygon fill="#181818" points="117.5137,245.9609,107.5137,249.9609,117.5137,253.9609,113.5137,249.9609" style="stroke:#181818;stroke-width:1;"/><text fill="#000000" font-family="sans-serif" font-size="13" lengthAdjust="spacing" textLength="96.6621" x="113.5137" y="231.895">result[i][1] = 0</text></g><g class="message" data-participant-1="SilkRoad" data-participant-2="SilkRoad"><line style="stroke:#181818;stroke-width:1;" x1="106.5137" x2="148.5137" y1="286.0938" y2="286.0938"/><line style="stroke:#181818;stroke-width:1;" x1="148.5137" x2="148.5137" y1="286.0938" y2="299.0938"/><line style="stroke:#181818;stroke-width:1;" x1="107.5137" x2="148.5137" y1="299.0938" y2="299.0938"/><polygon fill="#181818" points="117.5137,295.0938,107.5137,299.0938,117.5137,303.0938,113.5137,299.0938" style="stroke:#181818;stroke-width:1;"/><text fill="#000000" font-family="sans-serif" font-size="13" lengthAdjust="spacing" textLength="89.8955" x="113.5137" y="281.0278">return int[ ][ ]</text></g><!--SRC=[TOz1QyCm38Nl-XKwsdGBwJNh1cMdmKxjCUJWkLuHTQrWAvVz-iffAUcWnjX6x-dfi_F26RVrR65qMSZJw9BWdk9fn-xmKDpn3ml0rOwl7tSNTfYhLeo5U-rH_-GOWnVYL9h2MSoruKM5iyvm6jdu-Kdf-9N4pCEwxXZacxshZTO2HEOH-r-5DgH4XE_OlkcrkG4qXVw2iLfQhUm0g6i9D8SgpI9LaV-xbjyAPOhIqz2lXpeBGZe0F3NBb1CgM8-3xWi0]--></g></svg>