<svg xmlns="http://www.w3.org/2000/svg" xmlns:xlink="http://www.w3.org/1999/xlink" contentStyleType="text/css" data-diagram-type="SEQUENCE" height="384px" preserveAspectRatio="none" style="width:617px;height:384px;background:#FFFFFF;" version="1.1" viewBox="0 0 617 384" width="617px" zoomAndPan="magnify"><defs/><g><rect fill="none" height="75.3984" style="stroke:#000000;stroke-width:1.5;" width="554.105" x="57.813" y="169.5625"/><g><title>Actor0</title><rect fill="#000000" fill-opacity="0.00000" height="222.7969" width="8" x="26.9961" y="81.2969"/><line style="stroke:#181818;stroke-width:0.5;stroke-dasharray:5.0,5.0;" x1="30" x2="30" y1="81.2969" y2="304.0938"/></g><g><title>SilkRoad</title><rect fill="#000000" fill-opacity="0.00000" height="222.7969" width="8" x="101.0791" y="81.2969"/><line style="stroke:#181818;stroke-width:0.5;stroke-dasharray:5.0,5.0;" x1="104.813" x2="104.813" y1="81.2969" y2="304.0938"/></g><g><title>Store</title><rect fill="#000000" fill-opacity="0.00000" height="222.7969" width="8" x="572.2627" y="81.2969"/><line style="stroke:#181818;stroke-width:0.5;stroke-dasharray:5.0,5.0;" x1="575.6074" x2="575.6074" y1="81.2969" y2="304.0938"/></g><g class="participant participant-head" data-participant="Actor0"><text fill="#000000" font-family="sans-serif" font-size="14" lengthAdjust="spacing" textLength="45.9922" x="5" y="77.9951">Actor0</text><ellipse cx="30.9961" cy="13.5" fill="#E2E2F0" rx="8" ry="8" style="stroke:#181818;stroke-width:0.5;"/><path d="M30.9961,21.5 L30.9961,48.5 M17.9961,29.5 L43.9961,29.5 M30.9961,48.5 L17.9961,63.5 M30.9961,48.5 L43.9961,63.5" fill="none" style="stroke:#181818;stroke-width:0.5;"/></g><g class="participant participant-tail" data-participant="Actor0"><text fill="#000000" font-family="sans-serif" font-size="14" lengthAdjust="spacing" textLength="45.9922" x="5" y="316.0889">Actor0</text><ellipse cx="30.9961" cy="327.8906" fill="#E2E2F0" rx="8" ry="8" style="stroke:#181818;stroke-width:0.5;"/><path d="M30.9961,335.8906 L30.9961,362.8906 M17.9961,343.8906 L43.9961,343.8906 M30.9961,362.8906 L17.9961,377.8906 M30.9961,362.8906 L43.9961,377.8906" fill="none" style="stroke:#181818;stroke-width:0.5;"/></g><g class="participant participant-head" data-participant="SilkRoad"><rect fill="#E2E2F0" height="30.2969" rx="2.5" ry="2.5" style="stroke:#181818;stroke-width:0.5;" width="74.5322" x="67.813" y="50"/><text fill="#000000" font-family="sans-serif" font-size="14" lengthAdjust="spacing" textLength="60.5322" x="74.813" y="69.9951">SilkRoad</text></g><g class="participant participant-tail" data-participant="SilkRoad"><rect fill="#E2E2F0" height="30.2969" rx="2.5" ry="2.5" style="stroke:#181818;stroke-width:0.5;" width="74.5322" x="67.813" y="303.0938"/><text fill="#000000" font-family="sans-serif" font-size="14" lengthAdjust="spacing" textLength="60.5322" x="74.813" y="323.0889">SilkRoad</text></g><g class="participant participant-head" data-participant="Store"><rect fill="#E2E2F0" height="30.2969" rx="2.5" ry="2.5" style="stroke:#181818;stroke-width:0.5;" width="51.3105" x="550.6074" y="50"/><text fill="#000000" font-family="sans-serif" font-size="14" lengthAdjust="spacing" textLength="37.3105" x="557.6074" y="69.9951">Store</text></g><g class="participant participant-tail" data-participant="Store"><rect fill="#E2E2F0" height="30.2969" rx="2.5" ry="2.5" style="stroke:#181818;stroke-width:0.5;" width="51.3105" x="550.6074" y="303.0938"/><text fill="#000000" font-family="sans-serif" font-size="14" lengthAdjust="spacing" textLength="37.3105" x="557.6074" y="323.0889">Store</text></g><g class="message" data-participant-1="Actor0" data-participant-2="SilkRoad"><polygon fill="#181818" points="93.0791,108.4297,103.0791,112.4297,93.0791,116.4297,97.0791,112.4297" style="stroke:#181818;stroke-width:1;"/><line style="stroke:#181818;stroke-width:1;" x1="30.9961" x2="99.0791" y1="112.4297" y2="112.4297"/><text fill="#000000" font-family="sans-serif" font-size="13" lengthAdjust="spacing" textLength="50.083" x="37.9961" y="107.3638">stores()</text></g><g class="message" data-participant-1="SilkRoad" data-participant-2="SilkRoad"><line style="stroke:#181818;stroke-width:1;" x1="105.0791" x2="147.0791" y1="141.5625" y2="141.5625"/><line style="stroke:#181818;stroke-width:1;" x1="147.0791" x2="147.0791" y1="141.5625" y2="154.5625"/><line style="stroke:#181818;stroke-width:1;" x1="106.0791" x2="147.0791" y1="154.5625" y2="154.5625"/><polygon fill="#181818" points="116.0791,150.5625,106.0791,154.5625,116.0791,158.5625,112.0791,154.5625" style="stroke:#181818;stroke-width:1;"/><text fill="#000000" font-family="sans-serif" font-size="13" lengthAdjust="spacing" textLength="457.1836" x="112.0791" y="136.4966">Collections.sort(stores, Comparator.comparingInt(Store::getLocation))</text></g><path d="M57.813,169.5625 L134.437,169.5625 L134.437,176.6953 L124.437,186.6953 L57.813,186.6953 L57.813,169.5625" fill="#EEEEEE" style="stroke:#000000;stroke-width:1.5;"/><rect fill="none" height="75.3984" style="stroke:#000000;stroke-width:1.5;" width="554.105" x="57.813" y="169.5625"/><text fill="#000000" font-family="sans-serif" font-size="13" font-weight="bold" lengthAdjust="spacing" textLength="31.624" x="72.813" y="182.6294">loop</text><a href="for" target="_top" title="for" xlink:actuate="onRequest" xlink:href="for" xlink:show="new" xlink:title="for" xlink:type="simple"><text fill="#0000FF" font-family="sans-serif" font-size="11" font-weight="bold" lengthAdjust="spacing" text-decoration="underline" textLength="195.5615" x="149.437" y="181.7729">(int i = 0; i &lt; stores.size(); i++)</text></a><g class="message" data-participant-1="SilkRoad" data-participant-2="Store"><polygon fill="#181818" points="564.2627,203.8281,574.2627,207.8281,564.2627,211.8281,568.2627,207.8281" style="stroke:#181818;stroke-width:1;"/><line style="stroke:#181818;stroke-width:1;" x1="105.0791" x2="570.2627" y1="207.8281" y2="207.8281"/><text fill="#000000" font-family="sans-serif" font-size="13" lengthAdjust="spacing" textLength="86.7026" x="112.0791" y="202.7622">getLocation()</text></g><g class="message" data-participant-1="SilkRoad" data-participant-2="Store"><polygon fill="#181818" points="564.2627,232.9609,574.2627,236.9609,564.2627,240.9609,568.2627,236.9609" style="stroke:#181818;stroke-width:1;"/><line style="stroke:#181818;stroke-width:1;" x1="105.0791" x2="570.2627" y1="236.9609" y2="236.9609"/><text fill="#000000" font-family="sans-serif" font-size="13" lengthAdjust="spacing" textLength="78.6919" x="112.0791" y="231.895">getTenges()</text></g><g class="message" data-participant-1="SilkRoad" data-participant-2="SilkRoad"><line style="stroke:#181818;stroke-width:1;" x1="105.0791" x2="147.0791" y1="273.0938" y2="273.0938"/><line style="stroke:#181818;stroke-width:1;" x1="147.0791" x2="147.0791" y1="273.0938" y2="286.0938"/><line style="stroke:#181818;stroke-width:1;" x1="106.0791" x2="147.0791" y1="286.0938" y2="286.0938"/><polygon fill="#181818" points="116.0791,282.0938,106.0791,286.0938,116.0791,290.0938,112.0791,286.0938" style="stroke:#181818;stroke-width:1;"/><text fill="#000000" font-family="sans-serif" font-size="13" lengthAdjust="spacing" textLength="89.8955" x="112.0791" y="268.0278">return int[ ][ ]</text></g><!--SRC=[VOzD3y8W38Rl_HKzGgRBplCZCPvCFActPGU2k10H5gWNVxrbCuixA24K-hwbJvMc476Npmfw5SbgsojFUBRkVWhgEa-opG2CTbnk9nVMcBAMX8GfDzVtmJcZoGQVoXGYYR5WmSA3UoX-bNguMjyTF8cXMLrtXev1grme9O0BeSVcnj32Cf753LOh3kiFG9diomZ9gQAGBI2l6L0sCStNhupyntKnlXl6CluAlsQBXfxH8mCrsF9-0m00]--></g></svg>