<svg xmlns="http://www.w3.org/2000/svg" xmlns:xlink="http://www.w3.org/1999/xlink" contentStyleType="text/css" data-diagram-type="SEQUENCE" height="344px" preserveAspectRatio="none" style="width:420px;height:344px;background:#FFFFFF;" version="1.1" viewBox="0 0 420 344" width="420px" zoomAndPan="magnify"><defs/><g><rect fill="none" height="119.5313" style="stroke:#000000;stroke-width:1.5;" width="293.6567" x="120.3311" y="127.4297"/><g><title>Actor0</title><rect fill="#000000" fill-opacity="0.00000" height="182.6641" width="8" x="26.9961" y="81.2969"/><line style="stroke:#181818;stroke-width:0.5;stroke-dasharray:5.0,5.0;" x1="30" x2="30" y1="81.2969" y2="263.9609"/></g><g><title>SilkRoad</title><rect fill="#000000" fill-opacity="0.00000" height="182.6641" width="8" x="163.5972" y="81.2969"/><line style="stroke:#181818;stroke-width:0.5;stroke-dasharray:5.0,5.0;" x1="167.3311" x2="167.3311" y1="81.2969" y2="263.9609"/></g><g><title>Rectangle</title><rect fill="#000000" fill-opacity="0.00000" height="182.6641" width="8" x="357.8032" y="81.2969"/><line style="stroke:#181818;stroke-width:0.5;stroke-dasharray:5.0,5.0;" x1="361.6187" x2="361.6187" y1="81.2969" y2="263.9609"/></g><g class="participant participant-head" data-participant="Actor0"><text fill="#000000" font-family="sans-serif" font-size="14" lengthAdjust="spacing" textLength="45.9922" x="5" y="77.9951">Actor0</text><ellipse cx="30.9961" cy="13.5" fill="#E2E2F0" rx="8" ry="8" style="stroke:#181818;stroke-width:0.5;"/><path d="M30.9961,21.5 L30.9961,48.5 M17.9961,29.5 L43.9961,29.5 M30.9961,48.5 L17.9961,63.5 M30.9961,48.5 L43.9961,63.5" fill="none" style="stroke:#181818;stroke-width:0.5;"/></g><g class="participant participant-tail" data-participant="Actor0"><text fill="#000000" font-family="sans-serif" font-size="14" lengthAdjust="spacing" textLength="45.9922" x="5" y="275.9561">Actor0</text><ellipse cx="30.9961" cy="287.7578" fill="#E2E2F0" rx="8" ry="8" style="stroke:#181818;stroke-width:0.5;"/><path d="M30.9961,295.7578 L30.9961,322.7578 M17.9961,303.7578 L43.9961,303.7578 M30.9961,322.7578 L17.9961,337.7578 M30.9961,322.7578 L43.9961,337.7578" fill="none" style="stroke:#181818;stroke-width:0.5;"/></g><g class="participant participant-head" data-participant="SilkRoad"><rect fill="#E2E2F0" height="30.2969" rx="2.5" ry="2.5" style="stroke:#181818;stroke-width:0.5;" width="74.5322" x="130.3311" y="50"/><text fill="#000000" font-family="sans-serif" font-size="14" lengthAdjust="spacing" textLength="60.5322" x="137.3311" y="69.9951">SilkRoad</text></g><g class="participant participant-tail" data-participant="SilkRoad"><rect fill="#E2E2F0" height="30.2969" rx="2.5" ry="2.5" style="stroke:#181818;stroke-width:0.5;" width="74.5322" x="130.3311" y="262.9609"/><text fill="#000000" font-family="sans-serif" font-size="14" lengthAdjust="spacing" textLength="60.5322" x="137.3311" y="282.9561">SilkRoad</text></g><g class="participant participant-head" data-participant="Rectangle"><rect fill="#E2E2F0" height="30.2969" rx="2.5" ry="2.5" style="stroke:#181818;stroke-width:0.5;" width="84.3691" x="319.6187" y="50"/><text fill="#000000" font-family="sans-serif" font-size="14" lengthAdjust="spacing" textLength="70.3691" x="326.6187" y="69.9951">Rectangle</text></g><g class="participant participant-tail" data-participant="Rectangle"><rect fill="#E2E2F0" height="30.2969" rx="2.5" ry="2.5" style="stroke:#181818;stroke-width:0.5;" width="84.3691" x="319.6187" y="262.9609"/><text fill="#000000" font-family="sans-serif" font-size="14" lengthAdjust="spacing" textLength="70.3691" x="326.6187" y="282.9561">Rectangle</text></g><g class="message" data-participant-1="Actor0" data-participant-2="SilkRoad"><polygon fill="#181818" points="155.5972,108.4297,165.5972,112.4297,155.5972,116.4297,159.5972,112.4297" style="stroke:#181818;stroke-width:1;"/><line style="stroke:#181818;stroke-width:1;" x1="30.9961" x2="161.5972" y1="112.4297" y2="112.4297"/><text fill="#000000" font-family="sans-serif" font-size="13" lengthAdjust="spacing" textLength="112.6011" x="37.9961" y="107.3638">updateProfitBar()</text></g><path d="M120.3311,127.4297 L184.7739,127.4297 L184.7739,134.5625 L174.7739,144.5625 L120.3311,144.5625 L120.3311,127.4297" fill="#EEEEEE" style="stroke:#000000;stroke-width:1.5;"/><rect fill="none" height="119.5313" style="stroke:#000000;stroke-width:1.5;" width="293.6567" x="120.3311" y="127.4297"/><text fill="#000000" font-family="sans-serif" font-size="13" font-weight="bold" lengthAdjust="spacing" textLength="19.4429" x="135.3311" y="140.4966">alt</text><a href="if" target="_top" title="if" xlink:actuate="onRequest" xlink:href="if" xlink:show="new" xlink:title="if" xlink:type="simple"><text fill="#0000FF" font-family="sans-serif" font-size="11" font-weight="bold" lengthAdjust="spacing" text-decoration="underline" textLength="55.4351" x="199.7739" y="139.6401">(!visible)</text></a><g class="message" data-participant-1="SilkRoad" data-participant-2="SilkRoad"><line style="stroke:#181818;stroke-width:1;" x1="167.5972" x2="209.5972" y1="165.6953" y2="165.6953"/><line style="stroke:#181818;stroke-width:1;" x1="209.5972" x2="209.5972" y1="165.6953" y2="178.6953"/><line style="stroke:#181818;stroke-width:1;" x1="168.5972" x2="209.5972" y1="178.6953" y2="178.6953"/><polygon fill="#181818" points="178.5972,174.6953,168.5972,178.6953,178.5972,182.6953,174.5972,178.6953" style="stroke:#181818;stroke-width:1;"/><text fill="#000000" font-family="sans-serif" font-size="13" lengthAdjust="spacing" textLength="40.2632" x="174.5972" y="160.6294">return</text></g><line style="stroke:#000000;stroke-width:1;stroke-dasharray:2.0,2.0;" x1="120.3311" x2="413.9878" y1="187.6953" y2="187.6953"/><g class="message" data-participant-1="SilkRoad" data-participant-2="Rectangle"><polygon fill="#181818" points="349.8032,205.8281,359.8032,209.8281,349.8032,213.8281,353.8032,209.8281" style="stroke:#181818;stroke-width:1;"/><line style="stroke:#181818;stroke-width:1;" x1="167.5972" x2="355.8032" y1="209.8281" y2="209.8281"/><text fill="#000000" font-family="sans-serif" font-size="13" lengthAdjust="spacing" textLength="170.2061" x="174.5972" y="204.7622">changeSize(width, height)</text></g><g class="message" data-participant-1="SilkRoad" data-participant-2="Rectangle"><polygon fill="#181818" points="349.8032,234.9609,359.8032,238.9609,349.8032,242.9609,353.8032,238.9609" style="stroke:#181818;stroke-width:1;"/><line style="stroke:#181818;stroke-width:1;" x1="167.5972" x2="355.8032" y1="238.9609" y2="238.9609"/><text fill="#000000" font-family="sans-serif" font-size="13" lengthAdjust="spacing" textLength="141.7178" x="174.5972" y="233.895">changeColor("green")</text></g><!--SRC=[ZOt12i8m38RlVOguKmiAdZq8wWl8TXGFiStMO6b7bYduz4w4mV1Y3k4dVDyVz5e43f-zDJsAikSUiqB3wLuN38jZJLunTucC-IgmsSyax63i0ogTfRIiHnJh32Q52xTWLmyU-9R8NGrCCqlB0Y4T9HjA0_rWy_E9yt5ArF2Bx9E3nZL4uYwg-yCwbLJ4LfqGvSePok4D]--></g></svg>